<svg width="520" height="254" viewBox="0 0 520 254" fill="none" xmlns="http://www.w3.org/2000/svg">
<path fill-rule="evenodd" clip-rule="evenodd" d="M16.3484 0.595215H58.3344C67.3634 0.595215 74.6829 7.91466 74.6829 16.9436V58.9297C74.6829 67.9586 67.3634 75.2781 58.3344 75.2781H16.3484C7.31944 75.2781 0 67.9586 0 58.9297V16.9436C0 7.91466 7.31944 0.595215 16.3484 0.595215ZM105.412 0.595215H147.398C156.427 0.595215 163.746 7.91466 163.746 16.9436V58.9296C163.746 67.9586 156.427 75.2781 147.398 75.2781H105.412C96.3829 75.2781 89.0634 67.9586 89.0634 58.9296V16.9436C89.0634 7.91465 96.3829 0.595215 105.412 0.595215ZM194.475 0.595215H236.461C245.49 0.595215 252.81 7.91468 252.81 16.9436V58.9296C252.81 67.9586 245.49 75.2781 236.461 75.2781H194.475C185.446 75.2781 178.127 67.9586 178.127 58.9296V16.9436C178.127 7.91465 185.446 0.595215 194.475 0.595215ZM16.3484 89.6586H58.3344C67.3634 89.6586 74.6829 96.9781 74.6829 106.007V147.993C74.6829 157.022 67.3634 164.341 58.3344 164.341H16.3484C7.31942 164.341 0 157.022 0 147.993V106.007C0 96.9781 7.31944 89.6586 16.3484 89.6586ZM105.412 89.6586H147.398C156.427 89.6586 163.746 96.9781 163.746 106.007V147.993C163.746 157.022 156.427 164.341 147.398 164.341H105.412C96.3829 164.341 89.0634 157.022 89.0634 147.993V106.007C89.0634 96.9781 96.3829 89.6586 105.412 89.6586ZM194.475 89.6586H236.461C245.49 89.6586 252.81 96.9781 252.81 106.007V147.993C252.81 157.022 245.49 164.341 236.461 164.341H194.475C185.446 164.341 178.127 157.022 178.127 147.993V106.007C178.127 96.9781 185.446 89.6586 194.475 89.6586ZM283.539 0.595215H325.525C334.554 0.595215 341.873 7.91465 341.873 16.9436V58.9297C341.873 67.9586 334.554 75.2781 325.525 75.2781H283.539C274.51 75.2781 267.19 67.9586 267.19 58.9297V16.9436C267.19 7.91465 274.51 0.595215 283.539 0.595215ZM372.602 0.595215H414.588C423.617 0.595215 430.937 7.91465 430.937 16.9436V58.9296C430.937 67.9586 423.617 75.2781 414.588 75.2781H372.602C363.573 75.2781 356.254 67.9586 356.254 58.9296V16.9436C356.254 7.91465 363.573 0.595215 372.602 0.595215ZM461.666 0.595215H503.652C512.681 0.595215 520 7.91468 520 16.9436V58.9296C520 67.9586 512.681 75.2781 503.652 75.2781H461.666C452.637 75.2781 445.317 67.9586 445.317 58.9296V16.9436C445.317 7.91468 452.637 0.595215 461.666 0.595215ZM283.539 89.6586H325.525C334.554 89.6586 341.873 96.9781 341.873 106.007V147.993C341.873 157.022 334.554 164.341 325.525 164.341H283.539C274.51 164.341 267.19 157.022 267.19 147.993V106.007C267.19 96.9781 274.51 89.6586 283.539 89.6586ZM372.602 89.6586H414.588C423.617 89.6586 430.937 96.9781 430.937 106.007V147.993C430.937 157.022 423.617 164.341 414.588 164.341H372.602C363.573 164.341 356.254 157.022 356.254 147.993V106.007C356.254 96.9781 363.573 89.6586 372.602 89.6586ZM461.666 89.6586H503.652C512.681 89.6586 520 96.9781 520 106.007V147.993C520 157.022 512.681 164.341 503.652 164.341H461.666C452.637 164.341 445.317 157.022 445.317 147.993V106.007C445.317 96.9781 452.637 89.6586 461.666 89.6586ZM16.3484 178.722H58.3344C67.3634 178.722 74.6829 186.042 74.6829 195.07V237.056C74.6829 246.085 67.3634 253.405 58.3344 253.405H16.3484C7.31943 253.405 0 246.085 0 237.056V195.07C0 186.042 7.31943 178.722 16.3484 178.722ZM105.412 178.722H147.398C156.427 178.722 163.746 186.042 163.746 195.07V237.056C163.746 246.085 156.427 253.405 147.398 253.405H105.412C96.3829 253.405 89.0634 246.085 89.0634 237.056V195.07C89.0634 186.042 96.3829 178.722 105.412 178.722ZM194.475 178.722H236.461C245.49 178.722 252.81 186.042 252.81 195.07V237.056C252.81 246.085 245.49 253.405 236.461 253.405H194.475C185.446 253.405 178.127 246.085 178.127 237.056V195.07C178.127 186.042 185.446 178.722 194.475 178.722ZM283.539 178.722H325.525C334.554 178.722 341.873 186.042 341.873 195.07V237.056C341.873 246.085 334.554 253.405 325.525 253.405H283.539C274.51 253.405 267.19 246.085 267.19 237.056V195.07C267.19 186.042 274.51 178.722 283.539 178.722ZM372.602 178.722H414.588C423.617 178.722 430.937 186.042 430.937 195.07V237.056C430.937 246.085 423.617 253.405 414.588 253.405H372.602C363.573 253.405 356.254 246.085 356.254 237.056V195.07C356.254 186.042 363.573 178.722 372.602 178.722ZM461.666 178.722H503.652C512.681 178.722 520 186.042 520 195.07V237.056C520 246.085 512.681 253.405 503.652 253.405H461.666C452.637 253.405 445.317 246.085 445.317 237.056V195.07C445.317 186.042 452.637 178.722 461.666 178.722ZM16.3484 8.35641H58.3344C63.077 8.35641 66.9217 12.201 66.9217 16.9436V58.9297C66.9217 63.6723 63.077 67.5169 58.3344 67.5169H16.3484C11.6058 67.5169 7.76119 63.6723 7.76119 58.9297V16.9436C7.76119 12.201 11.6058 8.35641 16.3484 8.35641ZM105.412 8.35641H147.398C152.14 8.35641 155.985 12.201 155.985 16.9436V58.9296C155.985 63.6722 152.14 67.5169 147.398 67.5169H105.412C100.669 67.5169 96.8246 63.6722 96.8246 58.9296V16.9436C96.8246 12.201 100.669 8.35641 105.412 8.35641ZM236.461 8.35641H194.475C189.733 8.35641 185.888 12.201 185.888 16.9436V58.9296C185.888 63.6722 189.733 67.5169 194.475 67.5169H236.461C241.204 67.5169 245.049 63.6722 245.049 58.9296V16.9436C245.049 12.201 241.204 8.35641 236.461 8.35641ZM16.3484 97.4198H58.3344C63.077 97.4198 66.9217 101.264 66.9217 106.007V147.993C66.9217 152.736 63.077 156.58 58.3344 156.58H16.3484C11.6058 156.58 7.76119 152.736 7.76119 147.993V106.007C7.76119 101.264 11.6058 97.4198 16.3484 97.4198ZM147.398 97.4198H105.412C100.669 97.4198 96.8246 101.264 96.8246 106.007V147.993C96.8246 152.736 100.669 156.58 105.412 156.58H147.398C152.14 156.58 155.985 152.736 155.985 147.993V106.007C155.985 101.264 152.14 97.4198 147.398 97.4198ZM194.475 97.4198H236.461C241.204 97.4198 245.049 101.264 245.049 106.007V147.993C245.049 152.736 241.204 156.58 236.461 156.58H194.475C189.733 156.58 185.888 152.736 185.888 147.993V106.007C185.888 101.264 189.733 97.4198 194.475 97.4198ZM325.525 8.35641H283.539C278.796 8.35641 274.951 12.201 274.951 16.9436V58.9297C274.951 63.6723 278.796 67.5169 283.539 67.5169H325.525C330.267 67.5169 334.112 63.6723 334.112 58.9297V16.9436C334.112 12.201 330.267 8.35641 325.525 8.35641ZM372.602 8.35641H414.588C419.331 8.35641 423.175 12.201 423.175 16.9436V58.9296C423.175 63.6722 419.331 67.5169 414.588 67.5169H372.602C367.86 67.5169 364.015 63.6722 364.015 58.9296V16.9436C364.015 12.201 367.86 8.35641 372.602 8.35641ZM503.652 8.35641H461.666C456.923 8.35641 453.078 12.201 453.078 16.9436V58.9296C453.078 63.6722 456.923 67.5169 461.666 67.5169H503.652C508.394 67.5169 512.239 63.6722 512.239 58.9296V16.9436C512.239 12.201 508.394 8.35641 503.652 8.35641ZM283.539 97.4198H325.525C330.267 97.4198 334.112 101.264 334.112 106.007V147.993C334.112 152.736 330.267 156.58 325.525 156.58H283.539C278.796 156.58 274.951 152.736 274.951 147.993V106.007C274.951 101.264 278.796 97.4198 283.539 97.4198ZM414.588 97.4198H372.602C367.86 97.4198 364.015 101.264 364.015 106.007V147.993C364.015 152.736 367.86 156.58 372.602 156.58H414.588C419.331 156.58 423.175 152.736 423.175 147.993V106.007C423.175 101.264 419.331 97.4198 414.588 97.4198ZM461.666 97.4198H503.652C508.394 97.4198 512.239 101.264 512.239 106.007V147.993C512.239 152.736 508.394 156.58 503.652 156.58H461.666C456.923 156.58 453.078 152.736 453.078 147.993V106.007C453.078 101.264 456.923 97.4198 461.666 97.4198ZM58.3344 186.483H16.3484C11.6058 186.483 7.76119 190.328 7.76119 195.07V237.056C7.76119 241.799 11.6058 245.644 16.3484 245.644H58.3344C63.077 245.644 66.9217 241.799 66.9217 237.056V195.07C66.9217 190.328 63.077 186.483 58.3344 186.483ZM105.412 186.483H147.398C152.14 186.483 155.985 190.328 155.985 195.07V237.056C155.985 241.799 152.14 245.644 147.398 245.644H105.412C100.669 245.644 96.8246 241.799 96.8246 237.056V195.07C96.8246 190.328 100.669 186.483 105.412 186.483ZM236.461 186.483H194.475C189.733 186.483 185.888 190.328 185.888 195.07V237.056C185.888 241.799 189.733 245.644 194.475 245.644H236.461C241.204 245.644 245.049 241.799 245.049 237.056V195.07C245.049 190.328 241.204 186.483 236.461 186.483ZM283.539 186.483H325.525C330.267 186.483 334.112 190.328 334.112 195.07V237.056C334.112 241.799 330.267 245.644 325.525 245.644H283.539C278.796 245.644 274.951 241.799 274.951 237.056V195.07C274.951 190.328 278.796 186.483 283.539 186.483ZM414.588 186.483H372.602C367.86 186.483 364.015 190.328 364.015 195.07V237.056C364.015 241.799 367.86 245.644 372.602 245.644H414.588C419.331 245.644 423.175 241.799 423.175 237.056V195.07C423.175 190.328 419.331 186.483 414.588 186.483ZM461.666 186.483H503.652C508.394 186.483 512.239 190.328 512.239 195.07V237.056C512.239 241.799 508.394 245.644 503.652 245.644H461.666C456.923 245.644 453.078 241.799 453.078 237.056V195.07C453.078 190.328 456.923 186.483 461.666 186.483Z" fill="url(#paint0_linear_256_11389)"/>
<defs>
<linearGradient id="paint0_linear_256_11389" x1="-838.08" y1="127.001" x2="579.8" y2="127" gradientUnits="userSpaceOnUse">
<stop stop-color="#6DFFD5"/>
<stop offset="1" stop-color="#6DFFD5" stop-opacity="0"/>
</linearGradient>
</defs>
</svg>
