<svg width="200" height="108" viewBox="0 0 200 108" fill="none" xmlns="http://www.w3.org/2000/svg">
<g id="deussec">
<path id="Vector" d="M60.162 103.407L57.4593 106.379C56.2674 107.856 54.7231 107.856 53.9508 107.856H45.4902V87.9971H53.9508C56.2842 87.9971 57.0564 88.9707 57.4593 89.4407L60.162 92.412C60.7831 93.0835 60.9341 93.6207 61.0181 93.8892C61.2363 94.6782 61.2363 95.5343 61.2363 95.9541V99.8822C61.2363 101.141 61.0852 101.662 61.0014 101.93C60.7663 102.719 60.3635 103.189 60.162 103.407ZM55.9317 104.767L58.0469 102.551C58.5337 102.031 58.6511 101.594 58.7015 101.376C58.8862 100.721 58.8862 100.05 58.8862 99.7143V96.1052C58.8862 95.0811 58.7687 94.6615 58.7015 94.4432C58.5168 93.7885 58.1979 93.4528 58.0469 93.2682L55.9317 91.0523C54.9749 89.9612 53.8334 89.9612 53.2625 89.9612H47.8236V105.875H53.2625C54.9749 105.875 55.6128 105.137 55.9317 104.784V104.767Z" fill="white"/>
<path id="Vector_2" d="M76.3105 105.438L75.1858 106.647C74.5647 107.335 74.0778 107.553 73.826 107.654C73.0874 107.973 72.3656 107.973 72.0131 107.973H69.7133C68.1689 107.973 67.4974 107.302 67.1449 106.949L65.2647 104.951C64.543 104.129 64.543 102.954 64.543 102.383V99.3949C64.543 97.6659 65.0298 97.1287 65.2647 96.8434L67.1785 94.8457C68.2025 93.8218 69.2264 93.8218 69.7469 93.8218H71.6605C73.2888 93.8218 73.91 94.4932 74.2289 94.8457L76.1426 96.8434C76.5455 97.2966 76.6462 97.6995 76.6966 97.8842C76.8477 98.4717 76.8477 99.076 76.8477 99.3782V101.779H66.7587V102.282C66.7587 103.575 67.1281 103.978 67.3128 104.179L68.4374 105.421C68.7732 105.808 69.0419 105.892 69.1761 105.942C69.5622 106.093 70.0154 106.093 70.2337 106.093H71.2745C72.248 106.093 72.6174 105.959 72.8021 105.892C73.3561 105.69 73.6582 105.371 73.8093 105.203L74.934 103.995H76.3273V105.421L76.3105 105.438ZM74.6486 99.9825V99.3949C74.6486 98.2367 74.3129 97.8002 74.1451 97.582L73.1043 96.3733C72.7852 95.9704 72.4998 95.8697 72.3488 95.8194C71.9292 95.6683 71.4759 95.6683 71.2576 95.6683H70.1665C69.5454 95.6683 69.2768 95.7857 69.1426 95.8361C68.7396 96.0041 68.5047 96.2558 68.3871 96.3902L67.2959 97.5988C66.7587 98.2031 66.7587 99.0088 66.7587 99.4118V99.9992H74.6823L74.6486 99.9825Z" fill="white"/>
<path id="Vector_3" d="M91.8215 107.856H89.6561V105.757L88.5313 106.899C87.9605 107.469 87.5913 107.654 87.4066 107.738C86.8526 108.007 86.3323 108.007 86.0804 108.007H84.8047C83.0756 108.007 82.4712 107.335 82.1859 106.983L80.7086 105.27C80.3393 104.834 80.2385 104.448 80.1882 104.246C80.0371 103.659 80.0371 103.021 80.0371 102.702V93.9561H82.253V102.635C82.253 104.011 82.5888 104.448 82.7566 104.666L83.3441 105.405C83.6632 105.791 83.915 105.875 84.0492 105.925C84.4353 106.076 84.8718 106.076 85.0899 106.076H85.9965C86.6679 106.076 86.9366 105.992 87.0708 105.942C87.4569 105.808 87.692 105.573 87.8094 105.455L89.0182 104.246C89.6392 103.625 89.6392 102.719 89.6392 102.266V93.9728H91.8384V107.856H91.8215Z" fill="white"/>
<path id="Vector_4" d="M106.075 106.295L104.748 107.319C103.875 107.99 102.717 107.99 102.146 107.99H99.7962C98.705 107.99 98.2182 107.789 97.9664 107.672C97.2111 107.353 96.7578 106.899 96.5395 106.681L95.398 105.506V104.029H96.8753L98.1511 105.338C98.9401 106.178 99.8131 106.178 100.249 106.178H102.163C103.053 106.178 103.338 105.993 103.489 105.909L104.362 105.321C104.849 105.002 104.849 104.549 104.849 104.314V103.643C104.849 102.921 104.53 102.753 104.362 102.669L103.489 102.165C102.935 101.863 102.348 101.863 102.046 101.863H100.233C99.5108 101.863 99.3262 101.863 99.2423 101.863C98.9737 101.863 98.6714 101.796 98.5204 101.762C98.084 101.662 97.8657 101.528 97.765 101.46L96.1367 100.436C95.3477 99.9327 95.3477 98.9759 95.3477 98.5059V97.4315C95.3477 96.1724 95.9521 95.7361 96.2542 95.5178L97.6139 94.5274C98.5036 93.856 99.6451 93.856 100.216 93.856H102.566C103.657 93.856 104.178 94.0574 104.429 94.1581C105.202 94.4603 105.605 94.9135 105.806 95.1317L106.947 96.3571V97.8008H105.504L104.228 96.4915C103.405 95.6354 102.566 95.6354 102.13 95.6354H100.216C99.343 95.6354 99.0241 95.8368 98.873 95.9375L98 96.5249C97.5132 96.844 97.5132 97.2972 97.5132 97.5322V98.2036C97.5132 98.9255 97.8322 99.0933 98 99.1773L98.873 99.6809C99.4269 99.9831 100.048 99.9831 100.35 99.9831H102.163C102.868 99.9831 103.053 99.9831 103.137 99.9831C103.405 99.9831 103.708 100.05 103.859 100.084C104.312 100.184 104.513 100.319 104.631 100.386L106.226 101.41C107.031 101.947 107.031 102.887 107.031 103.374V104.415C107.031 105.607 106.427 106.077 106.125 106.312L106.075 106.295Z" fill="white"/>
<path id="Vector_5" d="M123.85 105.573L121.718 107.184C120.745 107.906 119.469 107.906 118.848 107.906H115.642C113.442 107.906 112.452 106.983 111.948 106.53L110.186 104.818V103.24H111.764L113.661 105.036C114.685 105.976 115.625 105.976 116.095 105.976H118.848C119.234 105.976 119.351 105.976 119.402 105.976C119.586 105.976 119.754 105.909 119.838 105.892C120.09 105.825 120.241 105.707 120.308 105.657L121.987 104.482C122.524 104.113 122.524 103.626 122.524 103.391V101.359C122.524 100.604 122.172 100.386 121.987 100.285L120.359 99.3282C119.754 99.0093 119.083 99.0093 118.747 99.0093H116.128C115.423 99.0093 115.188 99.0093 115.088 99.0093C114.752 99.0093 114.45 98.9253 114.299 98.8917C113.845 98.791 113.61 98.6399 113.493 98.5728L111.042 97.0788C110.169 96.5248 110.169 95.484 110.169 94.9636V92.4456C110.169 91.0691 110.824 90.5822 111.159 90.3304L113.291 88.7357C114.282 87.9971 115.541 87.9971 116.162 87.9971H119.251C120.392 87.9971 120.946 88.2321 121.232 88.3496C122.054 88.7021 122.574 89.1722 122.826 89.4072L124.589 91.0859V92.6638H123.011L121.114 90.8844C120.107 89.9612 119.234 89.9612 118.797 89.9612H116.162C115.171 89.9612 114.853 90.1626 114.685 90.2801L113.006 91.4552C112.469 91.7741 112.469 92.2945 112.469 92.5463V94.5608C112.469 95.4001 112.821 95.6016 113.006 95.7023L114.634 96.6758C115.205 96.9949 115.893 96.9949 116.246 96.9949H118.865C119.57 96.9949 119.805 96.9949 119.905 96.9949C120.241 96.9949 120.543 97.0788 120.694 97.1123C121.148 97.213 121.383 97.3641 121.5 97.4313L123.951 98.9253C124.824 99.4793 124.824 100.52 124.824 101.041V103.491C124.824 104.868 124.169 105.355 123.833 105.607L123.85 105.573Z" fill="white"/>
<path id="Vector_6" d="M139.815 105.438L138.689 106.647C138.068 107.335 137.582 107.553 137.33 107.654C136.591 107.973 135.87 107.973 135.516 107.973H133.217C131.673 107.973 131.001 107.302 130.649 106.949L128.769 104.951C128.047 104.129 128.047 102.954 128.047 102.383V99.3949C128.047 97.6659 128.534 97.1287 128.769 96.8434L130.682 94.8457C131.706 93.8218 132.73 93.8218 133.251 93.8218H135.164C136.792 93.8218 137.413 94.4932 137.733 94.8457L139.646 96.8434C140.05 97.2966 140.15 97.6995 140.2 97.8842C140.351 98.4717 140.351 99.076 140.351 99.3782V101.779H130.263V102.282C130.263 103.575 130.632 103.978 130.817 104.179L131.941 105.421C132.277 105.808 132.546 105.892 132.68 105.942C133.066 106.093 133.519 106.093 133.738 106.093H134.778C135.751 106.093 136.121 105.959 136.306 105.892C136.86 105.69 137.162 105.371 137.313 105.203L138.438 103.995H139.831V105.421L139.815 105.438ZM138.153 99.9825V99.3949C138.153 98.2367 137.817 97.8002 137.65 97.582L136.609 96.3733C136.289 95.9704 136.004 95.8697 135.853 95.8194C135.433 95.6683 134.981 95.6683 134.762 95.6683H133.671C133.049 95.6683 132.781 95.7857 132.646 95.8361C132.244 96.0041 132.009 96.2558 131.891 96.3902L130.8 97.5988C130.263 98.2031 130.263 99.0088 130.263 99.4118V99.9992H138.186L138.153 99.9825Z" fill="white"/>
<path id="Vector_7" d="M154.521 105.506L153.43 106.681C152.758 107.386 152.288 107.588 152.053 107.688C151.331 107.99 150.61 107.99 150.257 107.99H148.41C146.715 107.99 146.11 107.319 145.809 106.967L144.147 105.053C143.408 104.129 143.408 102.971 143.408 102.4V99.4124C143.408 98.4891 143.508 98.0862 143.576 97.8848C143.743 97.2805 144.012 96.9614 144.163 96.7936L145.841 94.8799C146.748 93.856 147.857 93.856 148.41 93.856H150.257C151.348 93.856 151.818 94.0574 152.053 94.1581C152.775 94.4603 153.211 94.8967 153.43 95.1149L154.521 96.3235V97.8008H153.026L151.902 96.5922C151.448 96.1557 151.163 96.0214 151.029 95.9543C150.61 95.7528 150.172 95.7528 149.955 95.7528H148.981C147.706 95.7528 147.336 96.2228 147.168 96.4578L146.177 97.6666C145.64 98.3883 145.64 99.2109 145.64 99.6138V102.266C145.64 103.492 145.992 103.978 146.177 104.213L147.168 105.422C147.453 105.808 147.738 105.892 147.873 105.942C148.293 106.094 148.746 106.094 148.981 106.094H149.955C151.029 106.094 151.617 105.54 151.902 105.254L153.026 104.046H154.521V105.523V105.506Z" fill="white"/>
<path id="Vector_8" d="M198.687 24.9956L123.549 32.919H122.072L124.506 20.4129V20.4633C132.329 19.3216 145.456 16.5687 145.456 11.0458C145.456 3.79384 122.592 0 100.014 0C77.4356 0 54.5719 3.79384 54.5719 11.0458C54.5719 16.5687 67.6657 19.3049 75.4884 20.4633L77.8553 32.9359H76.5124L1.34069 24.9956C0.165599 24.8782 -0.472302 26.3218 0.417402 27.1108L17.1203 41.9001C18.6647 43.2766 20.6456 44.0153 22.7104 44.0153H72.3491L33.8401 48.4973C32.6315 48.6483 32.3628 50.2599 33.4372 50.7803L57.0899 62.2625C57.4257 62.4304 57.8286 62.4304 58.1643 62.2625L72.3491 55.1113L61.9917 62.699C61.2698 63.2362 61.3705 64.344 62.1764 64.747L76.2941 71.6128C76.7809 71.8478 77.3852 71.7135 77.721 71.3106L83.395 64.8142L80.3229 72.3011C80.088 72.8886 80.3229 73.5602 80.8937 73.8454L99.4768 82.8768C99.7957 83.0446 100.199 83.0446 100.518 82.8768L119.067 73.8454C119.638 73.5602 119.906 72.8886 119.655 72.3011L116.599 64.8142L122.827 71.1092C123.197 71.4786 123.751 71.5624 124.221 71.3443L137.818 64.747C138.624 64.344 138.742 63.2362 138.003 62.6822L127.696 55.0946L141.914 62.2457C142.233 62.4136 142.635 62.4136 142.971 62.2457L166.607 50.7635C167.682 50.2431 167.413 48.6316 166.205 48.4805L127.696 43.9984H177.301C179.366 43.9984 181.346 43.243 182.891 41.8832L199.594 27.0941C200.466 26.3051 199.829 24.8613 198.671 24.9789L198.687 24.9956ZM76.2101 11.9355C74.9679 12.2544 74.1789 13.4799 74.414 14.7389L75.0183 17.9452C62.6463 16.0315 56.9892 13.0434 56.9892 11.0458C56.9892 7.43659 73.3564 2.40052 100.031 2.40052C126.705 2.40052 143.073 7.43659 143.073 11.0458C143.073 13.0602 137.398 16.0315 125.026 17.9452L125.664 14.7389C125.916 13.4799 125.127 12.2376 123.885 11.9355L100.652 6.16078C100.266 6.06007 99.8628 6.06007 99.4768 6.16078L76.227 11.9355H76.2101ZM78.5604 15.8971L100.031 10.5422L121.518 15.8971L118.261 32.919L115.978 44.9384L100.031 57.344L83.9153 44.9384L81.6994 32.919L78.5604 15.8971Z" fill="white"/>
<path id="Vector_9" d="M100.015 38.5425C103.355 38.5425 106.327 36.4442 107.418 33.3385C107.72 32.5159 107.871 31.6262 107.871 30.7198C107.871 26.4056 104.346 22.8804 99.998 22.8804C95.6502 22.8804 92.125 26.3888 92.125 30.7198C92.125 31.6262 92.2761 32.5159 92.5782 33.3218C93.6862 36.4442 96.6575 38.5425 99.998 38.5425H100.015Z" fill="white"/>
</g>
</svg>
