<svg width="17" height="16" viewBox="0 0 17 16" fill="none" xmlns="http://www.w3.org/2000/svg">
<g id="teenyicons:save-outline" clip-path="url(#clip0_1282_15020)">
<path id="Vector" d="M5.29987 15.4665V12.2665C5.29987 11.9836 5.41225 11.7123 5.61229 11.5123C5.81233 11.3123 6.08364 11.1999 6.36654 11.1999H10.6332C10.9161 11.1999 11.1874 11.3123 11.3875 11.5123C11.5875 11.7123 11.6999 11.9836 11.6999 12.2665V15.4665M14.8999 15.4665H2.09987C1.81697 15.4665 1.54566 15.3542 1.34562 15.1541C1.14558 14.9541 1.0332 14.6828 1.0332 14.3999V1.59987C1.0332 1.31697 1.14558 1.04566 1.34562 0.845623C1.54566 0.645584 1.81697 0.533203 2.09987 0.533203H11.2583C11.5411 0.533264 11.8124 0.645684 12.0124 0.845736L15.654 4.48734C15.8541 4.68733 15.9665 4.9586 15.9665 5.24147V14.3999C15.9665 14.6828 15.8542 14.9541 15.6541 15.1541C15.4541 15.3542 15.1828 15.4665 14.8999 15.4665Z" stroke="white" stroke-width="1.5"/>
</g>
<defs>
<clipPath id="clip0_1282_15020">
<rect width="16" height="16" fill="white" transform="translate(0.5)"/>
</clipPath>
</defs>
</svg>
