<svg width="32" height="32" viewBox="0 0 32 32" fill="none" xmlns="http://www.w3.org/2000/svg">
<g clip-path="url(#clip0_2108_29357)">
<path d="M13.1881 9.68762C5.95053 9.68762 6.14586e-07 14.6647 6.14586e-07 20.7825C6.14586e-07 23.228 0.948566 25.7133 2.68812 27.6397L0.231642 30.4468C0.113045 30.5823 0.0360582 30.7491 0.00991562 30.9273C-0.0162269 31.1054 0.00958555 31.2873 0.0842564 31.4512C0.158549 31.6152 0.278549 31.7544 0.429887 31.852C0.581225 31.9496 0.757487 32.0015 0.937565 32.0015H14.1257C19.4695 32.0015 26.3762 27.3999 26.3762 20.7825C26.3762 14.6647 20.4257 9.68762 13.1881 9.68762ZM7.50033 22.501C6.46663 22.501 5.62526 21.6596 5.62526 20.6259C5.62526 19.5922 6.46669 18.7509 7.50033 18.7509C8.53396 18.7509 9.37539 19.5923 9.37539 20.6259C9.37546 21.6596 8.53402 22.501 7.50033 22.501ZM13.1881 22.501C12.1544 22.501 11.313 21.6596 11.313 20.6259C11.313 19.5922 12.1545 18.7509 13.1881 18.7509C14.2217 18.7509 15.0632 19.5923 15.0632 20.6259C15.0632 21.6596 14.2218 22.501 13.1881 22.501ZM18.8759 22.501C17.8422 22.501 17.0008 21.6596 17.0008 20.6259C17.0008 19.5922 17.8422 18.7509 18.8759 18.7509C19.9095 18.7509 20.7509 19.5923 20.7509 20.6259C20.7509 21.6596 19.9096 22.501 18.8759 22.501Z" fill="#6DFFD5"/>
<path d="M31.7775 19.0777L29.5701 16.5022C31.1457 14.7242 32.0037 12.556 32.0037 10.313C32.0036 4.62638 26.5359 0 19.8156 0C13.7386 0 8.57569 3.78707 7.66406 8.71622C9.35968 8.14006 11.2612 7.81254 13.1903 7.81254C21.4004 7.81254 28.1458 13.547 28.2444 20.6259H31.0661C31.867 20.626 32.2971 19.6829 31.7775 19.0777Z" fill="#6DFFD5"/>
</g>
<defs>
<clipPath id="clip0_2108_29357">
<rect width="32" height="32" fill="white"/>
</clipPath>
</defs>
</svg>
