<svg width="210" height="200" viewBox="0 0 210 200" fill="none" xmlns="http://www.w3.org/2000/svg">
<path d="M43.7652 147.237C43.7652 156.912 35.9277 164.75 26.2527 164.75C16.5777 164.75 8.74023 156.912 8.74023 147.237C8.74023 137.562 16.5777 129.724 26.2527 129.724C35.9277 129.724 43.7652 137.562 43.7652 147.237Z" fill="#6DFFD5"/>
<path d="M201.265 147.237C201.265 156.912 193.428 164.75 183.753 164.75C174.078 164.75 166.24 156.912 166.24 147.237C166.24 137.562 174.078 129.724 183.753 129.724C193.428 129.724 201.265 137.562 201.265 147.237Z" fill="#6DFFD5"/>
<path fill-rule="evenodd" clip-rule="evenodd" d="M26.2539 118.812C22.6164 118.812 19.6914 115.887 19.6914 112.25C19.6914 65.15 57.9039 26.9375 105.004 26.9375C152.104 26.9375 190.316 65.15 190.316 112.25C190.316 115.887 187.391 118.812 183.754 118.812C180.116 118.812 177.191 115.887 177.191 112.25C177.191 72.3875 144.866 40.0625 105.004 40.0625C65.1414 40.0625 32.8164 72.3875 32.8164 112.25C32.8164 115.887 29.8914 118.812 26.2539 118.812Z" fill="url(#paint0_linear_73_10415)"/>
<defs>
<linearGradient id="paint0_linear_73_10415" x1="105" y1="-17.1248" x2="105" y2="187.1" gradientUnits="userSpaceOnUse">
<stop stop-color="#6DFFD5"/>
<stop offset="1" stop-color="#1D1B25" stop-opacity="0"/>
</linearGradient>
</defs>
</svg>
