<svg width="24" height="24" viewBox="0 0 24 24" fill="none" xmlns="http://www.w3.org/2000/svg">
<g id="icon__UX" opacity="0.6">
<path id="Vector" d="M9.85566 18.702C11.8223 18.7021 13.7328 18.0459 15.2844 16.8374L21.138 22.691C21.5753 23.1133 22.272 23.1012 22.6944 22.6639C23.1063 22.2374 23.1063 21.5611 22.6944 21.1346L16.8408 15.281C19.8396 11.4208 19.1412 5.86044 15.281 2.86165C11.4207 -0.13714 5.86044 0.561175 2.86165 4.42143C-0.13714 8.28168 0.561174 13.842 4.42143 16.8408C5.97554 18.0481 7.8877 18.703 9.85566 18.702ZM5.15235 5.14897C7.74995 2.55133 11.9615 2.55128 14.5591 5.14887C17.1568 7.74647 17.1568 11.958 14.5592 14.5556C11.9616 17.1533 7.75009 17.1533 5.15245 14.5557L5.15235 14.5556C2.55476 11.977 2.53945 7.78079 5.11812 5.1832L5.15235 5.14897Z" fill="white"/>
</g>
</svg>
