<svg width="44" height="44" viewBox="0 0 44 44" fill="none" xmlns="http://www.w3.org/2000/svg">
<path d="M27.9544 17.899C27.246 17.899 26.5552 17.9738 25.8864 18.1102C21.9924 18.9286 18.9212 21.9998 18.1116 25.8938C17.9752 26.5582 17.9004 27.2446 17.9004 27.9486C17.9004 33.4926 22.4104 38.0026 27.9544 38.0026C33.4984 38.0026 38.004 33.4926 38.004 27.9486C38.004 22.4046 33.4984 17.899 27.9544 17.899ZM27.7652 21.6126C27.8048 21.5466 27.8752 21.507 27.9544 21.507C28.0292 21.507 28.104 21.5466 28.1436 21.6126L31.58 27.3194C31.6108 27.3722 31.6196 27.4294 31.6064 27.4866C31.5932 27.5438 31.558 27.5922 31.5052 27.623L28.0644 29.6558C28.0336 29.6778 27.994 29.6866 27.9544 29.6866C27.9148 29.6866 27.8752 29.6778 27.84 29.6558L24.3992 27.623C24.3464 27.5922 24.3112 27.5438 24.298 27.4866C24.2804 27.4294 24.2892 27.3722 24.32 27.3194L27.7652 21.6126ZM31.5756 29.4534L28.1348 34.3066C28.0908 34.3638 28.0248 34.399 27.9544 34.399C27.884 34.399 27.818 34.3638 27.774 34.3066L24.3288 29.4534C24.2716 29.3654 24.276 29.251 24.3464 29.1762C24.4168 29.1058 24.5312 29.0882 24.6236 29.141L27.9544 31.1078L31.2896 29.141C31.3776 29.0882 31.4876 29.1014 31.558 29.1762C31.6284 29.251 31.6372 29.3654 31.5756 29.4534Z" fill="url(#paint0_linear_1915_21062)"/>
<path d="M15.4957 26.0873C10.2025 25.8013 5.99609 21.4189 5.99609 16.0509C5.99609 10.6829 10.4973 6.00134 16.0457 6.00134C21.5941 6.00134 25.7961 10.2033 26.0821 15.4965C20.6217 16.3061 16.3053 20.6225 15.4957 26.0873Z" fill="url(#paint1_linear_1915_21062)"/>
<path d="M18.2796 40.4095C18.2972 40.3787 18.3148 40.3479 18.328 40.3171C18.3412 40.2863 18.35 40.2511 18.3588 40.2203C18.3676 40.1895 18.3764 40.1631 18.3852 40.1323C18.3984 40.0707 18.4028 40.0047 18.4028 39.9431V39.9211C18.4028 39.8639 18.3984 39.8023 18.3852 39.7451C18.3852 39.7143 18.3676 39.6879 18.3588 39.6615C18.35 39.6263 18.3412 39.5955 18.328 39.5603C18.3148 39.5295 18.2972 39.5031 18.284 39.4723C18.2708 39.4459 18.2576 39.4151 18.24 39.3887C18.2136 39.3491 18.1784 39.3095 18.1476 39.2743C18.1388 39.2611 18.13 39.2479 18.1168 39.2391L13.1888 34.3067C12.806 33.9239 12.1812 33.9239 11.7984 34.3067C11.4156 34.6895 11.4156 35.3143 11.7984 35.6971L14.7552 38.6583C9.21123 37.4351 5.05323 32.4851 5.05323 26.5803C5.05323 26.0391 4.61323 25.5947 4.06763 25.5947C3.52203 25.5947 3.08203 26.0347 3.08203 26.5803C3.08203 34.4871 9.51043 40.9199 17.4216 40.9199C17.4876 40.9199 17.5492 40.9111 17.6152 40.9023C17.646 40.9023 17.6724 40.8847 17.6988 40.8759C17.734 40.8671 17.7648 40.8583 17.8 40.8451C17.8308 40.8319 17.8616 40.8143 17.8924 40.7967C17.9188 40.7835 17.9452 40.7703 17.9716 40.7527C18.02 40.7219 18.0596 40.6867 18.1036 40.6471C18.1036 40.6471 18.1168 40.6383 18.1212 40.6295V40.6207C18.1696 40.5767 18.2092 40.5283 18.2444 40.4755C18.262 40.4491 18.2708 40.4227 18.2884 40.3963L18.2796 40.4095Z" fill="url(#paint2_linear_1915_21062)"/>
<path d="M26.5833 3.07996H26.5701C26.5085 3.07996 26.4469 3.07996 26.3897 3.09756C26.3633 3.09756 26.3369 3.11516 26.3105 3.11956C26.2753 3.12836 26.2401 3.13716 26.2049 3.15036C26.1785 3.16356 26.1521 3.17676 26.1257 3.19436C26.0949 3.21196 26.0641 3.22516 26.0377 3.24276C25.9981 3.26916 25.9585 3.30436 25.9233 3.33516C25.9101 3.34396 25.8969 3.35276 25.8881 3.36596C25.8749 3.37916 25.8705 3.38796 25.8573 3.40116C25.8221 3.43636 25.7913 3.47596 25.7649 3.51556C25.7473 3.54196 25.7341 3.56836 25.7209 3.59916C25.7033 3.62996 25.6857 3.65636 25.6725 3.68716C25.6593 3.71796 25.6505 3.75316 25.6417 3.78836C25.6329 3.81476 25.6241 3.84556 25.6153 3.87196C25.6021 3.92916 25.5977 3.99076 25.5977 4.04796V4.06556C25.5977 4.13156 25.6065 4.19756 25.6153 4.25916C25.6153 4.28996 25.6329 4.31636 25.6417 4.34716C25.6505 4.37796 25.6593 4.41316 25.6725 4.44396C25.6857 4.47916 25.7033 4.50556 25.7209 4.53636C25.7341 4.56276 25.7473 4.58916 25.7605 4.61116C25.7957 4.66396 25.8353 4.71236 25.8793 4.75636V4.76516L30.8161 9.69316C31.0097 9.88676 31.2561 9.98356 31.5113 9.98356C31.7665 9.98356 32.0129 9.88676 32.2065 9.69316C32.5893 9.31036 32.5893 8.68556 32.2065 8.30276L29.2497 5.34596C34.7893 6.56916 38.9473 11.5192 38.9473 17.424C38.9473 17.9652 39.3873 18.4096 39.9329 18.4096C40.4785 18.4096 40.9185 17.9696 40.9185 17.424C40.9229 9.51276 34.4945 3.07996 26.5833 3.07996Z" fill="url(#paint3_linear_1915_21062)"/>
<defs>
<linearGradient id="paint0_linear_1915_21062" x1="27.9522" y1="17.899" x2="27.9522" y2="38.0026" gradientUnits="userSpaceOnUse">
<stop stop-color="#6DFFD5"/>
<stop offset="1" stop-color="#6DFFD5" stop-opacity="0.7"/>
</linearGradient>
<linearGradient id="paint1_linear_1915_21062" x1="16.0402" y1="6.00134" x2="16.0402" y2="26.0873" gradientUnits="userSpaceOnUse">
<stop stop-color="#6DFFD5" stop-opacity="0.2"/>
<stop offset="1" stop-color="#6DFFD5" stop-opacity="0.5"/>
</linearGradient>
<linearGradient id="paint2_linear_1915_21062" x1="10.7424" y1="25.5947" x2="10.7424" y2="40.9199" gradientUnits="userSpaceOnUse">
<stop stop-color="#6DFFD5"/>
<stop offset="1" stop-color="#6DFFD5" stop-opacity="0.7"/>
</linearGradient>
<linearGradient id="paint3_linear_1915_21062" x1="33.2581" y1="3.07996" x2="33.2581" y2="18.4096" gradientUnits="userSpaceOnUse">
<stop stop-color="#6DFFD5"/>
<stop offset="1" stop-color="#6DFFD5" stop-opacity="0.7"/>
</linearGradient>
</defs>
</svg>
