<svg width="32" height="32" viewBox="0 0 32 32" fill="none" xmlns="http://www.w3.org/2000/svg">
<g id="icon__social">
<path id="Vector" d="M21.2917 9.57507C20.6417 9.57507 20.1167 10.1001 20.1167 10.7501C20.1167 11.4001 20.6417 11.9251 21.2917 11.9251C21.9417 11.9251 22.4667 11.4001 22.4667 10.7501C22.4667 10.1001 21.9417 9.57507 21.2917 9.57507Z" fill="white"/>
<path id="Vector_2" d="M16.0832 11.0748C13.3665 11.0748 11.1582 13.2832 11.1582 15.9998C11.1582 18.7165 13.3665 20.9248 16.0832 20.9248C18.7999 20.9248 21.0082 18.7165 21.0082 15.9998C21.0082 13.2832 18.7999 11.0748 16.0832 11.0748ZM16.0832 19.1582C14.3415 19.1582 12.9249 17.7415 12.9249 15.9998C12.9249 14.2582 14.3415 12.8415 16.0832 12.8415C17.8249 12.8415 19.2415 14.2582 19.2415 15.9998C19.2415 17.7415 17.8249 19.1582 16.0832 19.1582Z" fill="white"/>
<path id="Vector_3" d="M19.9917 26H12.0083C8.69167 26 6 23.3083 6 19.9917V12.0083C6 8.69167 8.69167 6 12.0083 6H19.9917C23.3083 6 26 8.69167 26 12.0083V19.9917C26 23.3 23.3083 26 19.9917 26ZM12.0083 7.88333C9.73333 7.88333 7.88333 9.73333 7.88333 12.0083V19.9917C7.88333 22.2667 9.73333 24.1167 12.0083 24.1167H19.9917C22.2667 24.1167 24.1167 22.2667 24.1167 19.9917V12.0083C24.1167 9.73333 22.2667 7.88333 19.9917 7.88333H12.0083Z" fill="white"/>
</g>
</svg>
