<svg width="22" height="22" viewBox="0 0 22 22" fill="none" xmlns="http://www.w3.org/2000/svg">
<g id="icon__social">
<path id="Vector" d="M11.0903 13.0664C10.8038 13.0665 10.522 12.9931 10.2719 12.8533L3.66699 9.12988V15.3373C3.66738 15.7763 3.84196 16.1973 4.15241 16.5078C4.46286 16.8182 4.88381 16.9928 5.32286 16.9932H16.6778C17.1168 16.9928 17.5378 16.8182 17.8482 16.5078C18.1587 16.1973 18.3333 15.7763 18.3337 15.3373V9.20077L11.9136 12.8489C11.6579 12.9955 11.3738 13.0664 11.0903 13.0664Z" fill="#6DFFD5"/>
<path id="Vector_2" d="M11.2037 11.6192L18.3195 7.578C18.2741 7.17441 18.0816 6.80169 17.7787 6.53111C17.4759 6.26053 17.0839 6.11108 16.6778 6.11133H5.32283C4.92803 6.11041 4.54604 6.25132 4.24642 6.5084C3.9468 6.76549 3.74949 7.12164 3.69043 7.512L10.9719 11.6187C11.0077 11.6373 11.0475 11.647 11.0878 11.647C11.1281 11.647 11.1679 11.6378 11.2037 11.6192Z" fill="#6DFFD5"/>
</g>
</svg>
