<svg width="16" height="16" viewBox="0 0 16 16" fill="none" xmlns="http://www.w3.org/2000/svg">
<path d="M6.63457 12.2632C7.8859 12.2633 9.10146 11.8458 10.0887 11.0768L13.8131 14.8013C14.0914 15.07 14.5347 15.0623 14.8034 14.7841C15.0655 14.5126 15.0655 14.0824 14.8034 13.811L11.079 10.0866C12.987 7.6304 12.5427 4.09254 10.0865 2.18451C7.63037 0.276475 4.09254 0.72079 2.18451 3.17694C0.276475 5.63309 0.72079 9.17095 3.17694 11.079C4.16577 11.8472 5.38242 12.2639 6.63457 12.2632ZM3.642 3.63985C5.29477 1.98706 7.97443 1.98703 9.62722 3.63979C11.28 5.29255 11.28 7.97221 9.62728 9.62501C7.97452 11.2778 5.29486 11.2778 3.64207 9.62507L3.642 9.62501C1.98924 7.98429 1.9795 5.3144 3.62022 3.66163L3.642 3.63985Z" fill="white"/>
</svg>
