<svg width="140" height="140" viewBox="0 0 140 140" fill="none" xmlns="http://www.w3.org/2000/svg">
<g id="icon__bot">
<path id="Union" fill-rule="evenodd" clip-rule="evenodd" d="M57.5351 76.4637C55.3227 76.4637 53.5312 74.6765 53.5312 72.4598V42.4864C53.5312 40.274 55.3184 38.4825 57.5351 38.4825C59.7519 38.4825 61.539 40.2697 61.539 42.4864V72.4598C61.5218 74.655 59.7347 76.4637 57.5351 76.4637ZM85.0535 114.131C88.7309 109.942 90.5695 103.898 90.5695 96.0104V87.427H49.4609V96.0104C49.4609 103.894 51.2996 109.942 54.977 114.131C58.6201 118.285 63.5261 120.382 70.0131 120.416C76.5001 120.382 81.4061 118.29 85.0492 114.131H85.0535ZM60.8368 108.207C58.4525 105.719 57.2453 102.364 57.2453 98.1584V95.9288H82.7723V98.1584C82.7723 102.364 81.5823 105.719 79.1808 108.207C76.8309 110.66 73.7635 111.884 70.0002 111.936C66.2541 111.901 63.1867 110.66 60.8368 108.207ZM78.4922 72.4598C78.4922 74.6765 80.2836 76.4637 82.4961 76.4637C84.7128 76.4637 86.5 74.655 86.5 72.4598V42.4864C86.5 40.2697 84.7128 38.4825 82.4961 38.4825C80.2793 38.4825 78.4922 40.274 78.4922 42.4864V72.4598Z" fill="url(#paint0_linear_1537_38950)"/>
<path id="Vector" d="M112.509 51.942C112.509 51.8819 112.509 51.8218 112.509 51.7659C112.32 40.5662 107.814 30.071 99.823 22.205C91.8195 14.3347 81.2298 10 70.0043 10C58.7788 10 47.9743 14.4206 39.945 22.4499C31.9158 30.4791 27.6928 40.6994 27.5038 51.7315C27.5038 51.8003 27.5038 51.8733 27.5038 51.942C21.5538 52.87 17 58.0166 17 64.2287V77.3487C17 80.7812 18.3919 83.8915 20.643 86.1427C22.4602 87.9599 24.8402 89.2186 27.4952 89.6353C28.1267 89.7341 28.7754 89.7857 29.437 89.7857C29.9568 89.7857 30.4594 89.7127 30.932 89.5709C33.153 88.9265 34.7683 86.8773 34.7683 84.4543V57.123C34.7683 55.6495 34.1712 54.3177 33.2089 53.3511C32.586 52.7282 31.8084 52.26 30.9363 52.0065C30.9363 51.9463 30.9363 51.8862 30.9363 51.8261C31.1081 41.6531 35.1679 32.0858 42.3723 24.8814C49.7529 17.5009 59.565 13.4368 70 13.4368C80.435 13.4368 90.0495 17.4192 97.4043 24.658C104.746 31.8839 108.892 41.5328 109.068 51.8604V52.0065C108.2 52.26 107.423 52.7282 106.8 53.3511C105.833 54.3177 105.236 55.6495 105.236 57.123V84.4543C105.236 86.8773 106.856 88.9265 109.072 89.5709C109.549 89.7127 110.048 89.7857 110.567 89.7857C111.001 89.7857 111.422 89.7556 111.843 89.7127C108.948 106.364 95.1016 119.299 78.0207 120.807C77.5223 116.816 74.1242 113.727 70 113.727C65.5321 113.727 61.9106 117.349 61.9106 121.817C61.9106 126.285 65.5321 129.906 70 129.906C73.6087 129.906 76.6631 127.543 77.7028 124.283C97.1465 122.865 112.879 107.881 115.46 88.7804C116.925 88.1532 118.244 87.2553 119.357 86.1427C121.608 83.8915 123 80.7812 123 77.3487V64.2287C123 58.0166 118.446 52.87 112.501 51.942H112.509Z" fill="url(#paint1_linear_1537_38950)"/>
</g>
<defs>
<linearGradient id="paint0_linear_1537_38950" x1="70.9551" y1="37.8643" x2="70.9551" y2="121.949" gradientUnits="userSpaceOnUse">
<stop stop-color="#6DFFD5"/>
<stop offset="1" stop-color="#6DFFD5" stop-opacity="0.7"/>
</linearGradient>
<linearGradient id="paint1_linear_1537_38950" x1="70.0001" y1="147.892" x2="70.0001" y2="-1.99062" gradientUnits="userSpaceOnUse">
<stop stop-color="#6DFFD5" stop-opacity="0.2"/>
<stop offset="1" stop-color="#6DFFD5" stop-opacity="0.5"/>
</linearGradient>
</defs>
</svg>
