<svg width="24" height="24" viewBox="0 0 24 24" fill="none" xmlns="http://www.w3.org/2000/svg">
<path d="M22.246 5.11646C20.1581 7.22497 18.0761 9.34871 16 11.4725C18.195 13.6939 20.3482 15.9542 22.5549 18.161C22.8437 17.6801 22.9979 17.13 23.0004 16.5691V7.14197C23.0004 6.36103 22.7091 5.66311 22.2489 5.11646H22.246Z" fill="#6DFFD5"/>
<path d="M11.9941 12.6423C12.3979 12.6423 12.7962 12.494 13.1081 12.1792C15.7127 9.51515 18.3202 6.85409 20.9429 4.20186C20.5952 4.07073 20.2273 4.00246 19.856 4H4.14161C3.75556 4 3.39309 4.07711 3.05469 4.20186C5.68039 6.85114 8.28202 9.5181 10.8895 12.1821C11.1813 12.4773 11.5791 12.6433 11.9941 12.6423Z" fill="#6DFFD5"/>
<path d="M1.75736 5.11353C1.27161 5.67786 1.00295 6.39691 1 7.14198V16.5687C1 17.1566 1.16945 17.6973 1.44547 18.1605C3.64338 15.9449 5.81722 13.7052 8.00039 11.4749C5.92429 9.34578 3.84524 7.22204 1.75736 5.11353Z" fill="#6DFFD5"/>
<path d="M12.0044 14.2135C11.2024 14.2135 10.3949 13.9046 9.77998 13.2897C9.55503 13.0593 9.33058 12.8285 9.10563 12.5977C6.91656 14.8132 4.7663 17.0676 2.5625 19.2714C3.03155 19.5445 3.57231 19.714 4.15138 19.714H19.8658C20.4478 19.714 20.9856 19.5475 21.4547 19.2685C19.2568 17.0676 17.0888 14.8255 14.9115 12.5977L14.2342 13.2897C13.6223 13.9046 12.8084 14.2135 12.0069 14.2135H12.0039H12.0044Z" fill="#6DFFD5"/>
</svg>
