<svg width="24" height="24" viewBox="0 0 24 24" fill="none" xmlns="http://www.w3.org/2000/svg">
<path d="M22.6151 17.0423L14.8879 3.65825C13.6258 1.44725 10.4342 1.44725 9.17657 3.65825L1.44489 17.0423C0.18276 19.2533 1.75361 22 4.30057 22H19.7322C22.2791 22 23.8772 19.226 22.6151 17.0423ZM12.0277 19.0308C11.3558 19.0308 10.7974 18.4724 10.7974 17.8005C10.7974 17.1285 11.3558 16.5701 12.0277 16.5701C12.6996 16.5701 13.2581 17.1285 13.2308 17.8322C13.2626 18.4724 12.6724 19.0308 12.0277 19.0308ZM13.1491 11.0767C13.0946 12.0301 13.0356 12.9789 12.9811 13.9324C12.9539 14.2411 12.9539 14.5226 12.9539 14.8267C12.9266 15.3307 12.5317 15.7211 12.0277 15.7211C11.5238 15.7211 11.1333 15.3579 11.1016 14.854C11.0198 13.3694 10.9336 11.912 10.8518 10.4274C10.8246 10.037 10.7974 9.64202 10.7656 9.25157C10.7656 8.60689 11.1288 8.07571 11.719 7.90772C12.3092 7.76698 12.8949 8.04846 13.1491 8.60689C13.2354 8.80211 13.2626 8.99733 13.2626 9.22433C13.2354 9.84632 13.1763 10.4638 13.1491 11.0767Z" fill="#6DFFD5"/>
</svg>
