<svg width="26" height="26" viewBox="0 0 26 26" fill="none" xmlns="http://www.w3.org/2000/svg">
<circle cx="13" cy="13" r="12" fill="#FF0000"/>
<circle cx="13" cy="13" r="12.5" stroke="white" stroke-opacity="0.12"/>
<path d="M8.709 16.6426C7.88615 16.6426 7.21241 16.4493 6.68778 16.0627C6.16867 15.6706 5.90912 15.1073 5.90912 14.3839C5.90912 14.2293 5.92569 14.047 5.95882 13.8261C6.04718 13.3291 6.1742 12.7327 6.33987 12.0313C6.80928 10.1316 8.02421 9.18176 9.97916 9.18176C10.5093 9.18176 10.9898 9.27012 11.4095 9.45236C11.8292 9.62356 12.1605 9.88864 12.4035 10.2421C12.6465 10.59 12.768 11.0042 12.768 11.4846C12.768 11.6282 12.7514 11.8104 12.7183 12.0313C12.6134 12.6443 12.4919 13.2463 12.3428 13.8261C12.0998 14.7705 11.6856 15.4829 11.0892 15.9523C10.4983 16.4162 9.70304 16.6426 8.709 16.6426ZM8.8581 15.1515C9.24467 15.1515 9.5705 15.0356 9.8411 14.8091C10.1172 14.5827 10.316 14.2348 10.432 13.7599C10.5922 13.1082 10.7136 12.5449 10.7965 12.059C10.8241 11.9154 10.8407 11.7663 10.8407 11.6116C10.8407 10.9821 10.5148 10.6673 9.85766 10.6673C9.47109 10.6673 9.13975 10.7833 8.86363 11.0097C8.59303 11.2361 8.39974 11.584 8.28377 12.059C8.15675 12.5228 8.03526 13.0861 7.90824 13.7599C7.88063 13.8979 7.86406 14.0415 7.86406 14.1961C7.85854 14.8367 8.19541 15.1515 8.8581 15.1515Z" fill="white"/>
<path d="M13.2486 16.5432C13.1713 16.5432 13.1161 16.5211 13.0719 16.4714C13.0387 16.4162 13.0277 16.3555 13.0387 16.2837L14.4691 9.5463C14.4801 9.46898 14.5188 9.40824 14.585 9.35854C14.6458 9.30883 14.712 9.28674 14.7838 9.28674H17.5395C18.3072 9.28674 18.9202 9.44689 19.384 9.76167C19.8534 10.082 20.0909 10.5403 20.0909 11.1423C20.0909 11.3135 20.0688 11.4957 20.0302 11.6835C19.859 12.4787 19.5111 13.0641 18.9809 13.4451C18.4618 13.8262 17.7494 14.014 16.8437 14.014H15.4465L14.9716 16.2837C14.955 16.361 14.9219 16.4217 14.8556 16.4714C14.7949 16.5211 14.7286 16.5432 14.6568 16.5432H13.2486ZM16.9155 12.5836C17.2082 12.5836 17.4567 12.5063 17.6721 12.3462C17.893 12.186 18.0366 11.9596 18.1084 11.6614C18.1304 11.5454 18.1415 11.4405 18.1415 11.3521C18.1415 11.1533 18.0807 10.9987 17.9648 10.8938C17.8488 10.7833 17.6445 10.7281 17.3628 10.7281H16.1203L15.7282 12.5836H16.9155Z" fill="white"/>
</svg>
