<svg width="26" height="26" viewBox="0 0 26 26" fill="none" xmlns="http://www.w3.org/2000/svg">
<circle cx="13" cy="13" r="12" fill="#F7931A"/>
<circle cx="13" cy="13" r="12.5" stroke="white" stroke-opacity="0.12"/>
<path d="M9.43892 14.8698C9.38312 15.0083 9.24169 15.2161 8.92289 15.1372C8.93414 15.1536 8.10446 14.9329 8.10446 14.9329L7.54547 16.2219L9.01077 16.5872C9.28338 16.6555 9.55054 16.727 9.81352 16.7944L9.34751 18.6654L10.4722 18.946L10.9337 17.0949C11.241 17.1782 11.5392 17.2552 11.8311 17.3277L11.3712 19.1702L12.4972 19.4508L12.9632 17.5833C14.8833 17.9466 16.3271 17.8001 16.9349 16.0634C17.4246 14.6652 16.9105 13.8585 15.9003 13.3326C16.636 13.1629 17.1902 12.679 17.338 11.6793C17.5423 10.3137 16.5025 9.57964 15.0808 9.08991L15.542 7.24004L14.416 6.95942L13.967 8.76052C13.671 8.68676 13.3669 8.61716 13.0649 8.5482L13.517 6.73521L12.3917 6.45459L11.9302 8.3038C11.6851 8.248 11.4446 8.19281 11.2111 8.13478L11.2124 8.129L9.65952 7.74126L9.35996 8.94393C9.35996 8.94393 10.1954 9.13539 10.1778 9.14726C10.6338 9.26111 10.7163 9.56288 10.7025 9.80216L9.43892 14.8698ZM14.7653 15.287C14.4173 16.6853 12.063 15.9294 11.2997 15.7398L11.918 13.2611C12.6813 13.4516 15.1289 13.8287 14.7653 15.287ZM15.1135 11.6591C14.796 12.9311 12.8365 12.2849 12.2009 12.1264L12.7615 9.87823C13.3971 10.0367 15.4442 10.3323 15.1135 11.6591Z" fill="white"/>
</svg>
