<svg width="26" height="26" viewBox="0 0 26 26" fill="none" xmlns="http://www.w3.org/2000/svg">
<circle cx="13" cy="13" r="12" fill="black"/>
<circle cx="13" cy="13" r="12.5" stroke="white" stroke-opacity="0.12"/>
<path d="M10.2459 11.8684L13 9.11436L15.7555 11.8698L17.3581 10.2673L13 5.90906L8.64338 10.2658L10.2459 11.8684Z" fill="#F1BB0F"/>
<path d="M9.11418 12.9997L7.51169 11.3972L5.90912 12.9998L7.51161 14.6023L9.11418 12.9997Z" fill="#F1BB0F"/>
<path d="M10.2458 14.1316L12.9999 16.8856L15.7554 14.1302L17.3588 15.7319L17.358 15.7328L12.9999 20.0909L8.64097 15.732L10.2458 14.1316Z" fill="#F1BB0F"/>
<path d="M18.4884 14.6031L20.0909 13.0005L18.4884 11.398L16.8859 13.0006L18.4884 14.6031Z" fill="#F1BB0F"/>
<path d="M14.6254 12.9991H14.6261L12.9999 11.373L11.373 12.9999L11.3752 13.0023L12.9999 14.627L14.6261 13.0008L14.6269 12.9999L14.6254 12.9991Z" fill="#F1BB0F"/>
</svg>
