<svg width="26" height="26" viewBox="0 0 26 26" fill="none" xmlns="http://www.w3.org/2000/svg">
<circle cx="13" cy="13" r="12" fill="white"/>
<circle cx="13" cy="13" r="12.5" stroke="white" stroke-opacity="0.12"/>
<path d="M14.6559 12.6434L15.7353 10.8119L18.6446 15.3433L18.646 16.2129L18.6365 10.2288C18.6296 10.0826 18.552 9.94873 18.428 9.86982L13.1902 6.85694C13.0677 6.79674 12.9123 6.79737 12.79 6.85881C12.7735 6.86711 12.7579 6.8761 12.7431 6.88591L12.7249 6.8974L7.6407 9.84364L7.62095 9.85258C7.59559 9.86426 7.56996 9.87908 7.54587 9.89632C7.4495 9.96547 7.38546 10.0677 7.36475 10.1824C7.36165 10.1997 7.35937 10.2174 7.35828 10.2353L7.36626 15.1117L10.0761 10.9115C10.4173 10.3545 11.1607 10.1751 11.8507 10.1849L12.6606 10.2063L7.88864 17.8592L8.45116 18.1831L13.2804 10.2141L15.4149 10.2063L10.5981 18.3765L12.6054 19.531L12.8452 19.6689C12.9466 19.7101 13.0662 19.7122 13.1685 19.6753L18.48 16.5972L17.4645 17.1856L14.6559 12.6434ZM15.0678 18.5746L13.0404 15.3927L14.278 13.2927L16.9405 17.4893L15.0678 18.5746Z" fill="#2D374B"/>
<path d="M13.0406 15.3926L15.068 18.5745L16.9407 17.4892L14.2782 13.2926L13.0406 15.3926Z" fill="#28A0F0"/>
<path d="M18.6461 16.2128L18.6447 15.3433L15.7354 10.8119L14.656 12.6434L17.4645 17.1856L18.48 16.5972C18.5796 16.5163 18.6399 16.3976 18.6462 16.2695L18.6461 16.2128Z" fill="#28A0F0"/>
<path d="M6.45457 17.0329L7.88859 17.8591L12.6606 10.2062L11.8507 10.1848C11.1606 10.1751 10.4173 10.3545 10.0761 10.9114L7.3662 15.1116L6.45453 16.5123V17.0329H6.45457Z" fill="white"/>
<path d="M15.415 10.2062L13.2806 10.2139L8.45135 18.183L10.1393 19.1549L10.5983 18.3763L15.415 10.2062Z" fill="white"/>
<path d="M19.5454 10.1952C19.5276 9.7488 19.2859 9.34012 18.9073 9.10222L13.6008 6.05061C13.2263 5.86201 12.7584 5.86178 12.3833 6.05047C12.339 6.07282 7.22285 9.04 7.22285 9.04C7.15206 9.07394 7.08387 9.11439 7.01969 9.16028C6.68172 9.40252 6.47569 9.7789 6.45453 10.1925V16.5124L7.3662 15.1116L7.35822 10.2352C7.35931 10.2174 7.36155 10.1998 7.3647 10.1825C7.38527 10.0678 7.44935 9.9654 7.54582 9.89626C7.5699 9.87902 12.7734 6.86705 12.7899 6.85875C12.9123 6.79731 13.0677 6.79667 13.1901 6.85688L18.428 9.86976C18.5519 9.94867 18.6296 10.0825 18.6365 10.2288V16.2694C18.6301 16.3976 18.5795 16.5162 18.4799 16.5972L17.4644 17.1856L16.9405 17.4892L15.0677 18.5745L13.1684 19.6752C13.0661 19.7122 12.9465 19.7101 12.8451 19.6688L10.598 18.3764L10.139 19.1549L12.1584 20.3176C12.2251 20.3555 12.2847 20.3892 12.3335 20.4166C12.4091 20.459 12.4606 20.4874 12.4788 20.4962C12.6223 20.5659 12.8288 20.6065 13.0149 20.6065C13.1855 20.6065 13.3519 20.5751 13.5093 20.5135L19.0257 17.3187C19.3424 17.0734 19.5287 16.7035 19.5454 16.3027V10.1952Z" fill="#96BEDC"/>
</svg>
