<svg width="50" height="50" viewBox="0 0 50 50" fill="none" xmlns="http://www.w3.org/2000/svg">
<g id="tokens__icons">
<g id="Ellipse">
<circle cx="25" cy="25" r="24" fill="#53AE94"/>
<circle cx="25" cy="25" r="24.5" stroke="white" stroke-opacity="0.12"/>
</g>
<path id="Vector" d="M27.9623 21.8022V18.232H36.1266V12.7921H13.8949V18.232H22.0602V21.7993C15.4242 22.1041 10.4346 23.4184 10.4346 24.9928C10.4346 26.5672 15.4266 27.8814 22.0602 28.1881V39.6241H27.9642V28.1872C34.5882 27.8814 39.5677 26.5681 39.5677 24.9952C39.5677 23.4222 34.5882 22.1089 27.9642 21.8032M27.9642 27.2185V27.2156C27.7976 27.2262 26.9418 27.2776 25.0362 27.2776C23.5127 27.2776 22.4408 27.2344 22.0631 27.2147V27.2195C16.2003 26.9598 11.8242 25.9388 11.8242 24.7172C11.8242 23.4956 16.2008 22.4761 22.0631 22.216V26.2024C22.4471 26.2288 23.5453 26.2936 25.0611 26.2936C26.8818 26.2936 27.7971 26.2177 27.9651 26.2024V22.216C33.8163 22.4766 38.1824 23.4985 38.1824 24.7158C38.1824 25.9331 33.8144 26.9555 27.9651 27.2161" fill="white"/>
</g>
</svg>
