<svg width="64" height="64" viewBox="0 0 64 64" fill="none" xmlns="http://www.w3.org/2000/svg">
<path d="M55.6822 21.6439C53.2481 19.3964 49.8809 15.9643 47.1385 13.5302L46.9762 13.4166C46.7062 13.1998 46.4018 13.0298 46.0756 12.9136C39.4629 11.6803 8.68765 5.92767 8.08724 6.00069C7.919 6.02425 7.75819 6.08525 7.61664 6.17919L7.46248 6.3009C7.27266 6.49368 7.12848 6.72658 7.04057 6.98245L7 7.08793V7.664V7.75325C10.4646 17.4004 24.1443 49.0033 26.838 56.4192C27.0003 56.9223 27.3086 57.8797 27.8847 57.9284H28.0145C28.3228 57.9284 29.6372 56.1921 29.6372 56.1921C29.6372 56.1921 53.1345 27.6967 55.5118 24.6622C55.8196 24.2884 56.0912 23.8864 56.3232 23.4614C56.3824 23.1289 56.3545 22.7867 56.2422 22.4682C56.1298 22.1497 55.9369 21.8657 55.6822 21.6439ZM35.6657 24.9624L45.6943 16.6459L51.5767 22.0658L35.6657 24.9624ZM31.7711 24.4188L14.5052 10.2685L42.4407 15.4207L31.7711 24.4188ZM33.329 28.1268L51.0006 25.2789L30.7975 49.62L33.329 28.1268ZM12.1603 11.6803L30.3269 27.0963L27.6981 49.6362L12.1603 11.6803Z" fill="#FF0000"/>
</svg>
