<svg width="64" height="64" viewBox="0 0 64 64" fill="none" xmlns="http://www.w3.org/2000/svg">
<path d="M53.6318 43.6373L46.2251 51.579C46.0649 51.7515 45.8709 51.8892 45.6552 51.9834C45.4394 52.0776 45.2066 52.1264 44.9712 52.1266H9.86056C9.6931 52.1265 9.5293 52.0776 9.38922 51.9858C9.24914 51.894 9.13886 51.7634 9.07188 51.6099C9.0049 51.4565 8.98412 51.2868 9.0121 51.1217C9.04008 50.9566 9.1156 50.8032 9.22941 50.6804L16.6277 42.7387C16.7879 42.5662 16.9819 42.4285 17.1977 42.3343C17.4134 42.2401 17.6462 42.1914 17.8817 42.1911H52.9923C53.1613 42.1876 53.3275 42.2342 53.4701 42.325C53.6127 42.4158 53.7253 42.5467 53.7936 42.7013C53.862 42.8559 53.8831 43.0272 53.8543 43.1938C53.8255 43.3604 53.7481 43.5147 53.6318 43.6373ZM46.2251 27.6411C46.0643 27.4694 45.8701 27.3323 45.6545 27.2381C45.4389 27.144 45.2064 27.0948 44.9712 27.0936H9.86056C9.6931 27.0937 9.5293 27.1426 9.38922 27.2343C9.24914 27.3261 9.13886 27.4567 9.07188 27.6102C9.0049 27.7637 8.98412 27.9334 9.0121 28.0985C9.04008 28.2636 9.1156 28.4169 9.22941 28.5398L16.6277 36.4856C16.7885 36.6574 16.9827 36.7945 17.1983 36.8886C17.4139 36.9828 17.6464 37.032 17.8817 37.0332H52.9923C53.1594 37.0323 53.3226 36.9828 53.462 36.8907C53.6015 36.7986 53.7111 36.668 53.7776 36.5147C53.8441 36.3613 53.8645 36.192 53.8364 36.0273C53.8082 35.8625 53.7328 35.7096 53.6192 35.587L46.2251 27.6411ZM9.86056 21.9356H44.9712C45.2066 21.9355 45.4394 21.8867 45.6552 21.7925C45.8709 21.6983 46.0649 21.5606 46.2251 21.3881L53.6318 13.4464C53.7186 13.3546 53.7841 13.2448 53.8235 13.1248C53.8629 13.0047 53.8754 12.8775 53.8599 12.7521C53.8445 12.6267 53.8015 12.5063 53.7341 12.3994C53.6667 12.2925 53.5765 12.2019 53.47 12.1339C53.3274 12.0432 53.1612 11.9967 52.9923 12.0002H17.8817C17.6462 12.0004 17.4134 12.0492 17.1977 12.1434C16.9819 12.2376 16.7879 12.3752 16.6277 12.5477L9.22941 20.4894C9.1156 20.6123 9.04008 20.7656 9.0121 20.9307C8.98412 21.0958 9.0049 21.2655 9.07188 21.419C9.13886 21.5725 9.24914 21.7031 9.38922 21.7949C9.5293 21.8866 9.6931 21.9356 9.86056 21.9356Z" fill="url(#paint0_linear_74_12070)"/>
<defs>
<linearGradient id="paint0_linear_74_12070" x1="12.7864" y1="53.0838" x2="49.6024" y2="11.578" gradientUnits="userSpaceOnUse">
<stop offset="0.08" stop-color="#9945FF"/>
<stop offset="0.3" stop-color="#8752F3"/>
<stop offset="0.5" stop-color="#5497D5"/>
<stop offset="0.6" stop-color="#43B4CA"/>
<stop offset="0.72" stop-color="#28E0B9"/>
<stop offset="0.97" stop-color="#19FB9B"/>
</linearGradient>
</defs>
</svg>
