<svg width="64" height="64" viewBox="0 0 64 64" fill="none" xmlns="http://www.w3.org/2000/svg">
<path d="M14.5153 47.6848C11.1311 47.6848 8.36019 46.8899 6.20248 45.3C4.06749 43.6874 3 41.3707 3 38.3953C3 37.7594 3.06814 37.0098 3.20441 36.1013C3.56782 34.0572 4.09021 31.6042 4.77159 28.7197C6.70216 20.9066 11.6989 17 19.7392 17C21.9196 17 23.8956 17.3634 25.6218 18.1129C27.348 18.817 28.7107 19.9072 29.7101 21.3608C30.7094 22.7917 31.2091 24.4952 31.2091 26.4712C31.2091 27.0617 31.141 27.8112 31.0047 28.7197C30.5732 31.2408 30.0735 33.7165 29.4602 36.1013C28.4609 39.9852 26.7574 42.9151 24.3045 44.8457C21.8742 46.7536 18.6036 47.6848 14.5153 47.6848ZM15.1286 41.5524C16.7184 41.5524 18.0585 41.0754 19.1714 40.1442C20.307 39.213 21.1247 37.7821 21.6017 35.8288C22.2603 33.1487 22.76 30.832 23.1007 28.8333C23.2143 28.2428 23.2824 27.6295 23.2824 26.9936C23.2824 24.4043 21.9424 23.1097 19.2395 23.1097C17.6497 23.1097 16.2869 23.5867 15.1513 24.5179C14.0383 25.4491 13.2434 26.88 12.7664 28.8333C12.244 30.7412 11.7444 33.0578 11.222 35.8288C11.1084 36.3966 11.0403 36.9871 11.0403 37.6231C11.0176 40.2578 12.403 41.5524 15.1286 41.5524Z" fill="#FF0000"/>
<path d="M33.1848 47.2758C32.8668 47.2758 32.6397 47.185 32.458 46.9806C32.3217 46.7534 32.2763 46.5036 32.3217 46.2083L38.2043 18.4989C38.2497 18.1809 38.4087 17.9311 38.6813 17.7267C38.9311 17.5222 39.2037 17.4314 39.4989 17.4314H50.8325C53.9896 17.4314 56.5107 18.0901 58.4186 19.3847C60.3491 20.702 61.3258 22.5872 61.3258 25.0629C61.3258 25.7669 61.2349 26.5165 61.0759 27.2887C60.3719 30.5593 58.941 32.9669 56.7605 34.534C54.6256 36.1012 51.6956 36.8734 47.9707 36.8734H42.2244L40.2712 46.2083C40.203 46.5263 40.0667 46.7761 39.7942 46.9806C39.5443 47.185 39.2718 47.2758 38.9765 47.2758H33.1848ZM48.266 30.9909C49.4698 30.9909 50.4918 30.6729 51.3776 30.0142C52.2861 29.3555 52.8767 28.4243 53.1719 27.1978C53.2628 26.7209 53.3082 26.2893 53.3082 25.9259C53.3082 25.1083 53.0584 24.4723 52.5814 24.0408C52.1044 23.5865 51.2641 23.3594 50.1057 23.3594H44.9954L43.3828 30.9909H48.266Z" fill="#FF0000"/>
</svg>
