<svg width="188" height="80" viewBox="0 0 188 80" fill="none" xmlns="http://www.w3.org/2000/svg">
<g clip-path="url(#clip0_2317_25641)">
<path fill-rule="evenodd" clip-rule="evenodd" d="M38.8866 24.6253L39.1217 26.0468C39.3071 27.3692 39.3929 28.7037 39.3786 30.039C39.377 32.9898 39.0211 35.9296 38.3183 38.7955C37.368 42.689 35.7126 46.3756 33.4343 49.6727C30.8016 53.4593 26.9948 57.1837 21.446 60.1763L20.7671 60.5422L20.0884 60.1763C14.5396 57.1837 10.7344 53.4593 8.10012 49.6727C5.82181 46.3756 4.1665 42.689 3.21608 38.7955C2.51348 35.9302 2.1575 32.9908 2.15582 30.0405C2.14147 28.7052 2.22735 27.3708 2.41271 26.0483L2.6478 24.6268C2.66787 24.5109 2.66479 24.3921 2.63876 24.2774C2.61274 24.1626 2.56425 24.0542 2.49611 23.9583C2.42797 23.8624 2.34153 23.7809 2.24176 23.7185C2.14199 23.6562 2.03087 23.6142 1.9148 23.595C1.79873 23.5758 1.68001 23.5797 1.56547 23.6066C1.45093 23.6335 1.34285 23.6828 1.24745 23.7516C1.15205 23.8205 1.07121 23.9075 1.0096 24.0078C0.947997 24.108 0.906833 24.2194 0.888486 24.3356L0.653392 25.7572C0.451178 27.1758 0.356973 28.6076 0.37159 30.0405C0.37271 33.1361 0.745934 36.2203 1.48322 39.2268C2.48686 43.3325 4.23401 47.2196 6.63818 50.6956C9.41728 54.6956 13.4481 58.6286 19.2492 61.7503L20.3515 62.3435C20.4814 62.4138 20.6266 62.4506 20.7742 62.4506C20.9218 62.4506 21.0671 62.4138 21.1969 62.3435L22.2976 61.7503C28.0925 58.6271 32.1249 54.6956 34.9087 50.6956C37.3116 47.2198 39.0577 43.3333 40.0605 39.2284C40.7978 36.2219 41.171 33.1377 41.1721 30.0421C41.1868 28.6092 41.0925 27.1773 40.8904 25.7587L40.6552 24.3372C40.6369 24.221 40.5957 24.1095 40.5341 24.0093C40.4726 23.9091 40.3917 23.822 40.2963 23.7532C40.2009 23.6843 40.0927 23.635 39.9782 23.6082C39.8637 23.5813 39.745 23.5773 39.6289 23.5965C39.5128 23.6157 39.4017 23.6577 39.3019 23.7201C39.2022 23.7824 39.1157 23.8639 39.0477 23.9598C38.9795 24.0557 38.931 24.1642 38.905 24.2789C38.879 24.3937 38.8759 24.5124 38.896 24.6284L38.8866 24.6253Z" fill="white"/>
<path fill-rule="evenodd" clip-rule="evenodd" d="M7.52053 23.6566L20.7703 19.6084L34.3159 23.7437C34.5426 23.8115 34.7871 23.7867 34.9956 23.6748C35.2041 23.5628 35.3598 23.3728 35.4285 23.1463C35.4973 22.9198 35.4735 22.6753 35.3625 22.4663C35.2515 22.2573 35.0621 22.1008 34.8359 22.0311L21.0303 17.8163C20.8609 17.7644 20.6797 17.7644 20.5102 17.8163L6.99895 21.9408C6.88603 21.9745 6.78091 22.0302 6.68958 22.1047C6.59827 22.1792 6.52257 22.271 6.46681 22.3748C6.41107 22.4787 6.37638 22.5925 6.36473 22.7098C6.35309 22.827 6.36472 22.9455 6.39896 23.0582C6.4332 23.171 6.48937 23.2759 6.56425 23.3669C6.63913 23.4579 6.73125 23.5332 6.83532 23.5885C6.93938 23.6438 7.05335 23.678 7.17066 23.6892C7.28798 23.7003 7.40635 23.6882 7.51897 23.6534L7.52053 23.6566Z" fill="white"/>
<path fill-rule="evenodd" clip-rule="evenodd" d="M0.975902 24.8873L19.9715 61.9626C20.0456 62.1075 20.158 62.2294 20.2964 62.3149C20.4348 62.4005 20.594 62.4465 20.7568 62.4479C20.9194 62.4494 21.0794 62.4063 21.2194 62.3231C21.3593 62.24 21.4738 62.1202 21.5504 61.9766L33.1346 40.3109L33.1517 40.2768L40.5663 24.8624C40.6668 24.6497 40.6793 24.4059 40.601 24.184C40.5228 23.9622 40.3601 23.7802 40.1483 23.6776C39.9366 23.575 39.693 23.5601 39.4703 23.6362C39.2477 23.7123 39.0641 23.8732 38.9594 24.0839L31.5573 39.4857L20.7921 59.6333L2.5625 24.0714C2.50996 23.9659 2.43701 23.8717 2.34782 23.7946C2.25865 23.7174 2.15505 23.6587 2.04301 23.6218C1.93099 23.5849 1.81276 23.5707 1.69517 23.5798C1.5776 23.589 1.463 23.6214 1.35803 23.6752C1.25306 23.729 1.15981 23.803 1.08367 23.8931C1.00754 23.9832 0.950033 24.0874 0.91449 24.1999C0.878947 24.3124 0.866073 24.4307 0.876615 24.5482C0.887157 24.6657 0.920904 24.7799 0.975902 24.8842V24.8873Z" fill="white"/>
<path fill-rule="evenodd" clip-rule="evenodd" d="M10.0701 41.3983H31.1937C31.43 41.3983 31.6567 41.3045 31.824 41.1373C31.9911 40.9701 32.085 40.7435 32.085 40.507C32.085 40.2706 31.9911 40.0439 31.824 39.8767C31.6567 39.7096 31.43 39.6156 31.1937 39.6156H10.0701C9.83368 39.6156 9.60695 39.7096 9.43979 39.8767C9.27263 40.0439 9.17871 40.2706 9.17871 40.507C9.17871 40.7435 9.27263 40.9701 9.43979 41.1373C9.60695 41.3045 9.83368 41.3983 10.0701 41.3983ZM68.9893 33.7069H55.2474C55.0099 33.7081 54.7825 33.8031 54.6146 33.971C54.4467 34.1389 54.3518 34.3662 54.3506 34.6037V45.6334C54.3521 45.8707 54.4472 46.0979 54.615 46.2657C54.7828 46.4336 55.01 46.5285 55.2474 46.5302H68.9893V48.3985H55.2474C54.8848 48.4002 54.5255 48.33 54.1902 48.1921C53.8549 48.054 53.5503 47.851 53.2939 47.5946C53.0375 47.3382 52.8345 47.0336 52.6965 46.6983C52.5585 46.363 52.4883 46.0037 52.49 45.6412V34.6115C52.4883 34.2489 52.5585 33.8896 52.6965 33.5544C52.8345 33.219 53.0375 32.9144 53.2939 32.658C53.5503 32.4016 53.8549 32.1986 54.1902 32.0607C54.5255 31.9226 54.8848 31.8524 55.2474 31.8541H68.9893V33.7069ZM94.7931 31.8447V33.7131H81.5588V39.1734H92.196V41.0574H81.5572V46.5271H94.7915V48.3955H79.6888V31.8447H94.7931Z" fill="white"/>
<path d="M122.047 34.6246V39.4731C122.049 39.8356 121.978 40.1948 121.84 40.53C121.701 40.8652 121.499 41.1698 121.242 41.4261C120.986 41.6824 120.681 41.8854 120.346 42.0235C120.011 42.1616 119.651 42.232 119.289 42.2305H116.762L121.955 48.3884H119.496L114.326 42.2305H108.254C107.953 42.2152 107.654 42.1846 107.357 42.1387V48.3884H105.488V31.8672H119.275C119.638 31.8658 119.997 31.9361 120.332 32.0742C120.668 32.2123 120.972 32.4153 121.229 32.6717C121.485 32.928 121.688 33.2326 121.825 33.5677C121.964 33.903 122.034 34.2621 122.033 34.6246H122.047ZM108.26 40.3466H119.289C119.405 40.348 119.518 40.3265 119.626 40.283C119.732 40.2397 119.829 40.1754 119.911 40.094C119.992 40.0126 120.056 39.9157 120.099 39.8091C120.143 39.7024 120.164 39.5882 120.163 39.4731V34.6246C120.164 34.5079 120.143 34.3918 120.1 34.2833C120.057 34.1749 119.992 34.076 119.911 33.9926C119.831 33.9071 119.735 33.8393 119.628 33.7937C119.521 33.748 119.405 33.7257 119.288 33.7278H108.258C108.021 33.729 107.793 33.824 107.625 33.9919C107.457 34.1598 107.363 34.3872 107.361 34.6246V39.4731C107.359 39.5897 107.381 39.7055 107.427 39.8128C107.473 39.9202 107.54 40.0167 107.626 40.0959C107.71 40.1777 107.809 40.242 107.918 40.285C108.026 40.3281 108.143 40.349 108.26 40.3466Z" fill="white"/>
<path fill-rule="evenodd" clip-rule="evenodd" d="M131.927 31.8447H148.465V33.7131H141.148V48.3969H139.279V33.7131H131.927V31.8447ZM158.489 48.3892V31.8447H160.358V48.3892H158.489ZM185.189 31.8447H187.58L180.664 40.117L187.602 48.3892H185.189L179.032 41.0589H173.701V48.3892H171.82V31.8447H173.704V39.1734H179.035L185.189 31.8447Z" fill="white"/>
</g>
<defs>
<clipPath id="clip0_2317_25641">
<rect width="187.259" height="80" fill="white" transform="translate(0.370117)"/>
</clipPath>
</defs>
</svg>
