<svg width="210" height="80" viewBox="0 0 210 80" fill="none" xmlns="http://www.w3.org/2000/svg">
<g clip-path="url(#clip0_2317_25670)">
<path d="M72.0035 50.2364C70.9104 51.3515 69.495 51.5297 68.9845 51.5697C65.2467 51.5937 61.513 51.6197 57.7732 51.6438V47.6017C60.578 47.5957 63.3829 47.5897 66.1877 47.5837C67.0485 47.5837 67.8093 47.2374 67.9254 46.2744C67.9995 45.6618 67.6892 45.1072 67.2187 44.7389C66.2237 43.9601 65.1726 43.2554 64.1396 42.5267C63.0725 41.7719 61.9835 41.0512 60.9284 40.2824C60.544 39.9761 60.1656 39.6658 59.7913 39.3495C58.3638 38.1383 57.0806 36.5847 56.7883 34.6828C56.55 33.1493 56.8163 31.4696 57.9374 30.3244C59.0305 29.2093 60.4479 29.0312 60.9564 28.9911C64.6942 28.9651 68.4299 28.9411 72.1676 28.915V32.9591C69.3628 32.9651 66.558 32.9691 63.7532 32.9751C62.8924 32.9771 62.1316 33.3214 62.0155 34.2864C61.9434 34.897 62.2517 35.4536 62.7222 35.8219C63.7172 36.5987 64.7702 37.3034 65.8013 38.0342C66.8703 38.7889 67.9634 39.5116 69.0205 40.2824H69.0225C69.4029 40.5867 69.7793 40.895 70.1516 41.2113C71.5791 42.4205 72.8623 43.9741 73.1546 45.876C73.3929 47.4115 73.1286 49.0892 72.0055 50.2364H72.0035Z" fill="white"/>
<path d="M205.603 34.2546C204.244 33.7601 202.765 33.748 201.319 33.748C200.08 33.748 198.827 33.7561 197.628 34.0664C196.428 34.3747 195.269 35.0193 194.586 36.0524C193.906 37.0834 193.768 38.3707 193.694 39.6039C193.581 41.4698 193.571 43.3396 193.666 45.2075C193.744 46.7631 193.93 48.4107 194.885 49.6399C195.878 50.9152 197.533 51.5018 199.139 51.684C199.712 51.75 206.911 51.8682 206.911 51.8241V48.1304C205.187 48.1304 203.465 48.1144 201.746 48.1364C201.149 48.1444 200.538 48.1144 199.986 47.8922C199.599 47.736 199.279 47.4878 199.055 47.1635C199.021 47.1154 198.879 46.9052 198.775 46.5529C198.568 45.8622 198.683 45.2195 198.793 44.8311H209.051V40.7611C209.177 38.1084 208.304 35.2355 205.603 34.2546ZM204.018 41.4497H198.673C198.671 40.9713 198.669 40.4908 198.667 40.0123C198.655 39.7841 198.667 39.4417 198.783 39.0514C198.853 38.8171 199.029 38.1825 199.601 37.7701C200.114 37.4017 200.783 37.3336 201.413 37.3476C201.92 37.3577 202.442 37.4177 202.883 37.666C203.465 37.9963 203.806 38.6149 203.946 39.2516C203.996 39.4738 204.076 41.4518 204.018 41.4518V41.4497Z" fill="white"/>
<path d="M76.6107 28.8193H81.5837V33.6101H86.3024V37.3419H81.6037C81.5176 41.8143 81.5497 45.1276 81.6337 46.2428C81.6538 46.519 81.7098 47.0756 82.1142 47.49C82.4305 47.8143 82.8269 47.9284 83.2353 47.9905C84.2403 48.1447 85.2894 48.1827 86.3004 48.0786C86.3004 49.2858 86.3004 50.493 86.3004 51.7022C84.5827 51.8183 82.7689 51.8564 81.0592 51.6241C79.7819 51.452 78.4806 50.9715 77.6638 49.9765C76.3765 48.4109 76.5827 46.1427 76.5867 44.2508C76.5907 41.9024 76.5947 39.5541 76.5987 37.2057C76.5987 36.507 76.6107 28.8213 76.6127 28.8213L76.6107 28.8193Z" fill="white"/>
<path d="M131.561 41.8299C133.726 45.1292 135.892 48.4265 138.056 51.7258H132.498C130.462 48.4425 128.424 45.1612 126.388 41.8779C126.402 45.1612 126.416 48.4465 126.43 51.7298H121.447V26.959H126.388V41.8779C128.236 39.1071 130.084 36.3344 131.934 33.5636H137.489C135.513 36.3203 133.537 39.0751 131.561 41.8319V41.8299Z" fill="white"/>
<path d="M158.619 28.833V32.9591C155.242 32.9691 151.867 32.9792 148.489 32.9912C147.917 32.9912 146.888 33.0652 146.165 33.804C145.466 34.5187 145.424 35.5237 145.406 36.0903C145.298 39.7179 145.39 43.5497 145.416 44.5547C145.404 44.9832 145.436 46.0222 146.161 46.7369C146.711 47.2795 147.408 47.3836 147.937 47.4456C150.061 47.6979 152.229 47.6058 153.753 47.4797V41.776H149.452V37.866H158.613V51.6018C154.163 51.5697 149.71 51.5377 145.26 51.5057C144.443 51.4576 142.902 51.2394 141.727 50.1003C141.578 49.9581 141.238 49.6198 140.92 49.0933C140.191 47.8921 140.159 46.6929 140.183 46.1283C140.183 42.2464 140.179 38.3645 140.177 34.4827C140.151 33.9021 140.177 32.6789 140.92 31.4576C141.016 31.2975 141.306 30.871 141.747 30.4306C143.076 29.1073 144.88 28.9111 145.741 28.8811C150.033 28.865 154.325 28.849 158.617 28.833H158.619Z" fill="white"/>
<path d="M103.01 38.5262C103 37.8235 102.87 36.372 101.835 35.2509C100.924 34.2659 99.7448 33.7854 98.2613 33.7834C95.3624 33.7794 92.4655 33.7774 89.5666 33.7734V37.365C92.6377 37.349 94.96 37.373 96.0931 37.365C97.0381 37.355 97.9229 37.7494 98.1852 38.7424C98.3454 39.347 97.999 39.6713 97.4585 39.8175C95.8569 40.2479 94.2613 40.7584 92.7378 41.4091C89.5746 42.7624 88.3894 44.8425 88.7598 48.0898C88.8499 48.8825 89.1261 50.1178 90.2232 50.9506C91.0441 51.5732 91.949 51.6573 92.3814 51.6693C95.941 51.6753 99.5005 51.6833 103.06 51.6914C103.044 47.303 103.028 42.9146 103.01 38.5262ZM98.2172 48.1238C97.989 48.1298 97.6607 48.1418 97.2663 48.1498C96.1312 48.1778 95.7888 48.1578 95.5165 48.1478C95.012 48.1298 94.4455 48.1558 94.0351 47.8095C93.7868 47.5993 93.6266 47.305 93.5446 46.9947C93.3544 46.2839 93.5446 45.4872 94.015 44.9266C94.7478 44.0557 96.8158 43.0847 98.2172 42.9806V48.1238Z" fill="white"/>
<path d="M176.556 38.5262C176.546 37.8235 176.416 36.372 175.381 35.2509C174.47 34.2659 173.291 33.7854 171.807 33.7834C168.908 33.7794 166.011 33.7774 163.112 33.7734V37.365C166.184 37.349 168.506 37.373 169.639 37.365C170.584 37.355 171.469 37.7494 171.731 38.7424C171.891 39.347 171.545 39.6713 171.004 39.8175C169.403 40.2479 167.807 40.7584 166.284 41.4091C163.121 42.7624 161.935 44.8425 162.306 48.0898C162.396 48.8825 162.672 50.1178 163.769 50.9506C164.59 51.5732 165.495 51.6573 165.927 51.6693C169.487 51.6753 173.046 51.6833 176.606 51.6914C176.59 47.303 176.574 42.9146 176.556 38.5262ZM171.763 48.1238C171.535 48.1298 171.207 48.1418 170.812 48.1498C169.677 48.1778 169.335 48.1578 169.062 48.1478C168.558 48.1298 167.991 48.1558 167.581 47.8095C167.333 47.5993 167.173 47.305 167.09 46.9947C166.9 46.2839 167.09 45.4872 167.561 44.9266C168.294 44.0557 170.362 43.0847 171.763 42.9806V48.1238Z" fill="white"/>
<path d="M180.739 28.8193H185.712V33.6101H190.43V37.3419H185.732C185.646 41.8143 185.678 45.1276 185.762 46.2428C185.782 46.519 185.838 47.0756 186.242 47.49C186.558 47.8143 186.955 47.9284 187.363 47.9905C188.368 48.1447 189.417 48.1827 190.428 48.0786C190.428 49.2858 190.428 50.493 190.428 51.7022C188.711 51.8183 186.897 51.8564 185.187 51.6241C183.91 51.452 182.609 50.9715 181.792 49.9765C180.504 48.4109 180.711 46.1427 180.715 44.2508C180.719 41.9024 180.723 39.5541 180.727 37.2057C180.727 36.507 180.739 28.8213 180.741 28.8213L180.739 28.8193Z" fill="white"/>
<path d="M112.259 51.6994H107.706V40.1879C107.616 38.9287 107.432 37.5093 107.084 35.9757C106.897 35.1569 106.687 34.3941 106.461 33.6854C108.055 33.6954 109.648 33.7075 111.242 33.7175C111.528 34.6444 111.814 35.5693 112.101 36.4962C112.457 35.9877 113.178 35.1028 114.391 34.4522C116.111 33.5293 117.748 33.6474 118.369 33.7235V37.9637C118.107 37.9056 115.43 37.3571 113.612 39.1409C113.168 39.5773 112.781 40.1079 112.565 40.6964C112.337 41.3191 112.411 42.0178 112.401 42.6704C112.377 44.238 112.351 45.8055 112.327 47.3711C112.321 47.7315 112.269 51.6974 112.259 51.6974V51.6994Z" fill="white"/>
<path d="M8.07031 56.2358C12.0343 59.9295 17.3496 62.1958 23.1974 62.1958C29.0453 62.1958 34.3586 59.9315 38.3246 56.2358C34.8311 51.0386 29.4637 47.2028 23.1974 45.6973C16.9332 47.2028 11.5658 51.0386 8.07031 56.2358Z" fill="#0C0C4F"/>
<path d="M17.2763 43.8838C19.3123 43.8838 21.2903 44.122 23.1962 44.5605C25.1001 44.124 27.0801 43.8838 29.1161 43.8838C34.5335 43.8838 39.5726 45.5234 43.7708 48.3282C44.8138 45.7557 45.3924 42.9469 45.3924 39.9979C45.3924 27.7416 35.4545 17.8037 23.1962 17.8037C10.9379 17.8037 1 27.7416 1 39.9999C1 42.9469 1.57858 45.7577 2.62162 48.3302C6.81982 45.5254 11.8609 43.8858 17.2763 43.8858V43.8838Z" fill="#0C0C4F"/>
<path d="M3.07247 49.3613C7.12653 46.6045 12.0174 44.9929 17.2787 44.9929C18.4639 44.9929 19.629 45.081 20.7722 45.2391C15.2326 47.087 10.5039 50.7186 7.26867 55.4474C7.53093 55.7156 7.7972 55.9799 8.07147 56.2361C11.565 51.0389 16.9323 47.2031 23.1986 45.6976C29.4629 47.2031 34.8302 51.0389 38.3257 56.2361C38.6 55.9799 38.8683 55.7176 39.1285 55.4474C35.8933 50.7166 31.1646 47.085 25.625 45.2391C26.7682 45.081 27.9333 44.9929 29.1185 44.9929C34.3798 44.9929 39.2707 46.6045 43.3247 49.3613C43.4829 49.0209 43.631 48.6766 43.7732 48.3282C39.575 45.5234 34.5339 43.8838 29.1185 43.8838C27.0825 43.8838 25.1045 44.122 23.1986 44.5605C21.2947 44.124 19.3147 43.8838 17.2787 43.8838C11.8613 43.8838 6.82222 45.5234 2.62402 48.3282C2.76617 48.6766 2.91431 49.0229 3.07247 49.3613Z" fill="white"/>
<path d="M25.6201 45.2414C31.1597 47.0893 35.8884 50.7209 39.1236 55.4496C40.8413 53.6799 42.2648 51.6258 43.3198 49.3615C39.2658 46.6048 34.3749 44.9932 29.1136 44.9932C27.9284 44.9932 26.7633 45.0813 25.6201 45.2394V45.2414Z" fill="url(#paint0_linear_2317_25670)"/>
<path d="M3.07227 49.3615C4.12732 51.6237 5.55074 53.6798 7.26846 55.4496C10.5037 50.7188 15.2344 47.0872 20.772 45.2414C19.6288 45.0832 18.4637 44.9951 17.2785 44.9951C12.0172 44.9951 7.12632 46.6067 3.07227 49.3635V49.3615Z" fill="url(#paint1_linear_2317_25670)"/>
<path d="M28.8899 35.9696L30.2172 35.6012C30.4274 35.5431 30.4274 35.2448 30.2172 35.1868L28.8899 34.8184C28.4535 34.6963 28.1131 34.3579 27.993 33.9215L27.6246 32.5942C27.5666 32.384 27.2683 32.384 27.2102 32.5942L26.8418 33.9215C26.7197 34.3579 26.3814 34.6983 25.9449 34.8184L24.6176 35.1868C24.4074 35.2448 24.4074 35.5431 24.6176 35.6012L25.9449 35.9696C26.3814 36.0917 26.7217 36.43 26.8418 36.8665L27.2102 38.1938C27.2683 38.404 27.5666 38.404 27.6246 38.1938L27.993 36.8665C28.1151 36.43 28.4535 36.0897 28.8899 35.9696Z" fill="white"/>
<path d="M22.179 28.8405L24.171 28.2859C24.4874 28.1978 24.4874 27.7514 24.171 27.6653L22.179 27.1108C21.5244 26.9286 21.0139 26.4181 20.8317 25.7634L20.2771 23.7714C20.1891 23.4551 19.7426 23.4551 19.6565 23.7714L19.102 25.7634C18.9198 26.4181 18.4093 26.9286 17.7546 27.1108L15.7626 27.6653C15.4463 27.7534 15.4463 28.1998 15.7626 28.2859L17.7546 28.8405C18.4093 29.0227 18.9198 29.5332 19.102 30.1878L19.6565 32.1798C19.7446 32.4961 20.1911 32.4961 20.2771 32.1798L20.8317 30.1878C21.0139 29.5332 21.5244 29.0227 22.179 28.8405Z" fill="white"/>
<path fill-rule="evenodd" clip-rule="evenodd" d="M45.4444 39.9996C45.4444 27.7273 35.4965 17.7773 23.2222 17.7773C10.9479 17.7773 1 27.7273 1 39.9996C1 52.2718 10.9499 62.2218 23.2222 62.2218C35.4945 62.2218 45.4444 52.2738 45.4444 39.9996ZM23.2222 18.9025C34.8739 18.9025 44.3193 28.3479 44.3193 39.9996C44.3193 51.6512 34.8739 61.0967 23.2222 61.0967C11.5706 61.0967 2.12513 51.6512 2.12513 39.9996C2.12513 28.3479 11.5706 18.9025 23.2222 18.9025Z" fill="url(#paint2_linear_2317_25670)"/>
</g>
<defs>
<linearGradient id="paint0_linear_2317_25670" x1="21.9484" y1="30.863" x2="38.7953" y2="52.9792" gradientUnits="userSpaceOnUse">
<stop stop-color="#E5778E"/>
<stop offset="1" stop-color="#E076B0"/>
</linearGradient>
<linearGradient id="paint1_linear_2317_25670" x1="7.59679" y1="52.9791" x2="24.4416" y2="30.861" gradientUnits="userSpaceOnUse">
<stop stop-color="#EB796B"/>
<stop offset="1" stop-color="#E5778E"/>
</linearGradient>
<linearGradient id="paint2_linear_2317_25670" x1="2.10911" y1="36.0816" x2="42.4434" y2="43.5651" gradientUnits="userSpaceOnUse">
<stop stop-color="#EC796B"/>
<stop offset="1" stop-color="#E175B1"/>
</linearGradient>
<clipPath id="clip0_2317_25670">
<rect width="208.593" height="80" fill="white" transform="translate(0.704102)"/>
</clipPath>
</defs>
</svg>
