<svg width="204" height="80" viewBox="0 0 204 80" fill="none" xmlns="http://www.w3.org/2000/svg">
<g clip-path="url(#clip0_2317_25721)">
<ellipse cx="84.7421" cy="39.9852" rx="16.8741" ry="16.8741" transform="rotate(-180 84.7421 39.9852)" fill="#FB6111"/>
<ellipse opacity="0.7" cx="50.9921" cy="39.9852" rx="16.8741" ry="16.8741" transform="rotate(-180 50.9921 39.9852)" fill="#FB6111"/>
<ellipse opacity="0.5" cx="17.244" cy="39.9852" rx="16.8741" ry="16.8741" transform="rotate(-180 17.244 39.9852)" fill="#FB6111"/>
<path fill-rule="evenodd" clip-rule="evenodd" d="M174.336 23.1113V32.4564C174.222 31.8041 174.029 31.2061 173.757 30.6625C173.188 29.5233 172.318 28.6534 171.148 28.053C169.993 27.4526 168.577 27.1524 166.899 27.1524C165.375 27.1524 164.028 27.4141 162.858 27.9376C161.703 28.4456 160.795 29.1923 160.133 30.1775C159.791 30.6896 159.54 31.2639 159.379 31.9004C159.291 31.0576 159.102 30.337 158.814 29.7388C158.398 28.8613 157.798 28.2147 157.013 27.799C156.243 27.368 155.319 27.1524 154.241 27.1524C153.21 27.1524 152.294 27.3449 151.493 27.7297C150.693 28.0992 150.039 28.7458 149.531 29.6695H149.3C148.915 28.8074 148.345 28.1762 147.591 27.7759C146.836 27.3603 145.951 27.1524 144.935 27.1524C143.981 27.1524 143.142 27.3295 142.418 27.6836C141.71 28.0376 141.156 28.5534 140.755 29.2308H140.525L140.294 27.3834H135.421V39.9457H140.525V33.4798C140.525 33.0025 140.617 32.5792 140.802 32.2097C140.986 31.8248 141.248 31.5246 141.587 31.3091C141.941 31.0781 142.372 30.9627 142.88 30.9627C143.434 30.9627 143.858 31.0858 144.15 31.3322C144.443 31.5631 144.635 31.8864 144.727 32.302C144.835 32.7023 144.889 33.1642 144.889 33.6876V39.9457H149.969V33.4798C149.969 32.9871 150.062 32.5561 150.246 32.1866C150.431 31.8017 150.701 31.5015 151.055 31.286C151.409 31.0705 151.84 30.9627 152.348 30.9627C152.887 30.9627 153.295 31.0858 153.572 31.3322C153.864 31.5631 154.064 31.8864 154.172 32.302C154.28 32.7177 154.334 33.195 154.334 33.7338V39.9457H159.437V35.7712C159.594 36.297 159.818 36.7802 160.11 37.2207C160.756 38.1752 161.657 38.9065 162.811 39.4145C163.981 39.9226 165.359 40.1766 166.945 40.1766C168.33 40.1766 169.57 39.9995 170.663 39.6454C171.756 39.276 172.641 38.7602 173.318 38.0983C173.814 37.6135 174.154 37.075 174.336 36.4829V39.9457H179.439V36.6666L180.825 35.4196L181.541 36.4819L184.127 39.9457H190.455L184.52 32.4176L190.362 27.3834H184.012L180.94 30.1776L179.439 31.6324V23.1113H174.336ZM164.266 34.796H174.336V35.8121H169.67C169.531 36.1046 169.223 36.3509 168.746 36.5511C168.269 36.7358 167.715 36.8282 167.083 36.8282C166.498 36.8282 165.998 36.7512 165.582 36.5972C165.167 36.4279 164.843 36.1893 164.613 35.8814C164.397 35.5735 164.282 35.2117 164.266 34.796ZM169.388 32.1404H164.18C164.266 31.8257 164.403 31.5563 164.589 31.3322C164.836 31.0551 165.151 30.8549 165.536 30.7318C165.921 30.5932 166.368 30.5239 166.876 30.5239C167.445 30.5239 167.907 30.6009 168.261 30.7549C168.631 30.9088 168.908 31.1243 169.092 31.4014C169.24 31.6231 169.339 31.8694 169.388 32.1404Z" fill="white"/>
<path fill-rule="evenodd" clip-rule="evenodd" d="M194.061 40.1767C193.153 40.1767 192.322 40.0304 191.567 39.7379C190.829 39.43 190.19 38.9913 189.651 38.4217C189.112 37.852 188.696 37.167 188.404 36.3664C188.111 35.5659 187.965 34.673 187.965 33.6877C187.965 32.3483 188.219 31.1937 188.727 30.2238C189.235 29.254 189.943 28.5073 190.852 27.9839C191.775 27.4604 192.845 27.1987 194.061 27.1987C194.816 27.1987 195.47 27.2757 196.024 27.4297C196.579 27.5836 197.048 27.7991 197.433 28.0762C197.833 28.338 198.149 28.6536 198.38 29.023H198.564L198.703 27.3835H203.552V39.9458H198.449V38.3524H198.264C197.879 38.922 197.31 39.3684 196.555 39.6917C195.801 40.015 194.97 40.1767 194.061 40.1767ZM195.701 36.3664C196.271 36.3664 196.756 36.2587 197.156 36.0431C197.572 35.8276 197.887 35.5274 198.103 35.1425C198.318 34.7577 198.426 34.3189 198.426 33.8263V33.5492C198.426 33.0411 198.318 32.6024 198.103 32.2329C197.887 31.848 197.572 31.5478 197.156 31.3323C196.756 31.1167 196.271 31.009 195.701 31.009C195.193 31.009 194.739 31.109 194.339 31.3092C193.954 31.5093 193.646 31.8095 193.415 32.2098C193.199 32.6101 193.092 33.1027 193.092 33.6877C193.092 34.2727 193.199 34.7654 193.415 35.1656C193.63 35.5659 193.931 35.8661 194.315 36.0662C194.716 36.2664 195.178 36.3664 195.701 36.3664Z" fill="white"/>
<path fill-rule="evenodd" clip-rule="evenodd" d="M108.78 56.2887C109.349 56.535 110.011 56.6582 110.766 56.6582H114.969V53.4831C115.05 53.6378 115.139 53.7878 115.235 53.9332C115.882 54.8876 116.782 55.6189 117.937 56.1269C119.107 56.635 120.485 56.889 122.07 56.889C123.456 56.889 124.695 56.712 125.788 56.3579C126.881 55.9884 127.767 55.4727 128.444 54.8107C128.939 54.3272 129.277 53.7904 129.46 53.2001C129.75 53.9488 130.15 54.5934 130.661 55.1341C131.2 55.7037 131.839 56.1424 132.578 56.4503C133.332 56.7429 134.164 56.8891 135.072 56.8891C135.98 56.8891 136.812 56.7275 137.566 56.4042C138.32 56.0809 138.89 55.6344 139.275 55.0648H139.46V56.6582H144.563V44.0959H139.714L139.575 45.7355H139.39C139.159 45.366 138.844 45.0504 138.444 44.7887C138.059 44.5116 137.589 44.296 137.035 44.1421C136.481 43.9881 135.826 43.9111 135.072 43.9111C133.856 43.9111 132.786 44.1729 131.862 44.6963C130.954 45.2197 130.246 45.9664 129.738 46.9363C129.526 47.34 129.359 47.7758 129.235 48.2436C129.138 47.9401 129.021 47.6505 128.883 47.3749C128.313 46.2357 127.443 45.3659 126.273 44.7655C125.119 44.1651 123.702 43.8649 122.024 43.8649C120.5 43.8649 119.153 44.1266 117.983 44.65C116.828 45.158 115.92 45.9047 115.258 46.89C115.153 47.0475 115.057 47.211 114.969 47.3803V44.0959H111.99V40.2625L106.979 41.2093V44.0959H104.831V47.9061H106.979V53.1943C106.979 53.9794 107.133 54.626 107.441 55.1341C107.764 55.6421 108.21 56.027 108.78 56.2887ZM114.73 47.9061H111.99V51.5085C111.99 51.8318 112.059 52.0551 112.198 52.1782C112.351 52.3014 112.598 52.363 112.937 52.363H114.528C114.368 51.7825 114.288 51.1512 114.288 50.4693C114.288 49.5132 114.436 48.6588 114.73 47.9061ZM119.392 51.5085H129.042C129.086 51.8609 129.152 52.1996 129.239 52.5245H124.795C124.657 52.817 124.349 53.0633 123.872 53.2635C123.394 53.4482 122.84 53.5406 122.209 53.5406C121.624 53.5406 121.124 53.4636 120.708 53.3097C120.292 53.1403 119.969 52.9017 119.738 52.5938C119.523 52.2859 119.407 51.9241 119.392 51.5085ZM124.514 48.8528H119.306C119.392 48.5381 119.528 48.2687 119.715 48.0446C119.961 47.7675 120.277 47.5673 120.662 47.4442C121.047 47.3056 121.493 47.2364 122.001 47.2364C122.571 47.2364 123.033 47.3133 123.387 47.4673C123.756 47.6212 124.033 47.8368 124.218 48.1139C124.366 48.3356 124.464 48.5819 124.514 48.8528ZM138.166 52.7556C137.766 52.9711 137.281 53.0789 136.712 53.0789C136.188 53.0789 135.726 52.9788 135.326 52.7787C134.941 52.5785 134.641 52.2783 134.425 51.878C134.21 51.4778 134.102 50.9851 134.102 50.4001C134.102 49.8151 134.21 49.3225 134.425 48.9222C134.656 48.5219 134.964 48.2217 135.349 48.0216C135.749 47.8215 136.204 47.7214 136.712 47.7214C137.281 47.7214 137.766 47.8292 138.166 48.0447C138.582 48.2602 138.898 48.5604 139.113 48.9453C139.329 49.3148 139.437 49.7535 139.437 50.2616V50.5387C139.437 51.0313 139.329 51.4701 139.113 51.855C138.898 52.2398 138.582 52.54 138.166 52.7556Z" fill="white"/>
<path d="M144.939 44.0958V56.6581H150.042V50.1922C150.042 49.7149 150.134 49.2916 150.319 48.9221C150.504 48.5372 150.766 48.237 151.104 48.0215C151.458 47.7906 151.889 47.6751 152.397 47.6751C152.952 47.6751 153.375 47.7983 153.668 48.0446C153.96 48.2755 154.152 48.5988 154.245 49.0145C154.353 49.4147 154.407 49.8766 154.407 50.4V56.6581H159.487V50.1922C159.487 49.6995 159.579 49.2685 159.764 48.899C159.949 48.5141 160.218 48.2139 160.572 47.9984C160.926 47.7829 161.357 47.6751 161.865 47.6751C162.404 47.6751 162.812 47.7983 163.089 48.0446C163.382 48.2755 163.582 48.5988 163.69 49.0145C163.797 49.4301 163.851 49.9074 163.851 50.4462V56.6581H168.955V49.7996C168.955 48.4295 168.747 47.3133 168.331 46.4512C167.916 45.5737 167.315 44.9271 166.53 44.5114C165.76 44.0804 164.837 43.8649 163.759 43.8649C162.727 43.8649 161.811 44.0573 161.011 44.4422C160.21 44.8116 159.556 45.4582 159.048 46.3819H158.817C158.432 45.5198 157.863 44.8886 157.108 44.4884C156.354 44.0727 155.469 43.8649 154.453 43.8649C153.498 43.8649 152.659 44.0419 151.936 44.396C151.227 44.7501 150.673 45.2658 150.273 45.9432H150.042L149.811 44.0958H144.939Z" fill="white"/>
<path d="M125.48 40.1767C124.387 40.1767 123.432 39.9919 122.617 39.6224C121.801 39.253 121.169 38.6372 120.723 37.775C120.276 36.9129 120.053 35.7583 120.053 34.3112V28.5337L115.546 32.4176L121.481 39.9457H115.153L112.567 36.4819L111.851 35.4196L110.466 36.6666V39.9457H105.362V23.1113H110.466V31.6324L111.967 30.1776L115.038 27.3834L125.157 27.3834V33.3875C125.157 33.9571 125.211 34.4728 125.318 34.9347C125.442 35.3811 125.657 35.7352 125.965 35.9969C126.288 36.2432 126.735 36.3664 127.304 36.3664C127.859 36.3664 128.328 36.2509 128.713 36.02C129.098 35.7891 129.39 35.4658 129.59 35.0501C129.806 34.6345 129.914 34.1649 129.914 33.6415V27.3834H135.017V39.9457H130.122L129.914 38.1214H129.706C129.352 38.7372 128.782 39.2376 127.997 39.6224C127.227 39.9919 126.388 40.1767 125.48 40.1767Z" fill="white"/>
</g>
<defs>
<clipPath id="clip0_2317_25721">
<rect width="203.259" height="80" fill="white" transform="translate(0.370117)"/>
</clipPath>
</defs>
</svg>
