<svg width="100" height="80" viewBox="0 0 100 80" fill="none" xmlns="http://www.w3.org/2000/svg">
<g clip-path="url(#clip0_2317_25689)">
<path d="M11.8027 38.2116H25.9344V33.8244H16.5436V30.0697H25.3436V25.9197H16.5436V22.4416H25.9344V18.0742H11.8027V38.2116Z" fill="white"/>
<path d="M26.6445 38.2116H31.3854V18.0742H26.6445V38.2116Z" fill="white"/>
<path d="M41.1652 38.5075C43.7718 38.5075 45.8171 37.4997 47.0621 35.7211V38.2111H50.7655V26.8283H41.8766V30.8597H46.2025C45.9061 33.1521 44.0109 34.2785 41.847 34.2785C38.7661 34.2785 36.78 31.9861 36.78 28.429V27.8361C36.78 24.279 38.7641 22.0064 41.7284 22.0064C43.6532 22.0064 45.3725 22.9747 45.7875 25.03H50.7062C49.8743 20.4847 46.5562 17.7773 41.8173 17.7773C36.1892 17.7773 31.8633 21.6704 31.8633 28.1326C31.8633 34.5947 36.0706 38.5075 41.1672 38.5075" fill="white"/>
<path d="M51.4062 38.2116H56.1471V30.1882H63.7317V38.2116H68.4726V18.0742H63.7317V25.7418H56.1471V18.0742H51.4062V38.2116Z" fill="white"/>
<path d="M74.2884 38.2116H79.0273V22.5009H84.6574V18.0742H68.6582V22.5009H74.2884V38.2116Z" fill="white"/>
<path d="M0.222656 61.9254H4.96353V54.1985H13.141V49.9893H4.96353V46.2147H13.3485V41.7881H0.222656V61.9254Z" fill="white"/>
<path d="M18.1238 52.1438V51.551C18.1238 48.0927 20.1079 45.8596 23.1611 45.8596C26.2143 45.8596 28.1984 48.0927 28.1984 51.551V52.1438C28.1984 55.6219 26.2143 57.8353 23.1611 57.8353C20.1079 57.8353 18.1238 55.6219 18.1238 52.1438ZM23.1611 62.2224C28.7912 62.2224 33.1171 58.3095 33.1171 51.8474C33.1171 45.3853 28.7912 41.4922 23.1611 41.4922C17.5309 41.4922 13.207 45.3853 13.207 51.8474C13.207 58.3095 17.5329 62.2224 23.1611 62.2224Z" fill="white"/>
<path d="M38.3405 51.0762V45.9776H41.0064C42.9628 45.9776 43.9687 46.9657 43.9687 48.3885V48.685C43.9687 50.1078 42.9608 51.0762 41.0064 51.0762H38.3405ZM33.5996 61.9254H38.3405V55.0285H39.8226L44.0003 61.9254H49.7174L44.5022 54.5147C47.2274 53.6254 48.8874 51.5505 48.8874 48.4676C48.8874 44.4164 45.9547 41.7881 41.2731 41.7881H33.5996V61.9254Z" fill="white"/>
<path d="M58.9501 62.2224C63.5428 62.2224 67.5723 59.4952 68.1651 54.2188H63.2464C62.7721 56.8076 60.9362 57.8353 58.8909 57.8353C55.8989 57.8353 53.9128 55.6219 53.9128 52.1438V51.551C53.9128 48.0927 55.8969 45.8596 58.8909 45.8596C60.9342 45.8596 62.7721 46.9069 63.2464 49.476H68.1651C67.5723 44.1996 63.5428 41.4922 58.9501 41.4922C53.322 41.4922 48.9961 45.3853 48.9961 51.8474C48.9961 58.3095 53.322 62.2224 58.9501 62.2224Z" fill="white"/>
<path d="M68.5195 61.9254H82.6512V57.5383H73.2604V53.7835H82.0604V49.6335H73.2604V46.1555H82.6512V41.7881H68.5195V61.9254Z" fill="white"/>
<path d="M89.2459 53.8434L92.0007 54.3374C93.7793 54.6734 94.4294 55.3453 94.4294 56.2741C94.4294 57.4598 93.3326 58.1712 91.4671 58.1712C88.742 58.1712 87.7934 56.6298 87.7637 54.9698H82.9043C83.1711 58.7641 85.3923 62.2224 91.2893 62.2224C96.0005 62.2224 99.2889 60.0091 99.2889 55.8591C99.2889 52.4798 97.1566 50.5234 93.1864 49.8119L90.4019 49.2981C88.6234 48.9819 87.9732 48.3891 87.9732 47.4603C87.9732 46.2746 89.07 45.5434 90.9355 45.5434C93.6607 45.5434 94.5796 47.0848 94.6389 48.7448H99.4983C99.2315 44.9505 97.0103 41.4922 91.1134 41.4922C86.4021 41.4922 83.1138 43.7055 83.1138 47.8555C83.1138 51.2348 85.3054 53.1319 89.2459 53.8434Z" fill="white"/>
</g>
<defs>
<clipPath id="clip0_2317_25689">
<rect width="99.5555" height="80" fill="white" transform="translate(0.222656)"/>
</clipPath>
</defs>
</svg>
