<svg width="156" height="80" viewBox="0 0 156 80" fill="none" xmlns="http://www.w3.org/2000/svg">
<g clip-path="url(#clip0_2317_25744)">
<path d="M99.7647 36.3259L95.9992 31.4268L99.572 27.1211H96.6476L93.8195 30.9023V27.1211H91.4463V36.3259H93.8195V33.6348L94.4402 32.862L96.8542 36.3259H99.7647Z" fill="white"/>
<path d="M110.332 36.3259L106.856 27.1211H103.876L100.413 36.3259H103.103L103.558 35.001H107.186L107.641 36.3259H110.332ZM106.538 32.931H104.192L105.365 29.4671L106.538 32.931Z" fill="white"/>
<path d="M114.304 36.3259V27.1211H111.931V36.3259H114.304Z" fill="white"/>
<path d="M123.735 36.3259V34.2558H119.707L123.638 29.0117V27.1211H116.589V29.1911H120.506L116.589 34.4353V36.3259H123.735Z" fill="white"/>
<path d="M132.763 36.3259V34.2558H128.39V32.6964H132.666V30.6264H128.39V29.1911H132.763V27.1211H126.017V36.3259H132.763Z" fill="white"/>
<path d="M143.612 36.3259V27.1211H141.226V32.1858L137.501 27.1211H135.06V36.3259H137.432V30.999L141.322 36.3259H143.612Z" fill="white"/>
<path d="M93.8195 51.9675V48.3381H98.0954V46.268H93.8195V44.8327H98.1927V42.7627H91.4463V51.9675H93.8195Z" fill="white"/>
<path d="M102.768 51.9675V42.7627H100.396V51.9675H102.768Z" fill="white"/>
<path d="M113.896 51.9675V42.7627H111.509V47.8274L107.785 42.7627H105.343V51.9675H107.716V46.6406L111.607 51.9675H113.896Z" fill="white"/>
<path d="M125.414 51.9675L121.938 42.7627H118.958L115.495 51.9675H118.185L118.64 50.6427H122.268L122.724 51.9675H125.414ZM121.62 48.5726H119.275L120.447 45.1088L121.62 48.5726Z" fill="white"/>
<path d="M135.566 51.9675V42.7627H133.179V47.8274L129.454 42.7627H127.013V51.9675H129.386V46.6406L133.277 51.9675H135.566Z" fill="white"/>
<path d="M142.657 52.1326C144.878 52.1326 146.078 50.8492 146.671 49.6624L144.63 48.6963C144.326 49.4277 143.539 50.0349 142.657 50.0349C141.153 50.0349 140.091 48.8757 140.091 47.3715C140.091 45.8672 141.153 44.708 142.657 44.708C143.539 44.708 144.326 45.3152 144.63 46.0466L146.671 45.0807C146.065 43.8662 144.878 42.6104 142.657 42.6104C139.829 42.6104 137.677 44.5286 137.677 47.3715C137.677 50.2006 139.829 52.1326 142.657 52.1326Z" fill="white"/>
<path d="M155.363 51.9675V49.8974H150.989V48.3381H155.266V46.268H150.989V44.8327H155.363V42.7627H148.616V51.9675H155.363Z" fill="white"/>
<path d="M37.7199 77.0285C58.1837 77.0285 74.7729 60.4394 74.7729 39.9757C74.7729 19.512 58.1837 2.92285 37.7199 2.92285C17.2562 2.92285 0.666992 19.512 0.666992 39.9757C0.666992 60.4394 17.2562 77.0285 37.7199 77.0285Z" fill="url(#paint0_radial_2317_25744)"/>
<mask id="mask0_2317_25744" style="mask-type:alpha" maskUnits="userSpaceOnUse" x="0" y="3" width="75" height="75">
<path d="M37.7199 77.144C58.1837 77.144 74.7729 60.5548 74.7729 40.091C74.7729 19.6273 58.1837 3.03809 37.7199 3.03809C17.2562 3.03809 0.666992 19.6273 0.666992 40.091C0.666992 60.5548 17.2562 77.144 37.7199 77.144Z" fill="url(#paint1_radial_2317_25744)"/>
</mask>
<g mask="url(#mask0_2317_25744)">
<g filter="url(#filter0_f_2317_25744)">
<path d="M60.7216 59.4514C60.7216 71.9367 50.5142 82.058 37.9228 82.058C25.3314 82.058 15.124 71.9367 15.124 59.4514C15.124 46.9661 25.3314 36.8447 37.9228 36.8447C50.5142 36.8447 60.7216 46.9661 60.7216 59.4514Z" fill="#C50000"/>
</g>
<g filter="url(#filter1_f_2317_25744)">
<path d="M35.4764 23.8761C43.3998 23.8761 49.8229 20.0744 49.8229 15.3848C49.8229 10.6952 43.3998 6.89355 35.4764 6.89355C27.553 6.89355 21.1299 10.6952 21.1299 15.3848C21.1299 20.0744 27.553 23.8761 35.4764 23.8761Z" fill="#FFB3B3"/>
</g>
<g filter="url(#filter2_f_2317_25744)">
<path d="M56.3699 32.9532C60.1091 38.4599 65.5771 41.297 68.5831 39.2902C71.5891 37.2833 70.9948 31.1923 67.2557 25.6856C63.5165 20.1789 58.0485 17.3417 55.0425 19.3486C52.0365 21.3555 52.6308 27.4465 56.3699 32.9532Z" fill="#FFB0B0"/>
</g>
</g>
<path fill-rule="evenodd" clip-rule="evenodd" d="M37.7191 62.3225V16.9326H32.1611V62.3225H37.7191Z" fill="black"/>
<path fill-rule="evenodd" clip-rule="evenodd" d="M54.8324 65.3118C51.7584 58.8742 48.7384 50.0108 48.7384 40.0911C48.7386 30.1715 51.7587 21.3081 54.8326 14.8704C56.3646 11.6624 57.8951 9.08768 59.0362 7.32376C59.6062 6.44261 60.0776 5.76615 60.4011 5.31663C60.5629 5.09193 60.6876 4.92415 60.7691 4.81605C60.8098 4.76201 60.8397 4.72292 60.8581 4.69911L60.8768 4.67493L60.8785 4.67281C60.8785 4.67281 60.8775 4.67395 58.7488 2.929C56.6199 1.18406 56.6187 1.18558 56.6187 1.18558L56.6134 1.19241L56.6022 1.20672L56.5662 1.25312C56.5364 1.2919 56.4948 1.34633 56.4422 1.41605C56.3371 1.5555 56.188 1.75622 56.0015 2.01543C55.6283 2.5337 55.1044 3.28661 54.48 4.25172C53.2324 6.1803 51.5778 8.9657 49.9247 12.4278C46.6286 19.3307 43.2785 29.0483 43.2783 40.091C43.2781 51.1339 46.6283 60.8516 49.9245 67.7544C51.5777 71.2165 53.2323 74.002 54.48 75.9306C55.1043 76.8956 55.6283 77.6486 56.0015 78.1668C56.1881 78.426 56.3371 78.6268 56.4422 78.7663C56.4948 78.8359 56.5364 78.8904 56.5663 78.9292L56.6022 78.9755L56.6134 78.9899L56.6188 78.9967C56.6188 78.9967 56.62 78.9982 58.7488 77.2532C60.8775 75.5082 60.8785 75.5094 60.8785 75.5094L60.8768 75.5073L60.8581 75.4831C60.8397 75.4593 60.8098 75.4202 60.7691 75.3661C60.6875 75.2581 60.5629 75.0902 60.4011 74.8656C60.0775 74.4161 59.6061 73.7396 59.0361 72.8584C57.8949 71.0945 56.3644 68.5198 54.8324 65.3118Z" fill="black"/>
</g>
<defs>
<filter id="filter0_f_2317_25744" x="-24.876" y="-3.15527" width="125.598" height="125.213" filterUnits="userSpaceOnUse" color-interpolation-filters="sRGB">
<feFlood flood-opacity="0" result="BackgroundImageFix"/>
<feBlend mode="normal" in="SourceGraphic" in2="BackgroundImageFix" result="shape"/>
<feGaussianBlur stdDeviation="20" result="effect1_foregroundBlur_2317_25744"/>
</filter>
<filter id="filter1_f_2317_25744" x="-18.8701" y="-33.1064" width="108.693" height="96.9824" filterUnits="userSpaceOnUse" color-interpolation-filters="sRGB">
<feFlood flood-opacity="0" result="BackgroundImageFix"/>
<feBlend mode="normal" in="SourceGraphic" in2="BackgroundImageFix" result="shape"/>
<feGaussianBlur stdDeviation="20" result="effect1_foregroundBlur_2317_25744"/>
</filter>
<filter id="filter2_f_2317_25744" x="13.126" y="-21.2959" width="97.374" height="101.23" filterUnits="userSpaceOnUse" color-interpolation-filters="sRGB">
<feFlood flood-opacity="0" result="BackgroundImageFix"/>
<feBlend mode="normal" in="SourceGraphic" in2="BackgroundImageFix" result="shape"/>
<feGaussianBlur stdDeviation="20" result="effect1_foregroundBlur_2317_25744"/>
</filter>
<radialGradient id="paint0_radial_2317_25744" cx="0" cy="0" r="1" gradientUnits="userSpaceOnUse" gradientTransform="translate(35.533 41.9194) rotate(-24.5255) scale(41.2252 41.3274)">
<stop stop-color="#D50000"/>
<stop offset="0.428907" stop-color="#FF1414"/>
<stop offset="0.839181" stop-color="#FF5D5D"/>
<stop offset="1" stop-color="#FF5353"/>
</radialGradient>
<radialGradient id="paint1_radial_2317_25744" cx="0" cy="0" r="1" gradientUnits="userSpaceOnUse" gradientTransform="translate(35.533 42.0347) rotate(-24.5255) scale(41.2252 41.3275)">
<stop stop-color="#016EE7"/>
<stop offset="0.428907" stop-color="#2980FF"/>
<stop offset="0.839181" stop-color="#5D9AFF"/>
<stop offset="1" stop-color="#90C7FF"/>
</radialGradient>
<clipPath id="clip0_2317_25744">
<rect width="155.259" height="80" fill="white" transform="translate(0.370117)"/>
</clipPath>
</defs>
</svg>
