<svg width="176" height="80" viewBox="0 0 176 80" fill="none" xmlns="http://www.w3.org/2000/svg">
<g clip-path="url(#clip0_2317_25702)">
<path d="M42.1494 21.9756C49.0355 21.9756 54.6177 27.3779 54.6177 34.0419V58.1745C47.7316 58.1745 42.1494 52.7723 42.1494 46.1083V21.9756Z" fill="white"/>
<path d="M58.7783 47.4877C58.7783 47.1704 59.0441 46.9131 59.3721 46.9131H60.1637C66.2847 46.9131 71.2466 51.7151 71.2466 57.6387C71.2466 57.9349 70.9985 58.175 70.6925 58.175H58.7783V47.4877Z" fill="#0BC594"/>
<path d="M13.0611 40.0751C13.0611 43.4072 15.8522 46.1083 19.2952 46.1083C21.5906 46.1083 23.4513 47.9091 23.4513 50.1304V58.1745H19.2952C16.3094 58.1745 13.487 57.4975 10.983 56.2932C4.82486 53.3316 0.592773 47.1817 0.592773 40.0751C0.592773 32.9686 4.82486 26.8187 10.983 23.857C13.487 22.6527 16.3094 21.9756 19.2952 21.9756C20.7237 21.9756 22.1147 22.1306 23.4513 22.4241C28.1404 23.4538 32.1601 26.1885 34.7781 29.9191C36.8103 32.8149 37.9977 36.3108 37.9977 40.0751V58.1745C34.8122 58.1745 31.9056 57.0186 29.7018 55.1162C27.1415 52.9064 25.5294 49.6895 25.5294 46.1083V40.0751C25.5294 38.7504 25.0882 37.5254 24.3404 36.5302C24.0795 36.1831 23.7813 35.8639 23.4513 35.5781C22.3484 34.6229 20.8919 34.0419 19.2952 34.0419C15.8522 34.0419 13.0611 36.7431 13.0611 40.0751Z" fill="white"/>
<path d="M101.809 39.3749L100.847 36.5668H93.7018L92.7399 39.3749H87.9307L94.4714 21.5049H100.077L106.618 39.3749H101.809ZM95.021 32.7375H99.528L97.2745 26.1766L95.021 32.7375Z" fill="white"/>
<path d="M112.237 28.8848C112.493 28.0678 113.006 27.4466 113.775 27.0212C114.564 26.5787 115.425 26.3574 116.359 26.3574V30.6973C115.352 30.5441 114.408 30.7057 113.529 31.1823C112.667 31.6418 112.237 32.4503 112.237 33.6076V39.377H108.114V26.6127H112.237V28.8848Z" fill="white"/>
<path d="M126.742 30.2863H123.912V34.8048C123.912 35.3155 124.132 35.6389 124.572 35.7749C125.011 35.9111 125.735 35.9536 126.742 35.9026V39.3746C124.122 39.6298 122.309 39.3999 121.301 38.6853C120.293 37.9533 119.789 36.6599 119.789 34.8048V30.2863H117.591V26.6102H119.789V24.1849L123.912 23.0361V26.6102H126.742V30.2863Z" fill="white"/>
<path d="M132.875 24.8259C132.398 25.2684 131.822 25.4897 131.144 25.4897C130.465 25.4897 129.88 25.2684 129.385 24.8259C128.908 24.3664 128.671 23.8218 128.671 23.1921C128.671 22.5624 128.908 22.0263 129.385 21.5838C129.88 21.1243 130.465 20.8945 131.144 20.8945C131.822 20.8945 132.398 21.1243 132.875 21.5838C133.37 22.0263 133.617 22.5624 133.617 23.1921C133.617 23.8218 133.37 24.3664 132.875 24.8259ZM129.083 39.3773V26.613H133.205V39.3773H129.083Z" fill="white"/>
<path d="M136.218 39.3771V20.7412H140.339V39.3771H136.218Z" fill="white"/>
<path d="M153.332 26.6103H157.454V39.3747H153.332V38.1748C152.361 39.213 150.996 39.7321 149.238 39.7321C147.423 39.7321 145.876 39.0854 144.593 37.7919C143.31 36.4815 142.669 34.8816 142.669 32.9925C142.669 31.1034 143.31 29.5121 144.593 28.2186C145.876 26.9082 147.423 26.2529 149.238 26.2529C150.996 26.2529 152.361 26.772 153.332 27.8102V26.6103ZM147.698 35.2645C148.303 35.8262 149.09 36.107 150.062 36.107C151.032 36.107 151.821 35.8262 152.425 35.2645C153.029 34.7029 153.332 33.9456 153.332 32.9925C153.332 32.0394 153.029 31.282 152.425 30.7205C151.821 30.1589 151.032 29.878 150.062 29.878C149.09 29.878 148.303 30.1589 147.698 30.7205C147.094 31.282 146.791 32.0394 146.791 32.9925C146.791 33.9456 147.094 34.7029 147.698 35.2645Z" fill="white"/>
<path d="M168.695 26.2532C170.508 26.2532 172.057 26.9085 173.339 28.2189C174.622 29.5124 175.263 31.1036 175.263 32.9927C175.263 34.8819 174.622 36.4817 173.339 37.7922C172.057 39.0857 170.508 39.7324 168.695 39.7324C166.935 39.7324 165.57 39.2133 164.6 38.175V39.3749H160.478V21.5049H164.6V27.8105C165.57 26.7723 166.935 26.2532 168.695 26.2532ZM165.507 35.2648C166.13 35.8265 166.918 36.1073 167.87 36.1073C168.822 36.1073 169.601 35.8265 170.206 35.2648C170.829 34.7032 171.14 33.9458 171.14 32.9927C171.14 32.0396 170.829 31.2823 170.206 30.7207C169.601 30.1591 168.822 29.8783 167.87 29.8783C166.918 29.8783 166.13 30.1591 165.507 30.7207C164.902 31.2823 164.6 32.0396 164.6 32.9927C164.6 33.9458 164.902 34.7032 165.507 35.2648Z" fill="white"/>
<path d="M95.6389 54.2141L96.1492 55.1866C95.799 55.5513 95.3237 55.84 94.7234 56.0527C94.1231 56.2654 93.4928 56.3718 92.8325 56.3718C91.2517 56.3718 89.9661 55.8755 88.9756 54.8827C87.9952 53.8798 87.5049 52.5529 87.5049 50.9018C87.5049 49.3316 87.9751 48.03 88.9155 46.9967C89.8661 45.9533 91.1417 45.4316 92.7425 45.4316C94.0831 45.4316 95.1487 45.776 95.939 46.4649L95.3538 47.4374C94.6534 46.9106 93.788 46.6472 92.7575 46.6472C91.6169 46.6472 90.6815 47.0423 89.9511 47.8324C89.2207 48.6225 88.8556 49.6457 88.8556 50.9018C88.8556 52.1679 89.2307 53.1961 89.9811 53.9862C90.7415 54.7662 91.7319 55.1563 92.9526 55.1563C93.9831 55.1563 94.8785 54.8422 95.6389 54.2141Z" fill="#838383"/>
<path d="M97.8157 55.369C97.1554 54.6904 96.8252 53.8344 96.8252 52.8011C96.8252 51.7679 97.1554 50.917 97.8157 50.2484C98.486 49.5697 99.3565 49.2305 100.427 49.2305C101.497 49.2305 102.363 49.5697 103.023 50.2484C103.694 50.917 104.028 51.7679 104.028 52.8011C104.028 53.8344 103.694 54.6904 103.023 55.369C102.363 56.0377 101.497 56.3719 100.427 56.3719C99.3565 56.3719 98.486 56.0377 97.8157 55.369ZM98.1009 52.8011C98.1009 53.5103 98.316 54.0927 98.7462 54.5486C99.1864 55.0044 99.747 55.2323 100.427 55.2323C101.107 55.2323 101.663 55.0094 102.093 54.5638C102.533 54.1079 102.753 53.5203 102.753 52.8011C102.753 52.0921 102.533 51.5096 102.093 51.0538C101.663 50.598 101.107 50.37 100.427 50.37C99.7568 50.37 99.2014 50.598 98.7612 51.0538C98.321 51.4995 98.1009 52.0819 98.1009 52.8011Z" fill="#838383"/>
<path d="M115.788 51.7375V56.2199H114.587V52.0718C114.587 50.9575 114.102 50.4004 113.132 50.4004C112.741 50.4004 112.386 50.4916 112.066 50.6739C111.756 50.8562 111.521 51.0942 111.361 51.388C111.371 51.469 111.376 51.6311 111.376 51.8743V56.2199H110.176V51.8134C110.176 51.388 110.05 51.0487 109.8 50.7955C109.55 50.532 109.195 50.4004 108.735 50.4004C107.984 50.4004 107.394 50.7093 106.964 51.3272V56.2199H105.763V49.3823H106.964V50.2484C107.214 49.9547 107.538 49.7166 107.939 49.5342C108.349 49.3519 108.769 49.2607 109.2 49.2607C109.72 49.2607 110.155 49.3671 110.505 49.5799C110.866 49.7926 111.111 50.0813 111.241 50.4459C111.491 50.0914 111.821 49.8078 112.231 49.5951C112.652 49.3722 113.112 49.2607 113.612 49.2607C115.062 49.2607 115.788 50.0863 115.788 51.7375Z" fill="#838383"/>
<path d="M117.808 59.2589V49.3824H119.009V50.1877C119.249 49.904 119.574 49.6761 119.983 49.5039C120.404 49.3216 120.844 49.2305 121.304 49.2305C122.255 49.2305 123.011 49.5546 123.571 50.2029C124.14 50.841 124.426 51.6717 124.426 52.6948C124.426 53.7483 124.101 54.6245 123.45 55.3235C122.8 56.0225 121.955 56.3719 120.914 56.3719C120.114 56.3719 119.479 56.2149 119.009 55.9009V59.2589H117.808ZM120.959 50.37C120.158 50.37 119.508 50.684 119.009 51.312V54.7005C119.528 55.0551 120.129 55.2323 120.809 55.2323C121.519 55.2323 122.085 54.9993 122.505 54.5334C122.936 54.0674 123.15 53.4698 123.15 52.7404C123.15 52.0314 122.955 51.459 122.565 51.0234C122.175 50.5878 121.64 50.37 120.959 50.37Z" fill="#838383"/>
<path d="M126.509 50.8258L126.194 49.8534C126.854 49.4381 127.605 49.2305 128.445 49.2305C129.376 49.2305 130.041 49.4635 130.441 49.9293C130.841 50.3953 131.042 51.0943 131.042 52.0262V56.22H129.901V55.3387C129.381 55.9971 128.661 56.3264 127.74 56.3264C127.12 56.3264 126.619 56.1389 126.239 55.7641C125.859 55.3792 125.669 54.8626 125.669 54.2143C125.669 53.5355 125.904 53.0038 126.374 52.6188C126.854 52.2339 127.469 52.0414 128.22 52.0414C128.941 52.0414 129.501 52.1883 129.901 52.4821C129.901 51.7527 129.801 51.2108 129.601 50.8562C129.401 50.5017 128.99 50.3244 128.37 50.3244C127.76 50.3244 127.14 50.4916 126.509 50.8258ZM128.16 55.2323C128.83 55.2323 129.411 54.9385 129.901 54.3511V53.4849C129.481 53.1811 128.976 53.0291 128.385 53.0291C127.985 53.0291 127.645 53.1253 127.365 53.3178C127.084 53.5103 126.945 53.7888 126.945 54.1535C126.945 54.4877 127.05 54.7511 127.26 54.9436C127.48 55.136 127.78 55.2323 128.16 55.2323Z" fill="#838383"/>
<path d="M133.044 56.2199V49.3823H134.245V50.2181C134.495 49.9445 134.82 49.7166 135.221 49.5342C135.621 49.3519 136.031 49.2607 136.451 49.2607C138.322 49.2607 139.257 50.2636 139.257 52.2693V56.2199H138.057V52.4972C138.057 51.0994 137.421 50.4004 136.151 50.4004C135.391 50.4004 134.756 50.6941 134.245 51.2817V56.2199H133.044Z" fill="#838383"/>
<path d="M147.421 49.3828L144.72 56.2204C144.239 57.4056 143.814 58.2058 143.444 58.6211C143.074 59.0466 142.638 59.2593 142.138 59.2593C141.708 59.2593 141.283 59.1175 140.862 58.8339L141.252 57.907C141.573 58.0589 141.823 58.1349 142.003 58.1349C142.283 58.1349 142.533 58.0134 142.754 57.7703C142.984 57.5272 143.214 57.1321 143.444 56.5851L143.594 56.2204L140.353 49.3828H141.794L143.774 53.7285C143.814 53.8196 143.95 54.164 144.18 54.7618C144.27 54.4274 144.374 54.0779 144.495 53.7133L146.055 49.3828H147.421Z" fill="#838383"/>
</g>
<defs>
<clipPath id="clip0_2317_25702">
<rect width="174.815" height="80" fill="white" transform="translate(0.592773)"/>
</clipPath>
</defs>
</svg>
