<svg xmlns="http://www.w3.org/2000/svg">
    <defs>
        <symbol id="icon-pencil" viewBox="0 0 16 16">
            <path d="M13.496 5.951l.915-.915a2.44 2.44 0 000-3.447 2.421 2.421 0 00-1.723-.713 2.42 2.42 0 00-1.724.713l-.915.915 3.447 3.447zM9.254 3.3l-6.776 6.776a1.316 1.316 0 00-.318.516L.904 14.386a.562.562 0 00.71.71L5.41 13.84a1.31 1.31 0 00.517-.318L12.7 6.746 9.254 3.3z"/>
        </symbol>
        <symbol viewBox="0 0 12 12" id="icon-arrow">
            <g clip-path="url(#clip0_99_327)">
                <path fill-rule="evenodd" clip-rule="evenodd"
                      d="M1 2C0.447715 2 1.49012e-08 1.55228 1.49012e-08 1C1.49012e-08 0.447715 0.447715 0 1 0H11C11.5523 0 12 0.447715 12 1V11C12 11.5523 11.5523 12 11 12C10.4477 12 10 11.5523 10 11V3.41421L1.70711 11.7071C1.31658 12.0976 0.683417 12.0976 0.292893 11.7071C-0.0976311 11.3166 -0.0976311 10.6834 0.292893 10.2929L8.58579 2H1Z"/>
            </g>
            <defs>
                <clipPath id="clip0_99_327">
                    <rect width="12" height="12" fill="white"/>
                </clipPath>
            </defs>
        </symbol>
    </defs>
</svg>
