<svg width="498" height="500" viewBox="0 0 498 500" fill="none" xmlns="http://www.w3.org/2000/svg">
<g clip-path="url(#clip0_2019_21051)">
<path d="M324.079 302.608C326.963 300.821 360.276 280.387 361.775 290.716C362.324 294.67 332.621 316.696 291.212 342.872C256.438 364.87 213.401 389.79 173.09 409.406C109.916 440.16 51.0127 461.869 -2 477.102V313.142C26.9955 309.289 57.8335 303.659 89.9091 295.675V295.61C226.931 261.525 267.26 223.298 273.979 226.695C281.041 230.221 266.041 254.871 266.041 254.871C268.572 255.923 281.227 248.646 295.269 240.737C296.46 240.067 297.661 239.397 298.861 238.727C299.587 238.317 300.313 237.908 301.048 237.508C301.094 237.48 301.132 237.452 301.178 237.433C310.093 232.473 319.082 227.69 326.005 224.955C332.323 222.451 336.92 221.661 338.213 223.978C341.759 230.398 307.282 254.415 306.259 255.123C306.65 254.927 311.247 252.629 317.621 249.679H317.63C332.407 242.849 356.703 232.585 360.081 237.219C360.314 237.545 360.425 237.926 360.435 238.364C360.565 246.934 319.305 276.404 318.012 277.325C319.37 276.525 369.312 246.98 374.132 256.025C378.841 264.875 327.633 300.17 324.079 302.608Z" fill="#1D1B25" stroke="url(#paint0_linear_2019_21051)" stroke-width="2" stroke-linejoin="round"/>
<path d="M298.071 254.713C315.761 198.649 258.821 91.0972 226.978 137.81C205.566 169.188 288.98 181.629 298.071 254.713Z" fill="#1D1B25" stroke="url(#paint1_linear_2019_21051)" stroke-width="2"/>
<path d="M251.367 157.984C271.597 174.296 297.382 201.105 299.42 246.217" stroke="url(#paint2_linear_2019_21051)" stroke-width="2" stroke-linecap="round" stroke-linejoin="round"/>
<path d="M296.578 287.003C296.932 240.281 366.303 172.901 378.94 216.003C387.408 244.989 321.34 233.962 296.578 287.003Z" fill="#1D1B25" stroke="url(#paint3_linear_2019_21051)" stroke-width="2"/>
<path d="M356.895 224.787C330.254 235.014 290.873 257.635 291.46 327.314" stroke="url(#paint4_linear_2019_21051)" stroke-width="2" stroke-linecap="round" stroke-linejoin="round"/>
<path d="M299.987 468.206C281.553 335.996 291.082 212.057 338.343 136.991" stroke="url(#paint5_linear_2019_21051)" stroke-width="2" stroke-linecap="round" stroke-linejoin="round"/>
<path d="M441.903 131.678C435.631 140.118 425.87 144.045 415.475 143.998C409.79 143.951 404.365 142.705 399.005 140.918C402.346 145.747 404.514 151.321 405.165 157.258C407.38 177.6 387.466 196.806 367.088 190.218C344.252 182.839 339.469 157.928 338.343 136.684C330.331 143.254 321.435 148.883 310.93 149.795C289.471 151.703 275.43 130.654 278.826 110.899C280.566 100.747 286.382 90.5666 294.347 83.9226C296.785 81.9033 299.856 80.4052 303.02 79.6421C299.233 74.6172 296.395 68.9409 294.906 62.7063C290.951 45.9753 299.735 24.4985 319.546 25.5872C333.96 26.3596 342.987 36.2233 349.342 47.9108C350.338 43.6769 352.134 39.5918 354.795 35.9441C368.232 17.5381 396.548 17.3241 410.237 35.4788C416.918 44.3655 419.011 55.4761 416.08 66.1493C414.48 72.1141 411.539 77.5856 407.947 82.6012C413.326 80.8797 419.058 80.2377 424.855 81.1589C435.091 82.8432 444.49 89.7198 447.849 99.7603C451.264 110.099 448.361 123.024 441.977 131.65L441.893 131.696L441.903 131.678Z" fill="#1D1B25" stroke="url(#paint6_linear_2019_21051)" stroke-width="2"/>
<path d="M388.758 97.7505L394.909 87.1144L351.425 62.0085L345.284 72.6446L361.252 81.8662L357.222 88.8359C343.906 81.9406 332.666 78.8792 330.888 81.9593C329.111 85.0393 337.383 93.2467 350.011 101.333L337.104 123.694L348.643 130.366L361.559 107.996C374.856 114.872 386.078 117.934 387.846 114.854C389.624 111.774 381.37 103.585 368.761 95.5079L372.8 88.5288L388.758 97.7505ZM385.455 112.741C384.087 115.124 374.382 112.192 362.657 106.097H362.647C362.312 105.93 360.582 105.064 356.86 102.915C353.882 101.193 351.835 99.9 351.118 99.4347H351.109C339.942 92.3068 332.535 85.3743 333.913 82.9828C335.29 80.6007 344.995 83.5412 356.757 89.6548L352.253 97.4527C352.979 97.9366 355.054 99.3045 358.013 101.017C361.577 103.073 363.457 103.948 363.801 104.115L368.296 96.3174C379.444 103.436 386.832 110.359 385.455 112.741Z" fill="#FFFCBE"/>
</g>
<defs>
<linearGradient id="paint0_linear_2019_21051" x1="186.219" y1="222.599" x2="186.219" y2="477.102" gradientUnits="userSpaceOnUse">
<stop stop-color="#6DFFD5"/>
<stop offset="1" stop-color="#FFFCBE"/>
</linearGradient>
<linearGradient id="paint1_linear_2019_21051" x1="262.441" y1="126.35" x2="262.441" y2="254.713" gradientUnits="userSpaceOnUse">
<stop stop-color="#6DFFD5"/>
<stop offset="1" stop-color="#FFFCBE"/>
</linearGradient>
<linearGradient id="paint2_linear_2019_21051" x1="275.394" y1="157.984" x2="275.394" y2="246.217" gradientUnits="userSpaceOnUse">
<stop stop-color="#6DFFD5"/>
<stop offset="1" stop-color="#FFFCBE"/>
</linearGradient>
<linearGradient id="paint3_linear_2019_21051" x1="338.131" y1="202.195" x2="338.131" y2="287.003" gradientUnits="userSpaceOnUse">
<stop stop-color="#6DFFD5"/>
<stop offset="1" stop-color="#FFFCBE"/>
</linearGradient>
<linearGradient id="paint4_linear_2019_21051" x1="324.174" y1="224.787" x2="324.174" y2="327.314" gradientUnits="userSpaceOnUse">
<stop stop-color="#6DFFD5"/>
<stop offset="1" stop-color="#FFFCBE"/>
</linearGradient>
<linearGradient id="paint5_linear_2019_21051" x1="314.769" y1="136.991" x2="314.769" y2="468.206" gradientUnits="userSpaceOnUse">
<stop stop-color="#6DFFD5"/>
<stop offset="1" stop-color="#FFFCBE"/>
</linearGradient>
<linearGradient id="paint6_linear_2019_21051" x1="363.808" y1="22" x2="363.808" y2="191.537" gradientUnits="userSpaceOnUse">
<stop stop-color="#6DFFD5"/>
<stop offset="1" stop-color="#FFFCBE"/>
</linearGradient>
<clipPath id="clip0_2019_21051">
<rect width="500" height="500" fill="white" transform="translate(-2)"/>
</clipPath>
</defs>
</svg>
