<svg width="498" height="500" viewBox="0 0 498 500" fill="none" xmlns="http://www.w3.org/2000/svg">
<g clip-path="url(#clip0_2019_21047)">
<path d="M500.375 132.613V312.691C463.926 304.148 419.027 291.661 365.494 273.413C358.003 270.863 350.344 268.192 342.509 265.41C209.973 218.288 88.4356 124.657 91.5529 113.184C94.5399 102.213 127.89 128.677 130.803 131.013C127.155 127.793 76.5154 82.9784 82.7966 74.0081C89.1521 64.833 139.345 103.329 140.75 104.409C139.429 103.19 94.4376 61.9669 100.523 55.4718C106.618 48.9766 154.997 81.0895 156.374 82.0014C155.248 80.9964 121.172 50.5399 125.918 44.1285C132.906 34.5626 193.27 89.0083 199.923 87.11C199.923 87.11 186.952 58.5239 195.038 55.6114C202.706 52.8198 220.088 94.787 248.265 100.417C345.859 120.051 432.567 128.928 500.375 132.613Z" fill="#1D1B25" stroke="url(#paint0_linear_2019_21047)" stroke-width="2" stroke-linejoin="round"/>
<path d="M500.376 268.406V456.682C453.812 452.401 384.962 442.258 292.327 419.07C155.855 384.919 25.8307 303.506 27.8685 291.828C29.7575 280.531 65.9461 304.027 68.7098 305.842C65.3133 303.385 9.96501 263.279 15.3714 253.667C20.8523 243.905 74.3581 277.349 75.968 278.354C74.5256 277.274 25.7748 240.602 31.1905 233.502C36.6156 226.411 87.9254 253.713 89.3491 254.467C88.2511 253.667 51.2902 226.541 55.3659 219.721C61.4051 209.531 126.719 257.882 133.177 255.304C133.177 255.304 117.489 228.077 125.231 224.411C132.563 220.874 153.947 260.934 182.533 263.921C249.755 270.798 311.524 273.329 365.495 273.413C418.815 273.506 464.532 271.217 500.376 268.406Z" fill="#1D1B25" stroke="url(#paint1_linear_2019_21047)" stroke-width="2" stroke-linejoin="round"/>
</g>
<defs>
<linearGradient id="paint0_linear_2019_21047" x1="291.316" y1="43" x2="291.316" y2="312.691" gradientUnits="userSpaceOnUse">
<stop stop-color="#6DFFD5"/>
<stop offset="1" stop-color="#FFFCBE"/>
</linearGradient>
<linearGradient id="paint1_linear_2019_21047" x1="257.688" y1="218.308" x2="257.688" y2="456.682" gradientUnits="userSpaceOnUse">
<stop stop-color="#6DFFD5"/>
<stop offset="1" stop-color="#FFFCBE"/>
</linearGradient>
<clipPath id="clip0_2019_21047">
<rect width="500" height="500" fill="white"/>
</clipPath>
</defs>
</svg>
