<svg width="218" height="64" viewBox="0 0 218 64" fill="none" xmlns="http://www.w3.org/2000/svg">
<path d="M0.5 11.4286C0.5 5.36942 5.17018 0.5 10.88 0.5H206.72C212.43 0.5 217.1 5.36943 217.1 11.4286V52.5714C217.1 58.6306 212.43 63.5 206.72 63.5H10.88C5.17018 63.5 0.5 58.6306 0.5 52.5714V11.4286Z" stroke="white" stroke-opacity="0.12"/>
<path d="M19.9188 12.7341C19.4621 13.1933 19.1978 13.9082 19.1978 14.8341V47.8591C19.1978 48.785 19.4621 49.4999 19.9188 49.9591L20.0315 50.0599L39.2992 31.5613V31.1245L20.0315 12.6258L19.9188 12.7341Z" fill="url(#paint0_linear_73_11611)"/>
<path d="M38.6242 31.3429L20.0915 13.5499C19.9282 13.862 19.8228 14.285 19.8228 14.8341V47.8591C19.8228 48.4053 19.9271 48.8267 20.0889 49.1384L38.6242 31.3429Z" stroke="white" stroke-opacity="0.12"/>
<path d="M45.7138 37.7308L39.2983 31.5615V31.1247L45.7216 24.9554L45.8654 25.0356L53.4722 29.1927C55.643 30.3724 55.643 32.3138 53.4722 33.501L45.8654 37.6506L45.7138 37.7308Z" fill="url(#paint1_linear_73_11611)"/>
<path d="M45.8229 25.7246L39.9731 31.3432L45.8183 36.9643L53.1723 32.9526C53.1723 32.9526 53.1724 32.9525 53.1725 32.9525C54.1503 32.4177 54.4753 31.8074 54.4753 31.344C54.4753 30.8813 54.151 30.2729 53.1737 29.7419L53.1724 29.7411L45.8229 25.7246Z" stroke="white" stroke-opacity="0.12"/>
<mask id="path-6-inside-1_73_11611" fill="white">
<path d="M45.8659 37.6505L39.2989 31.343L19.9185 49.9593C20.6395 50.6873 21.8153 50.775 23.1524 50.047L45.8659 37.6505Z"/>
</mask>
<path d="M45.8659 37.6505L39.2989 31.343L19.9185 49.9593C20.6395 50.6873 21.8153 50.775 23.1524 50.047L45.8659 37.6505Z" fill="url(#paint2_linear_73_11611)"/>
<path d="M39.2989 31.343L38.433 30.4416L39.2988 29.6098L40.1648 30.4415L39.2989 31.343ZM19.9185 49.9593L19.0303 50.8389L18.1371 49.9371L19.0525 49.0578L19.9185 49.9593ZM23.1524 50.047L23.7513 51.1443L23.7501 51.1449L23.1524 50.047ZM45 38.552L38.433 32.2446L40.1648 30.4415L46.7318 36.749L45 38.552ZM40.1648 32.2445L20.7844 50.8608L19.0525 49.0578L38.433 30.4416L40.1648 32.2445ZM20.8066 49.0797C20.9918 49.2667 21.4987 49.5241 22.5547 48.9492L23.7501 51.1449C22.1319 52.0259 20.2872 52.1079 19.0303 50.8389L20.8066 49.0797ZM22.5536 48.9498L45.2671 36.5533L46.4648 38.7477L23.7513 51.1443L22.5536 48.9498Z" fill="white" fill-opacity="0.12" mask="url(#path-6-inside-1_73_11611)"/>
<path d="M45.8659 25.0354L23.1524 12.6389C21.8153 11.9184 20.6395 12.0061 19.9185 12.7341L39.2989 31.3429L45.8659 25.0354Z" fill="url(#paint3_linear_73_11611)"/>
<path d="M39.2988 30.4764L44.8179 25.1755L22.8559 13.1891C22.8554 13.1888 22.855 13.1886 22.8545 13.1883C22.047 12.7535 21.4011 12.6905 20.9271 12.8361L39.2988 30.4764Z" stroke="white" stroke-opacity="0.12"/>
<path d="M77.422 16.7788C77.422 18.0257 77.0333 19.0244 76.2675 19.7692C75.3871 20.6521 74.2405 21.0964 72.8354 21.0964C71.4924 21.0964 70.3457 20.6446 69.4051 19.7542C68.4625 18.8508 67.9922 17.742 67.9922 16.4148C67.9922 15.0876 68.4625 13.9788 69.4051 13.0828C70.3457 12.1849 71.4924 11.7332 72.8354 11.7332C73.5039 11.7332 74.1414 11.8657 74.7497 12.1121C75.356 12.3604 75.8497 12.6964 76.2073 13.1108L75.3949 13.8985C74.7711 13.191 73.9218 12.842 72.8354 12.842C71.8558 12.842 71.0065 13.1705 70.2855 13.8332C69.5722 14.4977 69.2146 15.3582 69.2146 16.4148C69.2146 17.4713 69.5722 18.3393 70.2855 19.0038C71.0065 19.659 71.8558 19.995 72.8354 19.995C73.8751 19.995 74.7497 19.659 75.4396 18.9964C75.8944 18.5577 76.1529 17.9529 76.2209 17.1801H72.8354V16.1012H77.352C77.4064 16.3345 77.422 16.5604 77.422 16.7788Z" fill="white" stroke="white" stroke-opacity="0.12" stroke-miterlimit="10"/>
<path d="M84.5882 13.0378H80.3456V15.8752H84.1704V16.9541H80.3456V19.7914H84.5882V20.8909H79.1445V11.9384H84.5882V13.0378Z" fill="white" stroke="white" stroke-opacity="0.12" stroke-miterlimit="10"/>
<path d="M89.6437 20.8909H88.4427V13.0378H85.8403V11.9384H92.248V13.0378H89.6437V20.8909Z" fill="white" stroke="white" stroke-opacity="0.12" stroke-miterlimit="10"/>
<path d="M96.8867 20.8909V11.9384H98.0858V20.8909H96.8867Z" fill="white" stroke="white" stroke-opacity="0.12" stroke-miterlimit="10"/>
<path d="M103.402 20.8909H102.211V13.0378H99.5986V11.9384H106.014V13.0378H103.402V20.8909Z" fill="white" stroke="white" stroke-opacity="0.12" stroke-miterlimit="10"/>
<path d="M118.143 19.7393C117.224 20.6446 116.085 21.0964 114.727 21.0964C113.36 21.0964 112.222 20.6446 111.302 19.7393C110.385 18.8358 109.928 17.727 109.928 16.4148C109.928 15.1025 110.385 13.9937 111.302 13.0902C112.222 12.1849 113.36 11.7332 114.727 11.7332C116.077 11.7332 117.216 12.1849 118.136 13.0977C119.061 14.0086 119.517 15.11 119.517 16.4148C119.517 17.727 119.061 18.8358 118.143 19.7393ZM112.19 18.9889C112.882 19.659 113.724 19.995 114.727 19.995C115.722 19.995 116.571 19.659 117.255 18.9889C117.945 18.3188 118.295 17.4582 118.295 16.4148C118.295 15.3713 117.945 14.5108 117.255 13.8406C116.571 13.1705 115.722 12.8345 114.727 12.8345C113.724 12.8345 112.882 13.1705 112.19 13.8406C111.501 14.5108 111.151 15.3713 111.151 16.4148C111.151 17.4582 111.501 18.3188 112.19 18.9889Z" fill="white" stroke="white" stroke-opacity="0.12" stroke-miterlimit="10"/>
<path d="M121.202 20.8909V11.9384H122.66L127.192 18.901H127.244L127.192 17.18V11.9384H128.391V20.8909H127.139L122.394 13.5848H122.341L122.394 15.3133V20.8909H121.202Z" fill="white" stroke="white" stroke-opacity="0.12" stroke-miterlimit="10"/>
<mask id="path-17-inside-2_73_11611" fill="white">
<path d="M109.632 33.965C105.98 33.965 102.997 36.6344 102.997 40.3173C102.997 43.9704 105.98 46.6677 109.632 46.6677C113.291 46.6677 116.275 43.9704 116.275 40.3173C116.275 36.6344 113.291 33.965 109.632 33.965ZM109.632 44.1664C107.628 44.1664 105.904 42.5778 105.904 40.3173C105.904 38.0269 107.628 36.4664 109.632 36.4664C111.636 36.4664 113.367 38.0269 113.367 40.3173C113.367 42.5778 111.636 44.1664 109.632 44.1664ZM95.1548 33.965C91.4952 33.965 88.5198 36.6344 88.5198 40.3173C88.5198 43.9704 91.4952 46.6677 95.1548 46.6677C98.8125 46.6677 101.79 43.9704 101.79 40.3173C101.79 36.6344 98.8125 33.965 95.1548 33.965ZM95.1548 44.1664C93.1491 44.1664 91.4194 42.5778 91.4194 40.3173C91.4194 38.0269 93.1491 36.4664 95.1548 36.4664C97.1586 36.4664 98.8824 38.0269 98.8824 40.3173C98.8824 42.5778 97.1586 44.1664 95.1548 44.1664ZM77.9278 35.912V38.6112H84.6386C84.4423 40.1194 83.9176 41.2282 83.113 42.001C82.1335 42.9344 80.6078 43.9704 77.9278 43.9704C73.7979 43.9704 70.5639 40.769 70.5639 36.8024C70.5639 32.8357 73.7979 29.6344 77.9278 29.6344C80.1608 29.6344 81.7856 30.4725 82.9847 31.5589L84.9651 29.6568C83.2879 28.1186 81.0568 26.937 77.9278 26.937C72.2645 26.937 67.5049 31.3629 67.5049 36.8024C67.5049 42.2418 72.2645 46.6677 77.9278 46.6677C80.9888 46.6677 83.2879 45.7045 85.0954 43.8976C86.9475 42.1186 87.5247 39.6173 87.5247 37.5976C87.5247 36.9704 87.4703 36.3936 87.3731 35.912H77.9278ZM148.371 38.0045C147.825 36.584 146.14 33.965 142.708 33.965C139.307 33.965 136.475 36.5392 136.475 40.3173C136.475 43.8752 139.278 46.6677 143.034 46.6677C146.072 46.6677 147.825 44.8888 148.546 43.8528L146.292 42.4098C145.54 43.4664 144.515 44.1664 143.034 44.1664C141.563 44.1664 140.508 43.5186 139.832 42.2418L148.676 38.7269L148.371 38.0045ZM139.354 40.1194C139.278 37.6704 141.334 36.416 142.807 36.416C143.962 36.416 144.941 36.9704 145.268 37.7637L139.354 40.1194ZM132.165 46.2813H135.072V27.6146H132.165V46.2813ZM127.403 35.38H127.306C126.653 34.637 125.407 33.965 123.829 33.965C120.517 33.965 117.489 36.7576 117.489 40.3378C117.489 43.8976 120.517 46.6677 123.829 46.6677C125.407 46.6677 126.653 45.9901 127.306 45.2248H127.403V46.1357C127.403 48.5642 126.052 49.869 123.874 49.869C122.097 49.869 120.995 48.637 120.541 47.601L118.012 48.6146C118.741 50.2984 120.671 52.3704 123.874 52.3704C127.283 52.3704 130.159 50.444 130.159 45.7568V34.3514H127.403V35.38ZM124.078 44.1664C122.074 44.1664 120.397 42.5554 120.397 40.3378C120.397 38.0997 122.074 36.4664 124.078 36.4664C126.052 36.4664 127.609 38.0997 127.609 40.3378C127.609 42.5554 126.052 44.1664 124.078 44.1664ZM161.983 27.6146H155.03V46.2813H157.929V39.2085H161.983C165.204 39.2085 168.362 36.9704 168.362 33.4106C168.362 29.8528 165.196 27.6146 161.983 27.6146ZM162.059 36.612H157.929V30.2112H162.059C164.224 30.2112 165.46 31.9378 165.46 33.4106C165.46 34.8554 164.224 36.612 162.059 36.612ZM179.984 33.9296C177.889 33.9296 175.71 34.8181 174.814 36.7874L177.388 37.8234C177.941 36.7874 178.96 36.4514 180.036 36.4514C181.541 36.4514 183.066 37.3194 183.09 38.852V39.048C182.565 38.7568 181.442 38.3256 180.06 38.3256C177.288 38.3256 174.465 39.7909 174.465 42.5256C174.465 45.0269 176.734 46.6378 179.286 46.6378C181.238 46.6378 182.314 45.7922 182.991 44.8085H183.09V46.2514H185.89V39.0909C185.89 35.7813 183.317 33.9296 179.984 33.9296ZM179.634 44.1589C178.686 44.1589 177.364 43.7072 177.364 42.5778C177.364 41.133 179.012 40.5786 180.439 40.5786C181.716 40.5786 182.314 40.8493 183.09 41.2058C182.862 42.9344 181.313 44.1589 179.634 44.1589ZM196.094 34.3384L192.76 42.4304H192.661L189.216 34.3384H186.088L191.266 45.6466L188.312 51.9392H191.342L199.32 34.3384H196.094ZM169.956 46.2813H172.863V27.6146H169.956V46.2813Z"/>
</mask>
<path d="M109.632 33.965C105.98 33.965 102.997 36.6344 102.997 40.3173C102.997 43.9704 105.98 46.6677 109.632 46.6677C113.291 46.6677 116.275 43.9704 116.275 40.3173C116.275 36.6344 113.291 33.965 109.632 33.965ZM109.632 44.1664C107.628 44.1664 105.904 42.5778 105.904 40.3173C105.904 38.0269 107.628 36.4664 109.632 36.4664C111.636 36.4664 113.367 38.0269 113.367 40.3173C113.367 42.5778 111.636 44.1664 109.632 44.1664ZM95.1548 33.965C91.4952 33.965 88.5198 36.6344 88.5198 40.3173C88.5198 43.9704 91.4952 46.6677 95.1548 46.6677C98.8125 46.6677 101.79 43.9704 101.79 40.3173C101.79 36.6344 98.8125 33.965 95.1548 33.965ZM95.1548 44.1664C93.1491 44.1664 91.4194 42.5778 91.4194 40.3173C91.4194 38.0269 93.1491 36.4664 95.1548 36.4664C97.1586 36.4664 98.8824 38.0269 98.8824 40.3173C98.8824 42.5778 97.1586 44.1664 95.1548 44.1664ZM77.9278 35.912V38.6112H84.6386C84.4423 40.1194 83.9176 41.2282 83.113 42.001C82.1335 42.9344 80.6078 43.9704 77.9278 43.9704C73.7979 43.9704 70.5639 40.769 70.5639 36.8024C70.5639 32.8357 73.7979 29.6344 77.9278 29.6344C80.1608 29.6344 81.7856 30.4725 82.9847 31.5589L84.9651 29.6568C83.2879 28.1186 81.0568 26.937 77.9278 26.937C72.2645 26.937 67.5049 31.3629 67.5049 36.8024C67.5049 42.2418 72.2645 46.6677 77.9278 46.6677C80.9888 46.6677 83.2879 45.7045 85.0954 43.8976C86.9475 42.1186 87.5247 39.6173 87.5247 37.5976C87.5247 36.9704 87.4703 36.3936 87.3731 35.912H77.9278ZM148.371 38.0045C147.825 36.584 146.14 33.965 142.708 33.965C139.307 33.965 136.475 36.5392 136.475 40.3173C136.475 43.8752 139.278 46.6677 143.034 46.6677C146.072 46.6677 147.825 44.8888 148.546 43.8528L146.292 42.4098C145.54 43.4664 144.515 44.1664 143.034 44.1664C141.563 44.1664 140.508 43.5186 139.832 42.2418L148.676 38.7269L148.371 38.0045ZM139.354 40.1194C139.278 37.6704 141.334 36.416 142.807 36.416C143.962 36.416 144.941 36.9704 145.268 37.7637L139.354 40.1194ZM132.165 46.2813H135.072V27.6146H132.165V46.2813ZM127.403 35.38H127.306C126.653 34.637 125.407 33.965 123.829 33.965C120.517 33.965 117.489 36.7576 117.489 40.3378C117.489 43.8976 120.517 46.6677 123.829 46.6677C125.407 46.6677 126.653 45.9901 127.306 45.2248H127.403V46.1357C127.403 48.5642 126.052 49.869 123.874 49.869C122.097 49.869 120.995 48.637 120.541 47.601L118.012 48.6146C118.741 50.2984 120.671 52.3704 123.874 52.3704C127.283 52.3704 130.159 50.444 130.159 45.7568V34.3514H127.403V35.38ZM124.078 44.1664C122.074 44.1664 120.397 42.5554 120.397 40.3378C120.397 38.0997 122.074 36.4664 124.078 36.4664C126.052 36.4664 127.609 38.0997 127.609 40.3378C127.609 42.5554 126.052 44.1664 124.078 44.1664ZM161.983 27.6146H155.03V46.2813H157.929V39.2085H161.983C165.204 39.2085 168.362 36.9704 168.362 33.4106C168.362 29.8528 165.196 27.6146 161.983 27.6146ZM162.059 36.612H157.929V30.2112H162.059C164.224 30.2112 165.46 31.9378 165.46 33.4106C165.46 34.8554 164.224 36.612 162.059 36.612ZM179.984 33.9296C177.889 33.9296 175.71 34.8181 174.814 36.7874L177.388 37.8234C177.941 36.7874 178.96 36.4514 180.036 36.4514C181.541 36.4514 183.066 37.3194 183.09 38.852V39.048C182.565 38.7568 181.442 38.3256 180.06 38.3256C177.288 38.3256 174.465 39.7909 174.465 42.5256C174.465 45.0269 176.734 46.6378 179.286 46.6378C181.238 46.6378 182.314 45.7922 182.991 44.8085H183.09V46.2514H185.89V39.0909C185.89 35.7813 183.317 33.9296 179.984 33.9296ZM179.634 44.1589C178.686 44.1589 177.364 43.7072 177.364 42.5778C177.364 41.133 179.012 40.5786 180.439 40.5786C181.716 40.5786 182.314 40.8493 183.09 41.2058C182.862 42.9344 181.313 44.1589 179.634 44.1589ZM196.094 34.3384L192.76 42.4304H192.661L189.216 34.3384H186.088L191.266 45.6466L188.312 51.9392H191.342L199.32 34.3384H196.094ZM169.956 46.2813H172.863V27.6146H169.956V46.2813Z" fill="white" stroke="white" stroke-opacity="0.12" stroke-width="2" mask="url(#path-17-inside-2_73_11611)"/>
<defs>
<linearGradient id="paint0_linear_73_11611" x1="37.5885" y1="48.2031" x2="12.5471" y2="22.1312" gradientUnits="userSpaceOnUse">
<stop stop-color="#00A0FF"/>
<stop offset="0.0066" stop-color="#00A1FF"/>
<stop offset="0.2601" stop-color="#00BEFF"/>
<stop offset="0.5122" stop-color="#00D2FF"/>
<stop offset="0.7604" stop-color="#00DFFF"/>
<stop offset="1" stop-color="#00E3FF"/>
</linearGradient>
<linearGradient id="paint1_linear_73_11611" x1="56.299" y1="31.341" x2="18.678" y2="31.341" gradientUnits="userSpaceOnUse">
<stop stop-color="#FFE000"/>
<stop offset="0.4087" stop-color="#FFBD00"/>
<stop offset="0.7754" stop-color="#FFA500"/>
<stop offset="1" stop-color="#FF9C00"/>
</linearGradient>
<linearGradient id="paint2_linear_73_11611" x1="42.295" y1="27.9142" x2="8.33686" y2="-7.44137" gradientUnits="userSpaceOnUse">
<stop stop-color="#FF3A44"/>
<stop offset="1" stop-color="#C31162"/>
</linearGradient>
<linearGradient id="paint3_linear_73_11611" x1="15.04" y1="60.9464" x2="30.2038" y2="45.1587" gradientUnits="userSpaceOnUse">
<stop stop-color="#32A071"/>
<stop offset="0.0685" stop-color="#2DA771"/>
<stop offset="0.4762" stop-color="#15CF74"/>
<stop offset="0.8009" stop-color="#06E775"/>
<stop offset="1" stop-color="#00F076"/>
</linearGradient>
</defs>
</svg>
