<svg width="684" height="550" viewBox="0 0 684 550" fill="none" xmlns="http://www.w3.org/2000/svg">
<path d="M535.945 57.7099C423.578 78.9679 341.571 0 341.571 0C341.571 0 259.578 78.9679 147.197 57.7099C147.197 57.7099 87.2012 350.804 341.571 500C595.954 350.791 535.945 57.7099 535.945 57.7099Z" fill="url(#paint0_linear_73_11128)"/>
<g filter="url(#filter0_ddddddf_73_11128)">
<path d="M179.554 401.618C149.673 458.65 178.013 477.563 234.801 463.531C275.298 453.219 313.08 434.306 349.275 413.744C373.421 399.864 396.773 384.611 419.424 368.412C480.528 324.208 558.914 258.467 593.432 191.033C600.235 176.268 607.877 156.302 596.193 142.147C589.054 134.276 577.813 132.263 567.593 131.958C577.874 132.019 589.329 133.834 596.681 141.72C626.714 177.473 543.798 265.667 517.807 290.53C477.691 329.471 433.442 364.08 386.508 394.403C351.182 416.932 314.407 437.539 275.267 452.762C262.21 457.78 248.91 462.219 235.243 465.391C221.591 468.473 207.452 470.73 193.449 468.823C154.95 463.088 165.551 426.115 179.554 401.618Z" fill="#6DFFD5"/>
</g>
<g filter="url(#filter1_ddddddf_73_11128)">
<path d="M503.592 401.618C517.503 425.946 528.302 463.088 489.697 468.823C475.694 470.73 461.555 468.487 447.903 465.391C434.252 462.218 420.936 457.764 407.879 452.761C368.739 437.539 331.979 416.932 296.638 394.403C249.704 364.08 205.439 329.47 165.339 290.529C136.922 262.677 70.6779 192.314 81.2941 150.902C85.4277 136.213 101.947 131.729 115.553 131.957C105.333 132.263 94.0915 134.276 86.9378 142.147C75.2386 156.301 82.9414 176.298 89.6986 191.033C101.932 216.048 119.625 237.982 138.112 258.65C156.843 279.242 176.916 298.628 197.996 316.825C266.65 375.352 360.762 440.132 448.33 463.53C504.462 477.426 533.717 459.152 503.577 401.618H503.592Z" fill="#6DFFD5"/>
</g>
<path d="M179.554 401.618C149.673 458.65 178.013 477.563 234.801 463.531C275.298 453.219 313.08 434.306 349.275 413.744C373.421 399.864 396.773 384.611 419.424 368.412C480.528 324.208 558.914 258.467 593.432 191.033C600.235 176.268 607.877 156.302 596.193 142.147C589.054 134.276 577.813 132.263 567.593 131.958C577.874 132.019 589.329 133.834 596.681 141.72C626.714 177.473 543.798 265.667 517.807 290.53C477.691 329.471 433.442 364.08 386.508 394.403C351.182 416.932 314.407 437.539 275.267 452.762C262.21 457.78 248.91 462.219 235.243 465.391C221.591 468.473 207.452 470.73 193.449 468.823C154.95 463.088 165.551 426.115 179.554 401.618Z" fill="url(#paint1_radial_73_11128)"/>
<path d="M503.592 401.618C533.473 458.65 505.132 477.563 448.345 463.531C407.848 453.219 370.066 434.306 333.87 413.744C309.725 399.864 286.372 384.611 263.721 368.412C202.617 324.208 124.231 258.467 89.7134 191.033C82.9105 176.268 75.2687 156.302 86.9526 142.147C94.091 134.276 105.333 132.263 115.552 131.958C105.272 132.019 93.8165 133.834 86.4645 141.72C56.4311 177.473 139.347 265.667 165.338 290.53C205.454 329.471 249.703 364.08 296.637 394.403C331.964 416.932 368.739 437.539 407.878 452.762C420.935 457.78 434.236 462.219 447.903 465.391C461.554 468.473 475.694 470.73 489.696 468.823C528.195 463.088 517.594 426.115 503.592 401.618Z" fill="url(#paint2_radial_73_11128)"/>
<path d="M179.554 401.618C149.673 458.65 178.013 477.563 234.801 463.531C275.298 453.219 313.08 434.306 349.275 413.744C373.421 399.864 396.773 384.611 419.424 368.412C480.528 324.208 558.914 258.467 593.432 191.033C600.235 176.268 607.877 156.302 596.193 142.147C589.054 134.276 577.813 132.263 567.593 131.958C577.874 132.019 589.329 133.834 596.681 141.72C626.714 177.473 543.798 265.667 517.807 290.53C477.691 329.471 433.442 364.08 386.508 394.403C351.182 416.932 314.407 437.539 275.267 452.762C262.21 457.78 248.91 462.219 235.243 465.391C221.591 468.473 207.452 470.73 193.449 468.823C154.95 463.088 165.551 426.115 179.554 401.618Z" fill="url(#paint3_radial_73_11128)"/>
<path d="M503.592 401.618C533.473 458.65 505.132 477.563 448.345 463.531C407.848 453.219 370.066 434.306 333.87 413.744C309.725 399.864 286.372 384.611 263.721 368.412C202.617 324.208 124.231 258.467 89.7134 191.033C82.9105 176.268 75.2687 156.302 86.9526 142.147C94.091 134.276 105.333 132.263 115.552 131.958C105.272 132.019 93.8165 133.834 86.4645 141.72C56.4311 177.473 139.347 265.667 165.338 290.53C205.454 329.471 249.703 364.08 296.637 394.403C331.964 416.932 368.739 437.539 407.878 452.762C420.935 457.78 434.236 462.219 447.903 465.391C461.554 468.473 475.694 470.73 489.696 468.823C528.195 463.088 517.594 426.115 503.592 401.618Z" fill="url(#paint4_radial_73_11128)"/>
<path d="M179.554 401.618C149.673 458.65 178.013 477.563 234.801 463.531C275.298 453.219 313.08 434.306 349.275 413.744C373.421 399.864 396.773 384.611 419.424 368.412C480.528 324.208 558.914 258.467 593.432 191.033C600.235 176.268 607.877 156.302 596.193 142.147C589.054 134.276 577.813 132.263 567.593 131.958C577.874 132.019 589.329 133.834 596.681 141.72C626.714 177.473 543.798 265.667 517.807 290.53C477.691 329.471 433.442 364.08 386.508 394.403C351.182 416.932 314.407 437.539 275.267 452.762C262.21 457.78 248.91 462.219 235.243 465.391C221.591 468.473 207.452 470.73 193.449 468.823C154.95 463.088 165.551 426.115 179.554 401.618Z" fill="url(#paint5_radial_73_11128)"/>
<path d="M503.592 401.618C533.473 458.65 505.132 477.563 448.345 463.531C407.848 453.219 370.066 434.306 333.87 413.744C309.725 399.864 286.372 384.611 263.721 368.412C202.617 324.208 124.231 258.467 89.7134 191.033C82.9105 176.268 75.2687 156.302 86.9526 142.147C94.091 134.276 105.333 132.263 115.552 131.958C105.272 132.019 93.8165 133.834 86.4645 141.72C56.4311 177.473 139.347 265.667 165.338 290.53C205.454 329.471 249.703 364.08 296.637 394.403C331.964 416.932 368.739 437.539 407.878 452.762C420.935 457.78 434.236 462.219 447.903 465.391C461.554 468.473 475.694 470.73 489.696 468.823C528.195 463.088 517.594 426.115 503.592 401.618Z" fill="url(#paint6_radial_73_11128)"/>
<defs>
<filter id="filter0_ddddddf_73_11128" x="86.7939" y="51.958" width="596.352" height="497.567" filterUnits="userSpaceOnUse" color-interpolation-filters="sRGB">
<feFlood flood-opacity="0" result="BackgroundImageFix"/>
<feColorMatrix in="SourceAlpha" type="matrix" values="0 0 0 0 0 0 0 0 0 0 0 0 0 0 0 0 0 0 127 0" result="hardAlpha"/>
<feOffset/>
<feGaussianBlur stdDeviation="40"/>
<feColorMatrix type="matrix" values="0 0 0 0 0.429167 0 0 0 0 1 0 0 0 0 0.834618 0 0 0 1 0"/>
<feBlend mode="normal" in2="BackgroundImageFix" result="effect1_dropShadow_73_11128"/>
<feColorMatrix in="SourceAlpha" type="matrix" values="0 0 0 0 0 0 0 0 0 0 0 0 0 0 0 0 0 0 127 0" result="hardAlpha"/>
<feOffset/>
<feGaussianBlur stdDeviation="22"/>
<feColorMatrix type="matrix" values="0 0 0 0 0.429167 0 0 0 0 1 0 0 0 0 0.834618 0 0 0 1 0"/>
<feBlend mode="normal" in2="effect1_dropShadow_73_11128" result="effect2_dropShadow_73_11128"/>
<feColorMatrix in="SourceAlpha" type="matrix" values="0 0 0 0 0 0 0 0 0 0 0 0 0 0 0 0 0 0 127 0" result="hardAlpha"/>
<feOffset/>
<feGaussianBlur stdDeviation="10"/>
<feColorMatrix type="matrix" values="0 0 0 0 1 0 0 0 0 1 0 0 0 0 1 0 0 0 1 0"/>
<feBlend mode="normal" in2="effect2_dropShadow_73_11128" result="effect3_dropShadow_73_11128"/>
<feColorMatrix in="SourceAlpha" type="matrix" values="0 0 0 0 0 0 0 0 0 0 0 0 0 0 0 0 0 0 127 0" result="hardAlpha"/>
<feOffset/>
<feGaussianBlur stdDeviation="2"/>
<feColorMatrix type="matrix" values="0 0 0 0 1 0 0 0 0 1 0 0 0 0 1 0 0 0 1 0"/>
<feBlend mode="normal" in2="effect3_dropShadow_73_11128" result="effect4_dropShadow_73_11128"/>
<feColorMatrix in="SourceAlpha" type="matrix" values="0 0 0 0 0 0 0 0 0 0 0 0 0 0 0 0 0 0 127 0" result="hardAlpha"/>
<feOffset/>
<feGaussianBlur stdDeviation="10"/>
<feColorMatrix type="matrix" values="0 0 0 0 1 0 0 0 0 1 0 0 0 0 1 0 0 0 1 0"/>
<feBlend mode="normal" in2="effect4_dropShadow_73_11128" result="effect5_dropShadow_73_11128"/>
<feColorMatrix in="SourceAlpha" type="matrix" values="0 0 0 0 0 0 0 0 0 0 0 0 0 0 0 0 0 0 127 0" result="hardAlpha"/>
<feOffset/>
<feGaussianBlur stdDeviation="1"/>
<feColorMatrix type="matrix" values="0 0 0 0 1 0 0 0 0 1 0 0 0 0 1 0 0 0 1 0"/>
<feBlend mode="normal" in2="effect5_dropShadow_73_11128" result="effect6_dropShadow_73_11128"/>
<feBlend mode="normal" in="SourceGraphic" in2="effect6_dropShadow_73_11128" result="shape"/>
<feGaussianBlur stdDeviation="6" result="effect7_foregroundBlur_73_11128"/>
</filter>
<filter id="filter1_ddddddf_73_11128" x="0.15332" y="51.9492" width="596.202" height="497.578" filterUnits="userSpaceOnUse" color-interpolation-filters="sRGB">
<feFlood flood-opacity="0" result="BackgroundImageFix"/>
<feColorMatrix in="SourceAlpha" type="matrix" values="0 0 0 0 0 0 0 0 0 0 0 0 0 0 0 0 0 0 127 0" result="hardAlpha"/>
<feOffset/>
<feGaussianBlur stdDeviation="40"/>
<feColorMatrix type="matrix" values="0 0 0 0 0.429167 0 0 0 0 1 0 0 0 0 0.834618 0 0 0 1 0"/>
<feBlend mode="normal" in2="BackgroundImageFix" result="effect1_dropShadow_73_11128"/>
<feColorMatrix in="SourceAlpha" type="matrix" values="0 0 0 0 0 0 0 0 0 0 0 0 0 0 0 0 0 0 127 0" result="hardAlpha"/>
<feOffset/>
<feGaussianBlur stdDeviation="22"/>
<feColorMatrix type="matrix" values="0 0 0 0 0.429167 0 0 0 0 1 0 0 0 0 0.834618 0 0 0 1 0"/>
<feBlend mode="normal" in2="effect1_dropShadow_73_11128" result="effect2_dropShadow_73_11128"/>
<feColorMatrix in="SourceAlpha" type="matrix" values="0 0 0 0 0 0 0 0 0 0 0 0 0 0 0 0 0 0 127 0" result="hardAlpha"/>
<feOffset/>
<feGaussianBlur stdDeviation="10"/>
<feColorMatrix type="matrix" values="0 0 0 0 1 0 0 0 0 1 0 0 0 0 1 0 0 0 1 0"/>
<feBlend mode="normal" in2="effect2_dropShadow_73_11128" result="effect3_dropShadow_73_11128"/>
<feColorMatrix in="SourceAlpha" type="matrix" values="0 0 0 0 0 0 0 0 0 0 0 0 0 0 0 0 0 0 127 0" result="hardAlpha"/>
<feOffset/>
<feGaussianBlur stdDeviation="2"/>
<feColorMatrix type="matrix" values="0 0 0 0 1 0 0 0 0 1 0 0 0 0 1 0 0 0 1 0"/>
<feBlend mode="normal" in2="effect3_dropShadow_73_11128" result="effect4_dropShadow_73_11128"/>
<feColorMatrix in="SourceAlpha" type="matrix" values="0 0 0 0 0 0 0 0 0 0 0 0 0 0 0 0 0 0 127 0" result="hardAlpha"/>
<feOffset/>
<feGaussianBlur stdDeviation="10"/>
<feColorMatrix type="matrix" values="0 0 0 0 1 0 0 0 0 1 0 0 0 0 1 0 0 0 1 0"/>
<feBlend mode="normal" in2="effect4_dropShadow_73_11128" result="effect5_dropShadow_73_11128"/>
<feColorMatrix in="SourceAlpha" type="matrix" values="0 0 0 0 0 0 0 0 0 0 0 0 0 0 0 0 0 0 127 0" result="hardAlpha"/>
<feOffset/>
<feGaussianBlur stdDeviation="1"/>
<feColorMatrix type="matrix" values="0 0 0 0 1 0 0 0 0 1 0 0 0 0 1 0 0 0 1 0"/>
<feBlend mode="normal" in2="effect5_dropShadow_73_11128" result="effect6_dropShadow_73_11128"/>
<feBlend mode="normal" in="SourceGraphic" in2="effect6_dropShadow_73_11128" result="shape"/>
<feGaussianBlur stdDeviation="6" result="effect7_foregroundBlur_73_11128"/>
</filter>
<linearGradient id="paint0_linear_73_11128" x1="341.563" y1="-338.998" x2="341.563" y2="871.634" gradientUnits="userSpaceOnUse">
<stop stop-color="#6DFFD5"/>
<stop offset="0.519803" stop-color="#1D1B25" stop-opacity="0"/>
</linearGradient>
<radialGradient id="paint1_radial_73_11128" cx="0" cy="0" r="1" gradientUnits="userSpaceOnUse" gradientTransform="translate(404.519 286.882) rotate(45) scale(221.1 285.802)">
<stop stop-color="#6DFFD5"/>
<stop offset="1" stop-color="#6DFFD5" stop-opacity="0"/>
</radialGradient>
<radialGradient id="paint2_radial_73_11128" cx="0" cy="0" r="1" gradientUnits="userSpaceOnUse" gradientTransform="translate(278.626 286.882) rotate(135) scale(221.1 285.802)">
<stop stop-color="#6DFFD5"/>
<stop offset="1" stop-color="#6DFFD5" stop-opacity="0"/>
</radialGradient>
<radialGradient id="paint3_radial_73_11128" cx="0" cy="0" r="1" gradientUnits="userSpaceOnUse" gradientTransform="translate(404.519 286.882) rotate(45) scale(221.1 285.802)">
<stop stop-color="#6DFFD5"/>
<stop offset="1" stop-color="#6DFFD5" stop-opacity="0"/>
</radialGradient>
<radialGradient id="paint4_radial_73_11128" cx="0" cy="0" r="1" gradientUnits="userSpaceOnUse" gradientTransform="translate(278.626 286.882) rotate(135) scale(221.1 285.802)">
<stop stop-color="#6DFFD5"/>
<stop offset="1" stop-color="#6DFFD5" stop-opacity="0"/>
</radialGradient>
<radialGradient id="paint5_radial_73_11128" cx="0" cy="0" r="1" gradientUnits="userSpaceOnUse" gradientTransform="translate(404.519 286.882) rotate(45) scale(221.1 285.802)">
<stop stop-color="#6DFFD5"/>
<stop offset="1" stop-color="#6DFFD5" stop-opacity="0"/>
</radialGradient>
<radialGradient id="paint6_radial_73_11128" cx="0" cy="0" r="1" gradientUnits="userSpaceOnUse" gradientTransform="translate(278.626 286.882) rotate(135) scale(221.1 285.802)">
<stop stop-color="#6DFFD5"/>
<stop offset="1" stop-color="#6DFFD5" stop-opacity="0"/>
</radialGradient>
</defs>
</svg>
