<svg width="219" height="64" viewBox="0 0 219 64" fill="none" xmlns="http://www.w3.org/2000/svg">
<path d="M1.1001 11.4286C1.1001 5.36942 5.77027 0.5 11.4801 0.5H207.32C213.03 0.5 217.7 5.36943 217.7 11.4286V52.5714C217.7 58.6306 213.03 63.5 207.32 63.5H11.4801C5.77028 63.5 1.1001 58.6306 1.1001 52.5714V11.4286Z" stroke="white" stroke-opacity="0.12"/>
<path d="M50.2721 30.9268C50.2265 26.1138 54.4238 23.7722 54.6158 23.6632C52.2386 20.3734 48.5541 19.9239 47.2594 19.8881C44.1648 19.579 41.1631 21.6457 39.5868 21.6457C37.9789 21.6457 35.5514 19.9179 32.9352 19.9687C29.5685 20.018 26.4189 21.8682 24.6915 24.7414C21.1265 30.5998 23.7853 39.2088 27.2008 43.9442C28.9093 46.2633 30.9057 48.8528 33.5188 48.7617C36.0753 48.6616 37.0303 47.2146 40.1154 47.2146C43.1721 47.2146 44.0689 48.7617 46.7339 48.7034C49.4776 48.6616 51.205 46.3738 52.8538 44.0338C54.8281 41.3757 55.6211 38.7578 55.6525 38.6234C55.588 38.6025 50.324 36.6955 50.2721 30.9268Z" fill="white"/>
<path d="M45.2378 16.773C46.6128 15.1408 47.5536 12.9202 47.2924 10.6667C45.3023 10.7504 42.8134 11.9734 41.3802 13.5698C40.1122 14.9765 38.9795 17.2822 39.2721 19.4505C41.5077 19.6088 43.803 18.3798 45.2378 16.773Z" fill="white"/>
<path d="M47.2097 20.3856L47.2276 20.3874L47.2455 20.3879C48.4264 20.4206 51.6441 20.8158 53.8828 23.5316C52.6876 24.339 49.7325 26.7534 49.7721 30.9315C49.7997 33.9875 51.2144 36.0313 52.6227 37.3018C53.5584 38.1461 54.4959 38.6544 55.0364 38.9056C55.0277 38.9304 55.0185 38.9562 55.0089 38.983C54.9032 39.278 54.7441 39.689 54.5253 40.178C54.0872 41.1573 53.4127 42.4427 52.4524 43.7356L52.4522 43.7356L52.445 43.7458C51.6175 44.9202 50.8041 46.0306 49.8727 46.8563C48.9524 47.6723 47.9449 48.1849 46.7263 48.2035L46.723 48.2036C45.5221 48.2298 44.723 47.9069 43.8023 47.5348L43.7588 47.5173C42.805 47.132 41.7432 46.7146 40.1154 46.7146C38.4801 46.7146 37.4013 47.1025 36.4346 47.4858C36.3679 47.5122 36.3021 47.5385 36.2368 47.5646C35.3643 47.9127 34.5964 48.219 33.4998 48.262C32.3758 48.3007 31.345 47.767 30.3532 46.8834C29.3592 45.9979 28.4622 44.8134 27.6049 43.6497C25.9399 41.3407 24.4521 38.0739 23.8201 34.6726C23.1873 31.2673 23.4223 27.7889 25.1186 25.0013L25.12 24.999C26.7601 22.2711 29.752 20.5154 32.9425 20.4687L32.9449 20.4686C34.149 20.4453 35.3311 20.8317 36.4636 21.2563C36.6081 21.3106 36.753 21.3658 36.8972 21.4208C37.3044 21.5762 37.7067 21.7296 38.0821 21.8519C38.5907 22.0177 39.1044 22.1457 39.5868 22.1457C40.0712 22.1457 40.6234 21.9905 41.1775 21.8006C41.482 21.6963 41.8257 21.567 42.1799 21.4337C42.4589 21.3287 42.7443 21.2213 43.0224 21.1217C44.3454 20.6477 45.78 20.2428 47.2097 20.3856ZM41.7516 13.9046L41.7523 13.9038C42.9884 12.527 45.0738 11.443 46.8321 11.2091C46.8991 13.1237 46.0681 15.009 44.86 16.4453C43.5926 17.862 41.6398 18.9387 39.7304 18.9638C39.6491 17.111 40.6263 15.153 41.7516 13.9046Z" stroke="white" stroke-opacity="0.12"/>
<path d="M80.0439 16.3296C80.0439 18.0873 79.4885 19.4104 78.3794 20.2989C77.3521 21.1187 75.8921 21.5294 74.0011 21.5294C73.0635 21.5294 72.2611 21.4906 71.5894 21.4129V11.8093C72.4656 11.6749 73.4096 11.6062 74.429 11.6062C76.2304 11.6062 77.5881 11.978 78.5037 12.7217C79.5294 13.5625 80.0439 14.7646 80.0439 16.3296ZM78.3055 16.3729C78.3055 15.2335 77.9877 14.3599 77.3521 13.7506C76.7165 13.1428 75.7883 12.8382 74.5659 12.8382C74.0467 12.8382 73.6047 12.8711 73.2381 12.9397V20.2407C73.441 20.2705 73.8123 20.284 74.3519 20.284C75.6137 20.284 76.5875 19.9509 77.2734 19.2849C77.9593 18.6189 78.3055 17.6482 78.3055 16.3729Z" fill="white"/>
<path d="M77.6981 13.3897L77.6976 13.3893C76.9381 12.6629 75.8667 12.3382 74.5659 12.3382C74.0281 12.3382 73.553 12.372 73.146 12.4483L72.7381 12.5247V12.9397V20.2407V20.6725L73.1653 20.7353C73.4099 20.7713 73.8168 20.784 74.3519 20.784C75.7008 20.784 76.8157 20.4263 77.6217 19.6436C78.4331 18.8558 78.8055 17.7377 78.8055 16.3729C78.8055 15.1392 78.4587 14.1188 77.6981 13.3897ZM79.5439 16.3296C79.5439 17.9746 79.03 19.1368 78.0672 19.9083C77.16 20.6322 75.8269 21.0294 74.0011 21.0294C73.2777 21.0294 72.6417 21.0059 72.0894 20.9599V12.2445C72.8177 12.1531 73.5959 12.1062 74.429 12.1062C76.1726 12.1062 77.3974 12.4678 78.1876 13.1092C79.0759 13.8377 79.5439 14.8854 79.5439 16.3296Z" stroke="white" stroke-opacity="0.12"/>
<path d="M89.2616 17.865C89.2616 18.9477 88.936 19.8347 88.2847 20.5306C87.6019 21.2459 86.6973 21.6028 85.5677 21.6028C84.479 21.6028 83.6122 21.2609 82.9656 20.5739C82.3206 19.8885 81.998 19.0239 81.998 17.9815C81.998 16.8914 82.33 15.9969 82.997 15.3025C83.6641 14.6081 84.5608 14.2601 85.6904 14.2601C86.7791 14.2601 87.6538 14.6021 88.3161 15.2875C88.9454 15.9536 89.2616 16.8137 89.2616 17.865ZM87.5515 17.9158C87.5515 17.2662 87.4037 16.7092 87.1095 16.2448C86.7633 15.6833 86.2709 15.4025 85.6306 15.4025C84.9683 15.4025 84.4649 15.6833 84.1188 16.2448C83.823 16.7092 83.6767 17.2752 83.6767 17.9442C83.6767 18.5938 83.8246 19.1508 84.1188 19.6152C84.4759 20.1767 84.973 20.4575 85.6149 20.4575C86.2442 20.4575 86.7382 20.1722 87.0937 19.6003C87.3989 19.1269 87.5515 18.5654 87.5515 17.9158Z" fill="white"/>
<path d="M87.9213 20.1872C88.4731 19.5967 88.7616 18.8381 88.7616 17.865C88.7616 16.9227 88.4822 16.1924 87.9546 15.633C87.4005 15.0606 86.6636 14.7601 85.6904 14.7601C84.6719 14.7601 83.9143 15.0693 83.3576 15.6489C82.7926 16.237 82.498 17.0011 82.498 17.9815C82.498 18.9115 82.7817 19.6489 83.3297 20.2312L87.9213 20.1872ZM87.9213 20.1872C87.3468 20.788 86.581 21.1028 85.5677 21.1028C84.5932 21.1028 83.8667 20.8018 83.3297 20.2313L87.9213 20.1872ZM83.6964 19.8828L83.6969 19.8836C84.1413 20.5823 84.7938 20.9575 85.6149 20.9575C86.4289 20.9575 87.0766 20.5727 87.5162 19.8678C87.8795 19.3026 88.0515 18.6449 88.0515 17.9158C88.0515 17.1896 87.8856 16.5369 87.5335 15.9798C87.0998 15.2779 86.45 14.9025 85.6306 14.9025C84.7967 14.9025 84.1326 15.2716 83.6951 15.9793C83.3391 16.5397 83.1767 17.2028 83.1767 17.9442C83.1767 18.6716 83.3431 19.3251 83.6964 19.8828Z" stroke="white" stroke-opacity="0.12"/>
<path d="M101.621 14.4032L99.3006 21.4428H97.7903L96.8291 18.3859C96.5852 17.6228 96.387 16.8642 96.2328 16.1116H96.2029C96.0597 16.8851 95.8615 17.6422 95.6067 18.3859L94.5856 21.4428H93.058L90.876 14.4032H92.5703L93.4089 17.7498C93.6118 18.5412 93.7786 19.2954 93.9123 20.0092H93.9422C94.0649 19.4208 94.2678 18.6711 94.5542 17.7647L95.6067 14.4047H96.9502L97.9586 17.693C98.2025 18.4949 98.4007 19.267 98.5533 20.0107H98.5989C98.7106 19.2864 98.879 18.5143 99.1024 17.693L100.002 14.4047H101.621V14.4032Z" fill="white"/>
<path d="M100.384 14.9047H100.929L98.9389 20.9428H98.1572L97.306 18.2359L97.306 18.2359L97.3053 18.2337C97.0668 17.4873 96.8731 16.746 96.7226 16.0112L96.6408 15.6116H96.2328H96.2029H95.787L95.7113 16.0206C95.5725 16.7702 95.3805 17.5035 95.1337 18.2238L95.1336 18.2238L95.1324 18.2275L94.2255 20.9428H93.4265L91.5544 14.9032H92.1802L92.9239 17.8713L92.9238 17.8713L92.9245 17.8739C93.1249 18.6553 93.2892 19.3987 93.4208 20.1012L93.4973 20.5092H93.9123H93.9422H94.3487L94.4317 20.1113C94.5497 19.5451 94.7475 18.8128 95.0309 17.9153L95.0313 17.9142L95.974 14.9047H96.5805L97.4803 17.8385C97.4803 17.8386 97.4803 17.8388 97.4804 17.8389C97.7202 18.6275 97.9144 19.3843 98.0635 20.1112L98.1455 20.5107H98.5533H98.5989H99.0277L99.0931 20.0869C99.2014 19.3843 99.3654 18.6309 99.5847 17.8246C99.5848 17.8245 99.5848 17.8244 99.5848 17.8242L100.384 14.9047Z" stroke="white" stroke-opacity="0.12"/>
<path d="M110.167 21.4427H108.518V17.4107C108.518 16.1682 108.021 15.547 107.024 15.547C106.534 15.547 106.14 15.7172 105.833 16.0592C105.529 16.4012 105.375 16.8044 105.375 17.2658V21.4412H103.726V16.4146C103.726 15.7964 103.706 15.1259 103.667 14.4001H105.115L105.193 15.5007H105.238C105.43 15.1587 105.716 14.8765 106.092 14.651C106.539 14.3882 107.039 14.2552 107.587 14.2552C108.279 14.2552 108.855 14.4673 109.313 14.8929C109.882 15.4141 110.167 16.1921 110.167 17.2255V21.4427Z" fill="white"/>
<path d="M109.667 17.2255V20.9427H109.018V17.4107C109.018 16.736 108.886 16.1373 108.535 15.7002C108.168 15.2419 107.632 15.047 107.024 15.047C106.699 15.047 106.398 15.108 106.127 15.2312C106.195 15.1789 106.268 15.1287 106.348 15.0809C106.713 14.8663 107.125 14.7552 107.587 14.7552C108.168 14.7552 108.618 14.9294 108.972 15.2591L108.972 15.2591L108.975 15.2618C109.409 15.6591 109.667 16.2826 109.667 17.2255ZM105.238 16.0007H105.248C105.002 16.3739 104.875 16.7999 104.875 17.2658V20.9412H104.226V16.4146C104.226 15.9391 104.214 15.4346 104.191 14.9001H104.649L104.694 15.5356L104.726 16.0007H105.193H105.238Z" stroke="white" stroke-opacity="0.12"/>
<path d="M114.714 21.4426H113.067V11.173H114.714V21.4426Z" fill="white"/>
<path d="M114.214 20.9426H113.567V11.673H114.214V20.9426Z" stroke="white" stroke-opacity="0.12"/>
<path d="M124.422 17.8649C124.422 18.9476 124.097 19.8346 123.445 20.5305C122.763 21.2458 121.856 21.6027 120.728 21.6027C119.638 21.6027 118.771 21.2608 118.126 20.5738C117.481 19.8884 117.159 19.0237 117.159 17.9814C117.159 16.8913 117.491 15.9968 118.158 15.3024C118.825 14.608 119.721 14.26 120.849 14.26C121.94 14.26 122.813 14.602 123.477 15.2874C124.106 15.9534 124.422 16.8136 124.422 17.8649ZM122.711 17.9157C122.711 17.2661 122.563 16.7091 122.269 16.2446C121.924 15.6832 121.43 15.4024 120.791 15.4024C120.127 15.4024 119.624 15.6832 119.279 16.2446C118.984 16.7091 118.837 17.275 118.837 17.9441C118.837 18.5937 118.985 19.1507 119.279 19.6151C119.637 20.1766 120.134 20.4573 120.776 20.4573C121.405 20.4573 121.897 20.1721 122.253 19.6002C122.56 19.1268 122.711 18.5653 122.711 17.9157Z" fill="white"/>
<path d="M118.491 20.2316L118.49 20.2312C117.942 19.6488 117.659 18.9114 117.659 17.9814C117.659 17.001 117.953 16.2369 118.518 15.6487C119.075 15.0691 119.833 14.76 120.849 14.76C121.824 14.76 122.56 15.0603 123.115 15.6331C123.643 16.1925 123.922 16.9227 123.922 17.8649C123.922 18.838 123.634 19.5966 123.082 20.1871C122.508 20.7879 121.74 21.1027 120.728 21.1027C119.752 21.1027 119.026 20.8015 118.491 20.2316ZM118.857 19.8827L118.858 19.8834C119.302 20.5821 119.954 20.9573 120.776 20.9573C121.59 20.9573 122.236 20.5723 122.675 19.8681C123.041 19.3019 123.211 18.6437 123.211 17.9157C123.211 17.1896 123.045 16.5371 122.693 15.9801C122.26 15.2774 121.608 14.9024 120.791 14.9024C119.956 14.9024 119.292 15.271 118.855 15.9796C118.5 16.5399 118.337 17.2029 118.337 17.9441C118.337 18.6714 118.504 19.325 118.857 19.8827Z" stroke="white" stroke-opacity="0.12"/>
<path d="M132.4 21.4429H130.919L130.797 20.6321H130.751C130.245 21.2787 129.522 21.6027 128.585 21.6027C127.885 21.6027 127.318 21.3892 126.892 20.9651C126.505 20.5798 126.312 20.1004 126.312 19.5315C126.312 18.6713 126.689 18.0157 127.449 17.5618C128.207 17.1078 129.274 16.8853 130.647 16.8957V16.7643C130.647 15.837 130.134 15.374 129.107 15.374C128.376 15.374 127.731 15.5488 127.174 15.8952L126.839 14.8678C127.528 14.4631 128.379 14.26 129.382 14.26C131.321 14.26 132.293 15.2307 132.293 17.172V19.7644C132.293 20.4678 132.329 21.0278 132.4 21.4429ZM130.688 19.0237V17.9381C128.87 17.9082 127.96 18.3816 127.96 19.3568C127.96 19.7241 128.064 19.9989 128.276 20.1826C128.489 20.3662 128.759 20.4573 129.082 20.4573C129.444 20.4573 129.782 20.3483 130.09 20.1318C130.4 19.9138 130.591 19.6375 130.661 19.2985C130.679 19.2224 130.688 19.1298 130.688 19.0237Z" fill="white"/>
<path d="M131.836 20.9429H131.35L131.291 20.5572L131.227 20.1321H130.813C130.977 19.9218 131.092 19.6792 131.15 19.4048C131.177 19.2852 131.188 19.1558 131.188 19.0237V17.9381V17.4462L130.696 17.4382C129.759 17.4228 128.977 17.5329 128.412 17.827C128.121 17.9781 127.877 18.1836 127.707 18.4536C127.537 18.7251 127.46 19.0325 127.46 19.3568C127.46 19.8189 127.594 20.2535 127.949 20.5608C128.268 20.8359 128.661 20.9573 129.082 20.9573C129.292 20.9573 129.495 20.9287 129.691 20.8726C129.385 21.0242 129.02 21.1027 128.585 21.1027C127.994 21.1027 127.562 20.9264 127.245 20.6107C126.957 20.324 126.812 19.9743 126.812 19.5315C126.812 18.8528 127.092 18.3576 127.705 17.991L127.706 17.9908C128.353 17.6031 129.315 17.3856 130.644 17.3957L131.147 17.3996V16.8957V16.7643C131.147 16.2098 130.992 15.7061 130.598 15.3503C130.213 15.0033 129.686 14.874 129.107 14.874C128.519 14.874 127.97 14.9761 127.468 15.184L127.446 15.1184C127.979 14.8848 128.622 14.76 129.382 14.76C130.274 14.76 130.852 14.983 131.211 15.3416C131.57 15.7002 131.793 16.2786 131.793 17.172V19.7644C131.793 20.2054 131.807 20.5992 131.836 20.9429Z" stroke="white" stroke-opacity="0.12"/>
<path d="M141.769 21.4426H140.306L140.229 20.3122H140.184C139.716 21.1723 138.92 21.6024 137.802 21.6024C136.908 21.6024 136.164 21.2694 135.574 20.6034C134.984 19.9373 134.69 19.0727 134.69 18.0109C134.69 16.8715 135.009 15.9487 135.651 15.2438C136.273 14.5867 137.034 14.2582 137.94 14.2582C138.936 14.2582 139.633 14.5763 140.029 15.2139H140.061V11.173H141.711V19.5461C141.711 20.2315 141.73 20.8632 141.769 21.4426ZM140.061 18.4739V17.3001C140.061 17.097 140.045 16.9328 140.015 16.8073C139.922 16.431 139.723 16.1144 139.419 15.8591C139.112 15.6037 138.743 15.4753 138.316 15.4753C137.701 15.4753 137.22 15.7067 136.866 16.1712C136.515 16.6356 136.337 17.2284 136.337 17.9527C136.337 18.6486 136.505 19.2131 136.844 19.6476C137.201 20.1106 137.682 20.342 138.285 20.342C138.826 20.342 139.259 20.1494 139.587 19.7626C139.905 19.4057 140.061 18.9756 140.061 18.4739Z" fill="white"/>
<path d="M135.19 18.0109C135.19 16.9717 135.478 16.1785 136.018 15.5839C136.544 15.029 137.173 14.7582 137.94 14.7582C138.678 14.7582 139.15 14.9493 139.446 15.2691C139.108 15.072 138.727 14.9753 138.316 14.9753C137.554 14.9753 136.922 15.2724 136.468 15.8681L136.468 15.8681L136.467 15.8698C136.037 16.4393 135.837 17.145 135.837 17.9527C135.837 18.7293 136.026 19.4106 136.448 19.954C136.904 20.5437 137.534 20.842 138.285 20.842C138.675 20.842 139.032 20.7591 139.347 20.5917C138.982 20.9276 138.48 21.1024 137.802 21.1024C137.05 21.1024 136.443 20.8299 135.948 20.2718C135.455 19.7146 135.19 18.9758 135.19 18.0109ZM140.501 16.6876C140.409 16.3171 140.235 15.9909 139.987 15.7139H140.029H140.061H140.561V15.2139V11.673H141.211V19.5461C141.211 20.0371 141.221 20.5025 141.241 20.9426H140.773L140.728 20.2782L140.696 19.8122H140.229H140.184H140.178C140.436 19.4181 140.561 18.9665 140.561 18.4739V17.3001C140.561 17.0756 140.544 16.8688 140.502 16.6914L140.502 16.6914L140.501 16.6876Z" stroke="white" stroke-opacity="0.12"/>
<path d="M155.868 17.8649C155.868 18.9476 155.542 19.8346 154.891 20.5305C154.208 21.2458 153.305 21.6027 152.174 21.6027C151.087 21.6027 150.22 21.2608 149.572 20.5738C148.927 19.8884 148.604 19.0237 148.604 17.9814C148.604 16.8913 148.936 15.9968 149.603 15.3024C150.271 14.608 151.167 14.26 152.298 14.26C153.386 14.26 154.262 14.602 154.923 15.2874C155.552 15.9534 155.868 16.8136 155.868 17.8649ZM154.16 17.9157C154.16 17.2661 154.012 16.7091 153.717 16.2446C153.37 15.6832 152.879 15.4024 152.237 15.4024C151.576 15.4024 151.073 15.6832 150.725 16.2446C150.429 16.7091 150.283 17.275 150.283 17.9441C150.283 18.5937 150.431 19.1507 150.725 19.6151C151.082 20.1766 151.579 20.4573 152.221 20.4573C152.851 20.4573 153.346 20.1721 153.702 19.6002C154.005 19.1268 154.16 18.5653 154.16 17.9157Z" fill="white"/>
<path d="M150.303 19.8827L150.303 19.8834C150.748 20.5821 151.4 20.9573 152.221 20.9573C153.035 20.9573 153.685 20.5729 154.125 19.8671C154.485 19.303 154.66 18.646 154.66 17.9157C154.66 17.1892 154.494 16.5364 154.141 15.9792C153.706 15.2783 153.059 14.9024 152.237 14.9024C151.404 14.9024 150.741 15.2719 150.302 15.9787C149.946 16.5392 149.783 17.2025 149.783 17.9441C149.783 18.6714 149.95 19.325 150.303 19.8827ZM155.368 17.8649C155.368 18.838 155.08 19.5966 154.528 20.187C153.953 20.788 153.189 21.1027 152.174 21.1027C151.202 21.1027 150.475 20.8019 149.936 20.231C149.388 19.6487 149.104 18.9113 149.104 17.9814C149.104 17.001 149.399 16.2369 149.964 15.6487C150.521 15.0693 151.278 14.76 152.298 14.76C153.27 14.76 154.009 15.0607 154.561 15.6326C155.089 16.1921 155.368 16.9225 155.368 17.8649Z" stroke="white" stroke-opacity="0.12"/>
<path d="M164.736 21.4427H163.089V17.4107C163.089 16.1682 162.592 15.547 161.593 15.547C161.103 15.547 160.708 15.7172 160.403 16.0592C160.098 16.4012 159.945 16.8044 159.945 17.2658V21.4412H158.295V16.4146C158.295 15.7964 158.276 15.1259 158.237 14.4001H159.684L159.761 15.5007H159.807C160 15.1587 160.287 14.8765 160.661 14.651C161.11 14.3882 161.608 14.2552 162.157 14.2552C162.848 14.2552 163.424 14.4673 163.882 14.8929C164.453 15.4141 164.736 16.1921 164.736 17.2255V21.4427Z" fill="white"/>
<path d="M164.236 17.2255V20.9427H163.589V17.4107C163.589 16.736 163.456 16.1372 163.105 15.7C162.738 15.2418 162.202 15.047 161.593 15.047C161.269 15.047 160.968 15.1077 160.697 15.2305C160.765 15.1783 160.838 15.1284 160.917 15.0808C161.284 14.866 161.694 14.7552 162.157 14.7552C162.737 14.7552 163.186 14.9293 163.541 15.2591L163.541 15.2591L163.544 15.2622C163.979 15.6591 164.236 16.2819 164.236 17.2255ZM159.807 16.0007H159.818C159.571 16.3747 159.445 16.8009 159.445 17.2658V20.9412H158.795V16.4146C158.795 15.9395 158.784 15.4351 158.762 14.9001H159.218L159.262 15.5356L159.295 16.0007H159.761H159.807Z" stroke="white" stroke-opacity="0.12"/>
<path d="M175.83 15.5756H174.014V18.9953C174.014 19.8644 174.337 20.299 174.976 20.299C175.271 20.299 175.517 20.2751 175.71 20.2258L175.753 21.413C175.427 21.5295 174.999 21.5877 174.472 21.5877C173.821 21.5877 173.314 21.3996 172.948 21.0233C172.58 20.6469 172.397 20.0138 172.397 19.1252V15.5756H171.313V14.4033H172.397V13.1131L174.013 12.6501V14.4018H175.828V15.5756H175.83Z" fill="white"/>
<path d="M174.014 15.0756H173.514V15.5756V18.9953C173.514 19.4773 173.601 19.9289 173.853 20.2701C174.126 20.6395 174.531 20.799 174.976 20.799C175.063 20.799 175.148 20.7971 175.23 20.7931L175.239 21.0303C175.03 21.0669 174.776 21.0877 174.472 21.0877C173.922 21.0877 173.557 20.9323 173.306 20.6744L173.305 20.6736C173.075 20.4378 172.897 19.9685 172.897 19.1252V15.5756V15.0756H172.397H171.813V14.9033H172.397H172.897V14.4033V13.4899L173.513 13.3135V14.4018V14.9018H174.013H175.328V15.0756H174.014Z" stroke="white" stroke-opacity="0.12"/>
<path d="M184.558 21.4426H182.907V17.4405C182.907 16.1786 182.41 15.5469 181.414 15.5469C180.65 15.5469 180.128 15.9128 179.841 16.6445C179.792 16.7984 179.764 16.9865 179.764 17.2075V21.4411H178.117V11.173H179.764V15.4155H179.796C180.315 14.6435 181.059 14.2582 182.023 14.2582C182.706 14.2582 183.271 14.4703 183.719 14.8959C184.278 15.426 184.558 16.2145 184.558 17.2568V21.4426Z" fill="white"/>
<path d="M179.264 17.2075V20.9411H178.617V11.673H179.264V15.4155V15.9155H179.664C179.549 16.0802 179.453 16.2637 179.376 16.4623L179.37 16.4777L179.365 16.4934C179.298 16.7048 179.264 16.9452 179.264 17.2075ZM181.414 15.0469C181.176 15.0469 180.948 15.0764 180.734 15.1391C181.083 14.8844 181.508 14.7582 182.023 14.7582C182.593 14.7582 183.03 14.9308 183.375 15.2585C183.803 15.6645 184.058 16.3014 184.058 17.2568V20.9426H183.407V17.4405C183.407 16.7575 183.275 16.1527 182.927 15.711C182.561 15.2467 182.025 15.0469 181.414 15.0469Z" stroke="white" stroke-opacity="0.12"/>
<path d="M193.562 17.59C193.562 17.8708 193.54 18.1067 193.501 18.2994H188.556C188.578 18.9953 188.814 19.5254 189.272 19.8928C189.69 20.2213 190.23 20.3856 190.891 20.3856C191.622 20.3856 192.289 20.275 192.89 20.0525L193.148 21.1397C192.445 21.4294 191.618 21.5742 190.66 21.5742C189.511 21.5742 188.606 21.2532 187.952 20.611C187.294 19.9689 186.969 19.1073 186.969 18.0261C186.969 16.9643 187.272 16.0803 187.884 15.3754C188.523 14.6228 189.387 14.2465 190.477 14.2465C191.544 14.2465 192.354 14.6228 192.901 15.3754C193.343 15.9728 193.562 16.712 193.562 17.59ZM191.989 17.1853C192.001 16.7209 191.893 16.3207 191.67 15.9832C191.383 15.5486 190.947 15.3306 190.357 15.3306C189.819 15.3306 189.38 15.5427 189.045 15.9683C188.772 16.3073 188.61 16.712 188.556 17.1853H191.989Z" fill="white"/>
<path d="M190.891 20.8856C191.467 20.8856 192.014 20.8213 192.528 20.689L192.559 20.82C192.014 20.9869 191.384 21.0742 190.66 21.0742C189.607 21.0742 188.841 20.7825 188.302 20.2541L188.301 20.2533C187.758 19.7225 187.469 18.9995 187.469 18.0261C187.469 17.0661 187.74 16.304 188.262 15.7032L188.262 15.7032L188.266 15.6989C188.799 15.0707 189.516 14.7465 190.477 14.7465C191.411 14.7465 192.059 15.0669 192.497 15.6695L192.497 15.6696L192.499 15.6729C192.866 16.1684 193.062 16.7976 193.062 17.59C193.062 17.6644 193.06 17.7341 193.057 17.7994H188.556H188.04L188.056 18.3152C188.082 19.1251 188.364 19.8056 188.959 20.2827L188.959 20.2827L188.963 20.286C189.489 20.6991 190.146 20.8856 190.891 20.8856ZM191.989 17.6853H192.476L192.489 17.1989C192.504 16.6448 192.373 16.141 192.087 15.7078C191.695 15.1134 191.091 14.8306 190.357 14.8306C189.667 14.8306 189.084 15.1121 188.654 15.6565C188.316 16.0764 188.122 16.5723 188.059 17.1292L187.996 17.6853H188.556H191.989Z" stroke="white" stroke-opacity="0.12"/>
<path d="M87.2709 48.4288H83.6981L81.741 42.5914H74.9384L73.0741 48.4288H69.5957L76.3354 28.5555H80.4981L87.2709 48.4288ZM81.151 40.1423L79.3812 34.953C79.1939 34.4229 78.8431 33.1744 78.3255 31.2092H78.2626C78.0565 32.0544 77.7245 33.3028 77.2683 34.953L75.5299 40.1423H81.151Z" fill="white"/>
<path d="M82.2151 42.4324L82.1007 42.0914H81.741H74.9384H74.5732L74.4621 42.4393L72.7089 47.9288H70.2932L76.6938 29.0555H80.1403L86.5722 47.9288H84.0578L82.2151 42.4324ZM81.151 40.6423H81.8498L81.6243 39.9809L79.8544 34.7916L79.8544 34.7916L79.8526 34.7865C79.6737 34.2799 79.3284 33.0538 78.809 31.0819L78.7109 30.7092H78.3255H78.2626H77.8699L77.7768 31.0908C77.5732 31.926 77.2441 33.1641 76.79 34.8068L75.0558 39.9835L74.8351 40.6423H75.5299H81.151Z" stroke="white" stroke-opacity="0.12"/>
<path d="M104.604 41.0874C104.604 43.5246 103.91 45.451 102.522 46.8651C101.279 48.124 99.736 48.7527 97.8938 48.7527C95.9052 48.7527 94.4767 48.0747 93.6068 46.7188H93.5438V54.2676H90.1897V38.8161C90.1897 37.2839 90.1472 35.7114 90.0654 34.0986H93.0152L93.2024 36.37H93.2654C94.3839 34.6586 96.0814 33.8044 98.3595 33.8044C100.14 33.8044 101.627 34.472 102.816 35.8085C104.009 37.1465 104.604 38.9057 104.604 41.0874ZM101.187 41.2039C101.187 39.8091 100.856 38.6593 100.192 37.7543C99.467 36.8105 98.4932 36.3386 97.2724 36.3386C96.4449 36.3386 95.6928 36.6015 95.0211 37.1196C94.3477 37.6423 93.9072 38.3248 93.7011 39.17C93.5973 39.5642 93.5454 39.8868 93.5454 40.1407V42.53C93.5454 43.5723 93.8821 44.4519 94.5554 45.1702C95.2288 45.8885 96.1035 46.2469 97.1795 46.2469C98.4428 46.2469 99.4261 45.784 100.129 44.8611C100.834 43.9367 101.187 42.7182 101.187 41.2039Z" fill="white"/>
<path d="M93.0438 46.7188V53.7676H90.6897V38.8161C90.6897 37.4417 90.6557 36.0359 90.5901 34.5986H92.5547L92.7041 36.4111L92.742 36.87H93.2024H93.2654H93.5359L93.6839 36.6435C94.6982 35.0917 96.2273 34.3044 98.3595 34.3044C99.9972 34.3044 101.348 34.9106 102.443 36.1409L102.443 36.1412C103.537 37.3686 104.104 39.0002 104.104 41.0874C104.104 43.4252 103.441 45.2143 102.166 46.5144C101.021 47.6733 99.6084 48.2527 97.8938 48.2527C96.0299 48.2527 94.7834 47.6268 94.0276 46.4488L93.88 46.2188H93.6068H93.5438H93.0438V46.7188ZM100.595 37.4586L100.596 37.4585L100.589 37.4496C99.766 36.379 98.6437 35.8386 97.2724 35.8386C96.3302 35.8386 95.4716 36.1407 94.7157 36.7237L94.7145 36.7247C93.9516 37.3168 93.4494 38.0959 93.2165 39.047C93.1082 39.4589 93.0454 39.8269 93.0454 40.1407V42.53C93.0454 43.6913 93.425 44.6955 94.1906 45.5122C94.968 46.3414 95.9798 46.7469 97.1795 46.7469C98.5834 46.7469 99.7202 46.223 100.527 45.1641C101.316 44.1295 101.687 42.7944 101.687 41.2039C101.687 39.7294 101.336 38.4686 100.595 37.4586Z" stroke="white" stroke-opacity="0.12"/>
<path d="M121.969 41.0874C121.969 43.5246 121.275 45.451 119.886 46.8651C118.644 48.124 117.101 48.7527 115.259 48.7527C113.27 48.7527 111.842 48.0747 110.973 46.7188H110.911V54.2676H107.556V38.8161C107.556 37.2839 107.514 35.7114 107.432 34.0986H110.382L110.569 36.37H110.632C111.749 34.6586 113.447 33.8044 115.726 33.8044C117.505 33.8044 118.992 34.472 120.185 35.8085C121.372 37.1465 121.969 38.9057 121.969 41.0874ZM118.552 41.2039C118.552 39.8091 118.22 38.6593 117.556 37.7543C116.831 36.8105 115.86 36.3386 114.637 36.3386C113.808 36.3386 113.058 36.6015 112.385 37.1196C111.711 37.6423 111.272 38.3248 111.066 39.17C110.964 39.5642 110.911 39.8868 110.911 40.1407V42.53C110.911 43.5723 111.247 44.4519 111.917 45.1702C112.591 45.887 113.465 46.2469 114.545 46.2469C115.808 46.2469 116.791 45.784 117.494 44.8611C118.199 43.9367 118.552 42.7182 118.552 41.2039Z" fill="white"/>
<path d="M115.726 34.3044C117.362 34.3044 118.713 34.9103 119.811 36.1409C120.901 37.3686 121.469 39.0007 121.469 41.0874C121.469 43.4253 120.806 45.2144 119.529 46.5145C118.387 47.6732 116.974 48.2527 115.259 48.2527C113.395 48.2527 112.149 47.6267 111.395 46.4491L111.247 46.2188H110.973H110.911H110.411V46.7188V53.7676H108.056V38.8161C108.056 37.4417 108.022 36.0359 107.957 34.5986H109.921L110.071 36.4111L110.109 36.87H110.569H110.632H110.903L111.051 36.6433C112.063 35.0918 113.592 34.3044 115.726 34.3044ZM117.959 37.4586L117.959 37.4585L117.952 37.4496C117.13 36.3792 116.011 35.8386 114.637 35.8386C113.694 35.8386 112.837 36.1408 112.08 36.7234L112.08 36.7234L112.078 36.7247C111.314 37.3174 110.814 38.097 110.581 39.0479C110.475 39.4571 110.411 39.8258 110.411 40.1407V42.53C110.411 43.6912 110.79 44.6949 111.552 45.5113L111.553 45.5125C112.33 46.3398 113.342 46.7469 114.545 46.7469C115.949 46.7469 117.085 46.223 117.892 45.1641C118.681 44.1295 119.052 42.7944 119.052 41.2039C119.052 39.7289 118.7 38.4682 117.959 37.4586Z" stroke="white" stroke-opacity="0.12"/>
<path d="M141.379 42.8556C141.379 44.5461 140.761 45.9215 139.52 46.9832C138.156 48.1435 136.257 48.723 133.817 48.723C131.564 48.723 129.758 48.3108 128.391 47.485L129.168 44.8313C130.64 45.6766 132.256 46.1007 134.016 46.1007C135.28 46.1007 136.263 45.8289 136.969 45.2883C137.673 44.7477 138.023 44.0219 138.023 43.117C138.023 42.3106 137.734 41.6311 137.153 41.0801C136.576 40.529 135.612 40.0168 134.265 39.5434C130.599 38.2457 128.768 36.3447 128.768 33.8449C128.768 32.2112 129.41 30.8716 130.695 29.8293C131.976 28.7855 133.685 28.2643 135.821 28.2643C137.726 28.2643 139.309 28.5794 140.572 29.2081L139.734 31.8035C138.554 31.1942 137.22 30.8896 135.727 30.8896C134.547 30.8896 133.625 31.1658 132.964 31.7154C132.405 32.2067 132.125 32.8055 132.125 33.5148C132.125 34.3003 132.445 34.9499 133.087 35.4607C133.645 35.9326 134.66 36.4433 136.132 36.9943C137.934 37.6827 139.257 38.4876 140.108 39.4105C140.956 40.3304 141.379 41.4818 141.379 42.8556Z" fill="white"/>
<path d="M129.475 45.5618L128.982 47.2444C130.207 47.886 131.807 48.223 133.817 48.223C136.181 48.223 137.95 47.662 139.195 46.6029C140.32 45.6402 140.879 44.4061 140.879 42.8556C140.879 41.5933 140.494 40.5672 139.74 39.7495L129.475 45.5618ZM129.475 45.5618C130.874 46.2542 132.39 46.6007 134.016 46.6007C135.345 46.6007 136.45 46.3153 137.273 45.6854L137.274 45.6847C138.104 45.0467 138.523 44.1726 138.523 43.117C138.523 42.1753 138.179 41.3644 137.498 40.7179C136.844 40.0935 135.8 39.5529 134.432 39.072C130.837 37.7993 129.268 36.0226 129.268 33.8449C129.268 32.3638 129.841 31.1663 131.01 30.2176L131.011 30.2169C132.179 29.2648 133.765 28.7643 135.821 28.7643C137.475 28.7643 138.849 29.0089 139.96 29.4771L139.433 31.1088C138.31 30.6269 137.074 30.3896 135.727 30.3896C134.473 30.3896 133.423 30.6832 132.644 31.331L132.644 31.3308L132.634 31.34C131.974 31.9204 131.625 32.6533 131.625 33.5148C131.625 34.4569 132.018 35.2465 132.77 35.8473C133.399 36.3771 134.482 36.9105 135.956 37.462C137.719 38.136 138.962 38.9057 139.74 39.7494L129.475 45.5618Z" stroke="white" stroke-opacity="0.12"/>
<path d="M152.469 36.4882H148.772V43.4457C148.772 45.2153 149.424 46.0993 150.729 46.0993C151.329 46.0993 151.826 46.05 152.219 45.9515L152.312 48.3692C151.651 48.6036 150.781 48.7216 149.704 48.7216C148.379 48.7216 147.344 48.3378 146.596 47.5717C145.852 46.8042 145.478 45.5169 145.478 43.7085V36.4852H143.275V34.0959H145.478V31.4721L148.772 30.5283V34.0959H152.469V36.4882Z" fill="white"/>
<path d="M145.978 31.849L148.272 31.1917V34.0959V34.5959H148.772H151.969V35.9882H148.772H148.272V36.4882V43.4457C148.272 44.3771 148.441 45.1663 148.859 45.7328C149.297 46.3278 149.951 46.5993 150.729 46.5993C151.096 46.5993 151.434 46.5817 151.742 46.5444L151.798 48.0035C151.252 48.1448 150.558 48.2216 149.704 48.2216C148.48 48.2216 147.587 47.8707 146.955 47.2232C146.346 46.5951 145.978 45.4697 145.978 43.7085V36.4852V35.9852H145.478H143.775V34.5959H145.478H145.978V34.0959V31.849Z" stroke="white" stroke-opacity="0.12"/>
<path d="M169.151 41.1456C169.151 43.3483 168.487 45.1567 167.162 46.5709C165.773 48.0269 163.929 48.7527 161.63 48.7527C159.415 48.7527 157.652 48.0553 156.337 46.6605C155.021 45.2657 154.364 43.5051 154.364 41.3831C154.364 39.1625 155.04 37.3436 156.398 35.9294C157.752 34.5137 159.581 33.8059 161.879 33.8059C164.094 33.8059 165.877 34.5033 167.222 35.8996C168.509 37.254 169.151 39.0027 169.151 41.1456ZM165.671 41.2487C165.671 39.9271 165.373 38.7936 164.771 37.8484C164.067 36.7045 163.062 36.134 161.759 36.134C160.411 36.134 159.387 36.706 158.684 37.8484C158.081 38.7951 157.784 39.9465 157.784 41.3084C157.784 42.63 158.081 43.7635 158.684 44.7072C159.409 45.8511 160.422 46.4216 161.73 46.4216C163.01 46.4216 164.015 45.8392 164.741 44.6774C165.359 43.7142 165.671 42.5688 165.671 41.2487Z" fill="white"/>
<path d="M156.759 36.2757L156.759 36.2751C158.003 34.9752 159.691 34.3059 161.879 34.3059C163.979 34.3059 165.624 34.9621 166.86 36.2453C168.045 37.4927 168.651 39.111 168.651 41.1456C168.651 43.2389 168.024 44.9187 166.799 46.2274C165.518 47.5688 163.813 48.2527 161.63 48.2527C159.53 48.2527 157.906 47.5963 156.7 46.3175C155.482 45.0259 154.864 43.3926 154.864 41.3831C154.864 39.2725 155.503 37.5839 156.759 36.2757ZM166.171 41.2487C166.171 39.8519 165.856 38.6222 165.194 37.583C164.403 36.2983 163.24 35.634 161.759 35.634C160.239 35.634 159.055 36.2944 158.26 37.5831C157.597 38.6258 157.284 39.8743 157.284 41.3084C157.284 42.7063 157.599 43.9372 158.262 44.9756C159.075 46.2573 160.244 46.9216 161.73 46.9216C163.196 46.9216 164.354 46.239 165.163 44.9448C165.839 43.8901 166.171 42.6488 166.171 41.2487Z" stroke="white" stroke-opacity="0.12"/>
<path d="M180.053 36.8986C179.721 36.8404 179.367 36.8105 178.996 36.8105C177.816 36.8105 176.904 37.2331 176.262 38.0799C175.703 38.8265 175.423 39.7703 175.423 40.9097V48.4287H172.071L172.102 38.6115C172.102 36.9599 172.06 35.4561 171.976 34.1001H174.898L175.021 36.8419H175.113C175.467 35.8996 176.026 35.141 176.79 34.572C177.538 34.0598 178.345 33.8044 179.215 33.8044C179.525 33.8044 179.805 33.8253 180.053 33.8627V36.8986Z" fill="white"/>
<path d="M179.553 36.3322C179.371 36.3178 179.185 36.3105 178.996 36.3105C177.68 36.3105 176.611 36.791 175.863 37.7778L175.863 37.7778L175.861 37.7804C175.225 38.6311 174.923 39.6866 174.923 40.9097V47.9287H172.572L172.602 38.6131V38.6115C172.602 37.1633 172.57 35.8261 172.506 34.6001H174.42L174.521 36.8642L174.542 37.3419H175.021H175.113H175.46L175.581 37.0177C175.903 36.1623 176.403 35.4862 177.081 34.9789C177.746 34.525 178.453 34.3044 179.215 34.3044C179.333 34.3044 179.446 34.3077 179.553 34.3139V36.3322Z" stroke="white" stroke-opacity="0.12"/>
<path d="M195.054 40.5858C195.054 41.1563 195.014 41.6371 194.931 42.0299H184.869C184.908 43.4455 185.394 44.5282 186.329 45.2749C187.177 45.9424 188.273 46.2769 189.62 46.2769C191.11 46.2769 192.469 46.0514 193.691 45.5989L194.217 47.8091C192.788 48.4004 191.102 48.6946 189.156 48.6946C186.815 48.6946 184.977 48.0405 183.64 46.7339C182.306 45.4272 181.637 43.6725 181.637 41.4714C181.637 39.3105 182.259 37.511 183.503 36.0759C184.806 34.5438 186.566 33.7777 188.781 33.7777C190.957 33.7777 192.604 34.5438 193.723 36.0759C194.608 37.293 195.054 38.7983 195.054 40.5858ZM191.855 39.76C191.877 38.8162 191.659 38.0009 191.204 37.3124C190.623 36.4269 189.731 35.9849 188.531 35.9849C187.435 35.9849 186.543 36.4164 185.861 37.2826C185.303 37.971 184.971 38.7968 184.869 39.7585H191.855V39.76Z" fill="white"/>
<path d="M189.62 46.7769C190.95 46.7769 192.19 46.6029 193.332 46.2489L193.629 47.5005C192.359 47.96 190.871 48.1946 189.156 48.1946C186.911 48.1946 185.211 47.5702 183.989 46.3763C182.769 45.1803 182.137 43.5636 182.137 41.4714C182.137 39.413 182.726 37.735 183.881 36.4035L183.881 36.4035L183.884 36.3998C185.081 34.9917 186.696 34.2777 188.781 34.2777C190.824 34.2777 192.309 34.9878 193.319 36.3706C194.131 37.4872 194.554 38.8842 194.554 40.5858C194.554 40.9454 194.537 41.259 194.506 41.5299H184.869H184.355L184.369 42.0438C184.411 43.5762 184.945 44.8096 186.016 45.6655L186.019 45.6678C186.975 46.4203 188.189 46.7769 189.62 46.7769ZM191.855 39.7658L192.355 39.7717C192.357 39.6797 192.357 39.5887 192.355 39.4985V39.2585H192.345C192.29 38.4338 192.052 37.6894 191.622 37.0376C190.935 35.9904 189.873 35.4849 188.531 35.4849C187.283 35.4849 186.246 35.9857 185.471 36.9705C184.848 37.7398 184.483 38.6578 184.371 39.7056L184.313 40.2585H184.869H191.855V39.7658Z" stroke="white" stroke-opacity="0.12"/>
</svg>
