<svg width="24" height="12" viewBox="0 0 24 12" fill="none" xmlns="http://www.w3.org/2000/svg">
<g id="artilab-logo">
<path id="Vector" d="M13.7778 0C16.0606 0 17.9111 1.79086 17.9111 4V12C15.6283 12 13.7778 10.2091 13.7778 7.99999V0Z" fill="white"/>
<path id="Vector_2" d="M19.29 8.45709C19.29 8.35189 19.3781 8.2666 19.4869 8.2666H19.7493C21.7784 8.2666 23.4233 9.85845 23.4233 11.8221C23.4233 11.9203 23.341 11.9999 23.2396 11.9999H19.29V8.45709Z" fill="#0BC594"/>
<path id="Vector_3" d="M4.13325 6C4.13325 7.10457 5.0585 7.99999 6.19984 7.99999C6.96077 7.99999 7.5776 8.59695 7.5776 9.33333V12H6.19984C5.21006 12 4.27443 11.7755 3.44435 11.3763C1.40294 10.3945 0 8.35582 0 6C0 3.64417 1.40294 1.60548 3.44435 0.623678C4.27443 0.22447 5.21006 0 6.19984 0C6.6734 0 7.13452 0.0513734 7.5776 0.148679C9.13203 0.49002 10.4646 1.39658 11.3324 2.63327C12.0061 3.59323 12.3997 4.75212 12.3997 6V12C11.3437 12 10.3802 11.6168 9.64963 10.9861C8.80089 10.2536 8.2665 9.18717 8.2665 7.99999V6C8.2665 5.56084 8.12025 5.15476 7.87234 4.82487C7.78583 4.70978 7.68699 4.60396 7.5776 4.50925C7.21199 4.19258 6.72916 4 6.19984 4C5.0585 4 4.13325 4.89542 4.13325 6Z" fill="white"/>
</g>
</svg>
