<svg width="65" height="64" viewBox="0 0 65 64" fill="none" xmlns="http://www.w3.org/2000/svg">
<path d="M16.3636 63.2727C7.94182 63.2727 1.09091 56.4218 1.09091 48V16C1.09091 7.57817 7.94182 0.727264 16.3636 0.727264H48.3636C56.7855 0.727264 63.6364 7.57817 63.6364 16V48C63.6364 56.4218 56.7855 63.2727 48.3636 63.2727H16.3636Z" fill="#252429"/>
<path d="M48.3636 1.45455C56.3855 1.45455 62.9091 7.97818 62.9091 16V48C62.9091 56.0218 56.3855 62.5455 48.3636 62.5455H16.3636C8.34183 62.5455 1.81819 56.0218 1.81819 48V16C1.81819 7.97818 8.34183 1.45455 16.3636 1.45455H48.3636ZM48.3636 0H16.3636C7.52728 0 0.363647 7.16364 0.363647 16V48C0.363647 56.8364 7.52728 64 16.3636 64H48.3636C57.2 64 64.3636 56.8364 64.3636 48V16C64.3636 7.16364 57.2 0 48.3636 0Z" fill="#6DFFD5"/>
<path d="M38.7855 46.8073C40.3564 45.0182 41.1418 42.4364 41.1418 39.0691V35.4037H23.5855V39.0691C23.5855 42.4364 24.3709 45.0182 25.9418 46.8073C27.4982 48.5818 29.5927 49.4764 32.3636 49.4909C35.1346 49.4764 37.2291 48.5818 38.7855 46.8073ZM28.4436 44.2764C27.4255 43.2146 26.9091 41.7818 26.9091 39.9855V39.0327H37.8109V39.9855C37.8109 41.7818 37.3018 43.2146 36.2764 44.2764C35.2727 45.3237 33.9636 45.8473 32.3564 45.8691C30.7564 45.8546 29.4473 45.3237 28.4436 44.2764Z" fill="white"/>
<path d="M27.0327 30.72C26.0873 30.72 25.3236 29.9564 25.3236 29.0109V16.2109C25.3236 15.2655 26.0873 14.5018 27.0327 14.5018C27.9782 14.5018 28.7418 15.2655 28.7418 16.2109V29.0109C28.7345 29.9491 27.9709 30.72 27.0327 30.72Z" fill="#6DFFD5"/>
<path d="M37.6946 30.72C36.7491 30.72 35.9855 29.9564 35.9855 29.0109V16.2109C35.9855 15.2655 36.7491 14.5018 37.6946 14.5018C38.64 14.5018 39.4036 15.2655 39.4036 16.2109V29.0109C39.4036 29.9491 38.64 30.72 37.6946 30.72Z" fill="#6DFFD5"/>
</svg>
