<svg width="140" height="134" viewBox="0 0 140 134" fill="none" xmlns="http://www.w3.org/2000/svg">
<g id="certik">
<path id="Vector" fill-rule="evenodd" clip-rule="evenodd" d="M112.778 16.1447L113.332 19.4962C113.769 22.614 113.971 25.7602 113.938 28.9083C113.934 35.8652 113.095 42.7963 111.438 49.5531C109.197 58.7326 105.294 67.4242 99.9231 75.1975C93.7161 84.1251 84.7412 92.9059 71.6591 99.9613L70.0585 100.824L68.4582 99.9613C55.3762 92.9059 46.405 84.1251 40.1943 75.1975C34.8228 67.4242 30.9202 58.7326 28.6795 49.5531C27.023 42.7977 26.1837 35.8676 26.1798 28.912C26.1459 25.7639 26.3484 22.6177 26.7854 19.4999L27.3397 16.1484C27.387 15.8751 27.3797 15.5951 27.3184 15.3246C27.257 15.0541 27.1427 14.7984 26.982 14.5723C26.8214 14.3461 26.6176 14.154 26.3824 14.007C26.1472 13.86 25.8852 13.761 25.6115 13.7157C25.3379 13.6704 25.058 13.6797 24.7879 13.7431C24.5179 13.8065 24.2631 13.9227 24.0382 14.0851C23.8132 14.2474 23.6227 14.4526 23.4774 14.6889C23.3322 14.9252 23.2351 15.188 23.1919 15.4619L22.6376 18.8134C22.1608 22.1579 21.9387 25.5338 21.9732 28.912C21.9758 36.2103 22.8558 43.4816 24.594 50.57C26.9602 60.2497 31.0794 69.414 36.7475 77.6093C43.2997 87.0399 52.803 96.3124 66.4797 103.672L69.0785 105.071C69.3848 105.236 69.7272 105.323 70.0751 105.323C70.4231 105.323 70.7657 105.236 71.0718 105.071L73.6668 103.672C87.3291 96.3087 96.8361 87.0399 103.399 77.6093C109.065 69.4145 113.181 60.2515 115.545 50.5737C117.284 43.4853 118.163 36.214 118.166 28.9157C118.201 25.5375 117.978 22.1616 117.502 18.8171L116.947 15.4656C116.904 15.1916 116.807 14.9289 116.662 14.6926C116.517 14.4563 116.326 14.251 116.101 14.0887C115.876 13.9264 115.621 13.8102 115.351 13.7468C115.081 13.6834 114.801 13.6741 114.528 13.7194C114.254 13.7647 113.992 13.8637 113.757 14.0107C113.522 14.1577 113.318 14.3498 113.157 14.5759C112.997 14.8021 112.882 15.0577 112.821 15.3283C112.76 15.5988 112.752 15.8787 112.8 16.1521L112.778 16.1447Z" fill="white"/>
<path id="Vector_2" fill-rule="evenodd" clip-rule="evenodd" d="M38.8251 13.861L70.0633 4.31692L101.999 14.0666C102.533 14.2265 103.11 14.168 103.601 13.904C104.093 13.64 104.46 13.192 104.622 12.6581C104.784 12.1241 104.728 11.5477 104.466 11.0549C104.205 10.5621 103.758 10.1931 103.225 10.0287L70.6762 0.0918174C70.2769 -0.0306058 69.8497 -0.0306058 69.4501 0.0918174L37.5954 9.81581C37.3292 9.8954 37.0814 10.0268 36.866 10.2024C36.6508 10.378 36.4723 10.5945 36.3408 10.8392C36.2094 11.084 36.1276 11.3524 36.1002 11.6289C36.0727 11.9054 36.1001 12.1845 36.1809 12.4504C36.2616 12.7163 36.394 12.9636 36.5706 13.1781C36.7471 13.3927 36.9643 13.5702 37.2097 13.7006C37.455 13.831 37.7237 13.9116 38.0003 13.9379C38.2769 13.9642 38.5559 13.9356 38.8215 13.8537L38.8251 13.861Z" fill="white"/>
<path id="Vector_3" fill-rule="evenodd" clip-rule="evenodd" d="M23.4017 16.7603L68.1865 104.171C68.3612 104.512 68.6261 104.799 68.9524 105.001C69.2788 105.203 69.6541 105.311 70.0378 105.315C70.4213 105.318 70.7985 105.216 71.1285 105.02C71.4582 104.824 71.7282 104.542 71.9089 104.203L99.2203 53.1236L99.2606 53.043L116.742 16.7016C116.978 16.2 117.008 15.6253 116.823 15.1022C116.639 14.5791 116.255 14.15 115.756 13.9082C115.257 13.6663 114.682 13.6313 114.158 13.8107C113.633 13.9901 113.2 14.3694 112.953 14.8661L95.5016 51.178L70.1211 98.6788L27.1423 14.8368C27.0184 14.5878 26.8464 14.3659 26.6362 14.184C26.4259 14.002 26.1817 13.8636 25.9175 13.7767C25.6534 13.6897 25.3747 13.6561 25.0975 13.6777C24.8202 13.6994 24.5501 13.7758 24.3026 13.9025C24.0551 14.0293 23.8353 14.2039 23.6558 14.4163C23.4763 14.6286 23.3407 14.8745 23.2569 15.1396C23.1731 15.4047 23.1427 15.6838 23.1676 15.9608C23.1924 16.2377 23.272 16.507 23.4017 16.753V16.7603Z" fill="white"/>
<path id="Vector_4" fill-rule="evenodd" clip-rule="evenodd" d="M44.8388 55.6879H94.6406C95.1979 55.6879 95.7323 55.4666 96.1266 55.0724C96.5206 54.6783 96.7421 54.1439 96.7421 53.5864C96.7421 53.0291 96.5206 52.4947 96.1266 52.1004C95.7323 51.7064 95.1979 51.4849 94.6406 51.4849H44.8388C44.2815 51.4849 43.7469 51.7064 43.3528 52.1004C42.9587 52.4947 42.7373 53.0291 42.7373 53.5864C42.7373 54.1439 42.9587 54.6783 43.3528 55.0724C43.7469 55.4666 44.2815 55.6879 44.8388 55.6879Z" fill="white"/>
<g id="Vector_5">
<path d="M2.85719 118.324H17.0961V116.404H2.85719C2.48145 116.402 2.10919 116.475 1.76169 116.618C1.41432 116.761 1.09865 116.971 0.832995 117.237C0.567339 117.502 0.357015 117.818 0.213942 118.166C0.0709857 118.513 -0.00170593 118.885 3.03862e-05 119.261V130.69C-0.00170593 131.065 0.0709857 131.437 0.213942 131.785C0.357015 132.132 0.567339 132.448 0.832995 132.714C1.09865 132.979 1.41432 133.19 1.76169 133.333C2.10919 133.476 2.48145 133.548 2.85719 133.547H17.0961V131.611H2.85719C2.61122 131.609 2.37577 131.511 2.20191 131.337C2.02804 131.163 1.92953 130.927 1.92791 130.681V119.253C1.92919 119.007 2.02746 118.771 2.20144 118.597C2.37542 118.423 2.6111 118.325 2.85719 118.324Z" fill="white"/>
<path d="M43.8334 118.33V116.394H28.1827V133.544H43.8318V131.608H30.1187V125.94H41.1424V123.988H30.1203V118.33H43.8334Z" fill="white"/>
</g>
<path id="Vector_6" d="M72.0713 119.276V124.3C72.0736 124.676 72.0007 125.048 71.8571 125.395C71.7136 125.742 71.5041 126.058 71.2379 126.324C70.9728 126.589 70.6568 126.8 70.3095 126.943C69.9622 127.086 69.5895 127.159 69.2145 127.157H66.5961L71.9764 133.538H69.4286L64.0715 127.157H57.7793C57.4682 127.141 57.158 127.11 56.8501 127.062V133.538H54.9141V116.419H69.1994C69.5756 116.417 69.9472 116.49 70.2945 116.633C70.6429 116.777 70.9577 116.987 71.224 117.253C71.489 117.518 71.6997 117.834 71.8421 118.181C71.9856 118.528 72.0586 118.901 72.0574 119.276H72.0713ZM57.7858 125.205H69.2145C69.3337 125.207 69.4518 125.184 69.5629 125.139C69.6729 125.094 69.7736 125.028 69.8581 124.943C69.9426 124.859 70.0085 124.759 70.0537 124.648C70.0988 124.538 70.1208 124.419 70.1197 124.3V119.276C70.1208 119.155 70.0988 119.035 70.0548 118.923C70.0097 118.81 69.9426 118.708 69.8581 118.621C69.7759 118.533 69.6763 118.462 69.5652 118.415C69.4541 118.368 69.3337 118.345 69.2133 118.347H57.7842C57.5381 118.348 57.3025 118.447 57.1284 118.62C56.9545 118.794 56.8562 119.03 56.8549 119.276V124.3C56.8524 124.421 56.8755 124.541 56.9229 124.652C56.9701 124.763 57.0405 124.863 57.1291 124.945C57.2158 125.03 57.3185 125.097 57.4313 125.141C57.544 125.186 57.6645 125.208 57.7858 125.205Z" fill="white"/>
<path id="Vector_7" fill-rule="evenodd" clip-rule="evenodd" d="M82.3105 116.394H99.4468V118.33H91.8649V133.545H89.9283V118.33H82.3105V116.394ZM109.833 133.537V116.394H111.77V133.537H109.833ZM137.5 116.394H139.977L132.811 124.966L140 133.537H137.5L131.12 125.942H125.596V133.537H123.646V116.394H125.599V123.988H131.123L137.5 116.394Z" fill="white"/>
</g>
</svg>
