<svg width="44" height="44" viewBox="0 0 44 44" fill="none" xmlns="http://www.w3.org/2000/svg">
<g id="icon__UI">
<g id="Vector">
<path d="M14.7627 18.9264L14.7627 5.75605C14.7627 4.78583 15.5461 4 16.5132 4C17.4804 4 18.2638 4.78583 18.2638 5.75605L18.2638 18.9264C18.2638 19.8967 17.4804 20.6825 16.5132 20.6825C15.5461 20.6825 14.7627 19.8967 14.7627 18.9264Z" fill="url(#paint0_linear_218_13064)"/>
<path d="M25.7036 18.9264L25.7036 5.75605C25.7036 4.78583 26.487 4 27.4542 4C28.4213 4 29.2047 4.78583 29.2047 5.75605L29.2047 18.9264C29.2047 19.8967 28.4213 20.6825 27.4542 20.6825C26.487 20.6825 25.7036 19.8967 25.7036 18.9264Z" fill="url(#paint1_linear_218_13064)"/>
</g>
<path id="Vector_2" d="M28.5842 37.242C30.1947 35.3982 31 32.7465 31 29.2827L31 25.516L13 25.516L13 29.2827C13 32.7465 13.8053 35.4026 15.4158 37.242C17.0131 39.0683 19.1575 39.9859 21.9978 40.0034C24.8381 39.9859 26.9869 39.0683 28.5842 37.242ZM17.9803 34.6387C16.9344 33.5455 16.4092 32.0748 16.4092 30.2222L16.4092 29.2432L27.5908 29.2432L27.5908 30.2222C27.5908 32.0705 27.0656 33.5455 26.0197 34.6387C24.9869 35.7143 23.6477 36.2586 22.0022 36.2762C20.3523 36.2586 19.0088 35.7143 17.9803 34.6387Z" fill="url(#paint2_linear_218_13064)"/>
</g>
<defs>
<linearGradient id="paint0_linear_218_13064" x1="22.3139" y1="3.87411" x2="22.3139" y2="20.9946" gradientUnits="userSpaceOnUse">
<stop stop-color="#6DFFD5"/>
<stop offset="1" stop-color="#6DFFD5" stop-opacity="0.7"/>
</linearGradient>
<linearGradient id="paint1_linear_218_13064" x1="22.3139" y1="3.87411" x2="22.3139" y2="20.9946" gradientUnits="userSpaceOnUse">
<stop stop-color="#6DFFD5"/>
<stop offset="1" stop-color="#6DFFD5" stop-opacity="0.7"/>
</linearGradient>
<linearGradient id="paint2_linear_218_13064" x1="22.3139" y1="44.1577" x2="22.3139" y2="23.0088" gradientUnits="userSpaceOnUse">
<stop stop-color="#6DFFD5" stop-opacity="0.2"/>
<stop offset="1" stop-color="#6DFFD5" stop-opacity="0.5"/>
</linearGradient>
</defs>
</svg>
