<svg width="220" height="200" viewBox="0 0 220 200" fill="none" xmlns="http://www.w3.org/2000/svg">
<path d="M193.202 43.2179C171.359 21.375 138.555 14.225 109.602 24.95C100.92 21.7679 91.7268 20 82.1804 20C61.0054 20 41.1268 28.25 26.1589 43.2179C-4.71964 74.0964 -4.71964 124.382 26.1589 155.261C41.1268 170.229 61.0054 178.479 82.1804 178.479C91.3339 178.479 100.213 176.829 108.62 173.882C117.616 177.536 127.084 179.343 136.513 179.343C157.02 179.343 177.488 170.975 193.202 155.261C208.17 140.293 216.42 120.414 216.42 99.2393C216.42 78.0643 208.17 58.1857 193.202 43.2179ZM34.4875 146.932C8.20536 120.65 8.20536 77.8679 34.4875 51.5464C47.2161 38.8179 64.1482 31.7857 82.1804 31.7857C100.213 31.7857 117.145 38.8179 129.873 51.5464C156.155 77.8286 156.155 120.611 129.873 146.932C117.145 159.661 100.213 166.693 82.1804 166.693C64.1482 166.693 47.2161 159.661 34.4875 146.932ZM184.873 146.932C168.255 163.55 145.548 170.504 124.295 166.3C129.284 163.157 133.959 159.504 138.202 155.261C169.08 124.382 169.08 74.0964 138.202 43.2179C134.273 39.2893 129.991 35.8321 125.434 32.8857C146.845 29.1536 169.198 35.8714 184.873 51.5857C197.602 64.3143 204.634 81.2464 204.634 99.2786C204.634 117.311 197.602 134.243 184.873 146.971V146.932Z" fill="url(#paint0_linear_73_10425)"/>
<path d="M86.3451 63.6464C84.0272 61.3285 80.2951 61.3285 78.0165 63.6464L46.5879 95.0749C45.4879 96.1749 44.8594 97.6678 44.8594 99.2392C44.8594 100.811 45.4879 102.303 46.5879 103.403L78.0165 134.832C79.1558 135.971 80.6879 136.561 82.1808 136.561C83.6737 136.561 85.2058 135.971 86.3451 134.832L117.774 103.403C118.874 102.303 119.502 100.811 119.502 99.2392C119.502 97.6678 118.874 96.1749 117.774 95.0749L86.3451 63.6464ZM82.1808 122.339L59.0808 99.2392L82.1808 76.1392L105.281 99.2392L82.1808 122.339Z" fill="#6DFFD5"/>
<defs>
<linearGradient id="paint0_linear_73_10425" x1="109.705" y1="-56.4192" x2="109.705" y2="297.777" gradientUnits="userSpaceOnUse">
<stop stop-color="#6DFFD5"/>
<stop offset="1" stop-color="#1D1B25" stop-opacity="0"/>
</linearGradient>
</defs>
</svg>
