<svg width="16" height="16" viewBox="0 0 16 16" fill="none" xmlns="http://www.w3.org/2000/svg">
<path id="Exclude" opacity="0.6" fill-rule="evenodd" clip-rule="evenodd" d="M0 8C0 3.5816 3.5816 0 8 0C12.4184 0 16 3.5816 16 8C16 12.4184 12.4184 16 8 16C3.5816 16 0 12.4184 0 8ZM6.73826 11.9187C6.73826 11.3724 7.18053 10.9171 7.72688 10.9171C8.2732 10.9171 8.72848 11.3724 8.72848 11.9187C8.72848 12.4521 8.28624 12.9204 7.72688 12.9204C7.16752 12.9204 6.73826 12.4521 6.73826 11.9187ZM5.33333 5.07646C5.33333 4.37404 6.13983 3.33333 7.89596 3.33333C9.561 3.33333 10.6667 4.25691 10.6667 5.47967C10.6667 6.70242 9.561 7.58701 9.20978 7.86017C8.49431 8.41953 8.4813 8.80977 8.4813 9.48617C8.4813 9.73339 8.35121 10.0196 7.71383 10.0196C7.18053 10.0196 6.9984 9.82442 6.9984 9.14801C6.9984 8.02929 7.49268 7.49591 7.86995 7.17076C7.94797 7.10456 8.03588 7.03707 8.1275 6.96673C8.53996 6.65007 9.02769 6.27562 9.02769 5.70086C9.02769 5.10248 8.50732 4.81627 7.85694 4.81627C7.08893 4.81627 6.86134 5.15188 6.66964 5.43457C6.53016 5.64027 6.40967 5.81795 6.11381 5.81795C5.7626 5.81795 5.33333 5.58378 5.33333 5.07646Z" fill="white"/>
</svg>
