<svg width="22" height="22" viewBox="0 0 22 22" fill="none" xmlns="http://www.w3.org/2000/svg">
<g id="icon__social">
<path id="Vector" d="M11 3C9.94944 3 8.90917 3.21207 7.93852 3.62409C6.96796 4.03611 6.08601 4.64001 5.34315 5.40133C3.84285 6.93882 3 9.02424 3 11.1986C3 14.8225 5.29601 17.8969 8.47204 18.9873C8.87201 19.053 9.00003 18.7987 9.00003 18.5774V17.1918C6.78398 17.6838 6.31203 16.0932 6.31203 16.0932C5.94397 15.1421 5.424 14.888 5.424 14.888C4.69601 14.3797 5.48 14.3961 5.48 14.3961C6.28003 14.4535 6.70396 15.2405 6.70396 15.2405C7.40004 16.4867 8.57601 16.1178 9.03204 15.921C9.10401 15.3882 9.31204 15.0274 9.53599 14.8225C7.76005 14.6175 5.89601 13.9124 5.89601 10.7887C5.89601 9.87862 6.20002 9.149 6.71997 8.56685C6.64004 8.36189 6.36004 7.50922 6.79998 6.40243C6.79998 6.40243 7.472 6.18107 9.00003 7.23872C9.632 7.05835 10.32 6.96812 11 6.96812C11.68 6.96812 12.368 7.05835 13 7.23872C14.528 6.18107 15.2 6.40243 15.2 6.40243C15.64 7.50922 15.36 8.36189 15.2801 8.56685C15.8 9.149 16.1041 9.87862 16.1041 10.7887C16.1041 13.9206 14.232 14.6093 12.448 14.8142C12.736 15.0684 13 15.5685 13 16.331V18.5774C13 18.7987 13.128 19.0611 13.536 18.9873C16.712 17.8887 19 14.8225 19 11.1986C19 10.122 18.7931 9.05588 18.3911 8.06118C17.989 7.06648 17.3997 6.16264 16.6569 5.40133C15.914 4.64001 15.0321 4.03611 14.0615 3.62409C13.0908 3.21207 12.0506 3 11 3Z" fill="white"/>
</g>
</svg>
