<svg width="32" height="32" viewBox="0 0 32 32" fill="none" xmlns="http://www.w3.org/2000/svg">
<g id="icon__social">
<path id="Vector" d="M24.5228 9.67396C22.9853 8.96196 21.3549 8.45634 19.6833 8.17773C19.4666 8.54921 19.2292 9.04451 19.0641 9.44694C17.279 9.17866 15.4732 9.17866 13.6881 9.44694C13.5023 9.01356 13.2856 8.59049 13.0483 8.17773C11.3767 8.45634 9.74629 8.97228 8.19847 9.68428C5.13379 14.2349 4.30829 18.6926 4.72104 23.0677C6.51651 24.3989 8.51835 25.4204 10.6647 26.0602C11.1496 25.4101 11.5727 24.7187 11.9339 23.9964C11.2322 23.7385 10.5718 23.4186 9.93202 23.0368C10.0971 22.913 10.2622 22.7891 10.417 22.655C14.1834 24.4401 18.5379 24.4401 22.3042 22.655C22.459 22.7891 22.6241 22.913 22.7892 23.0368C22.1495 23.4186 21.4787 23.7385 20.7771 23.9964C21.1485 24.7187 21.5716 25.4101 22.0463 26.0602C24.1823 25.4101 26.1944 24.3989 27.9899 23.0574C28.4749 17.9806 27.1541 13.5745 24.4918 9.66364L24.5228 9.67396ZM12.4704 20.3745C11.3147 20.3745 10.3654 19.3117 10.3654 18.0115C10.3654 16.7114 11.2941 15.6382 12.4704 15.6382C13.6468 15.6382 14.5961 16.701 14.5858 18.0012C14.5755 19.3117 13.6571 20.3745 12.4704 20.3745ZM20.2714 20.3745C19.1157 20.3745 18.1561 19.3117 18.1561 18.0115C18.1561 16.7114 19.0848 15.6382 20.2714 15.6382C21.4581 15.6382 22.3971 16.701 22.3765 18.0012C22.3662 19.3117 21.4478 20.3745 20.2714 20.3745Z" fill="white"/>
</g>
</svg>
