<svg width="24" height="24" viewBox="0 0 24 24" fill="none" xmlns="http://www.w3.org/2000/svg">
<path id="Exclude" fill-rule="evenodd" clip-rule="evenodd" d="M0 12C0 5.3724 5.3724 0 12 0C18.6276 0 24 5.3724 24 12C24 18.6276 18.6276 24 12 24C5.3724 24 0 18.6276 0 12ZM11.1515 15.2485C10.9264 15.0235 10.8 14.7182 10.8 14.4V5.99999C10.8 5.68173 10.9264 5.3765 11.1515 5.15146C11.3765 4.92642 11.6817 4.79999 12 4.79999C12.3182 4.79999 12.6235 4.92642 12.8485 5.15146C13.0736 5.3765 13.2 5.68173 13.2 5.99999V14.4C13.2 14.7182 13.0736 15.0235 12.8485 15.2485C12.6235 15.4736 12.3182 15.6 12 15.6C11.6817 15.6 11.3765 15.4736 11.1515 15.2485ZM11.1515 17.1515C11.3765 16.9264 11.6817 16.8 12 16.8C12.3182 16.8 12.6235 16.9264 12.8485 17.1515C13.0736 17.3765 13.2 17.6817 13.2 18C13.2 18.3182 13.0736 18.6235 12.8485 18.8485C12.6235 19.0736 12.3182 19.2 12 19.2C11.6817 19.2 11.3765 19.0736 11.1515 18.8485C10.9264 18.6235 10.8 18.3182 10.8 18C10.8 17.6817 10.9264 17.3765 11.1515 17.1515Z" fill="#6DFFD5"/>
</svg>
