<svg width="140" height="140" viewBox="0 0 140 140" fill="none" xmlns="http://www.w3.org/2000/svg">
<g id="icon__qa">
<path id="Union" fill-rule="evenodd" clip-rule="evenodd" d="M31.8566 19.7891C36.2487 17.9382 40.898 17 45.6747 17C65.2194 17 81.1178 32.9007 81.1178 52.4431C81.1178 71.9854 65.2194 87.8862 45.6747 87.8862H15.7288C15.4879 87.8862 15.2655 87.7611 15.1381 87.5572C15.013 87.351 15.0014 87.0962 15.108 86.8808L20.0723 76.9498C16.9635 73.7089 14.5103 69.9978 12.7752 65.9091C10.9336 61.5749 10 57.0437 10 52.4431C10 43.0032 13.7343 34.1053 20.5125 27.3897C23.7973 24.1349 27.6127 21.5775 31.8566 19.7891ZM55.344 61.4683C56.5555 60.2568 57.5123 58.8437 58.2165 57.2244C58.9207 55.6052 59.2728 53.8955 59.2728 52.0168C59.2728 50.1381 58.9277 48.3914 58.235 46.7722C57.5447 45.1529 56.5741 43.7329 55.3254 42.5097C54.0791 41.2866 52.6197 40.3345 50.9518 39.6558C49.2839 38.977 47.4863 38.6365 45.5589 38.6365C43.6315 38.6365 41.8409 38.977 40.1845 39.6558C38.5305 40.3345 37.078 41.2866 35.8294 42.5097C34.5831 43.7329 33.6056 45.1529 32.9013 46.7722C32.1971 48.3914 31.845 50.1381 31.845 52.0168C31.845 53.8955 32.1971 55.6422 32.9013 57.2615C33.6056 58.8807 34.5831 60.3008 35.8294 61.5239C37.078 62.7471 38.5305 63.6992 40.1845 64.3779C41.8409 65.0566 43.6315 65.3972 45.5589 65.3972C46.6477 65.3972 47.6855 65.279 48.6723 65.0451C49.6615 64.8111 50.5997 64.496 51.4893 64.0999L53.2313 66.2497L57.9385 64.6929L55.344 61.4683ZM53.7868 52.0168C53.7868 50.8076 53.5783 49.6887 53.1567 48.6625C52.7374 47.6362 52.156 46.7467 51.4147 45.9938C50.6734 45.2409 49.8093 44.6479 48.8202 44.2147C47.8333 43.7815 46.7191 43.5661 45.5585 43.5661C44.3979 43.5661 43.3161 43.7815 42.3153 44.2147C41.3146 44.6479 40.4505 45.2409 39.7208 45.9938C38.9934 46.7467 38.4189 47.6362 37.9973 48.6625C37.578 49.6887 37.3672 50.8308 37.3672 52.0168C37.3672 53.2029 37.578 54.3148 37.9973 55.3526C38.4189 56.3905 38.9934 57.287 39.7208 58.0398C40.4505 58.7927 41.3146 59.3881 42.3153 59.8189C43.3161 60.2521 44.3979 60.4676 45.5585 60.4676C46.0542 60.4676 46.5175 60.4236 46.9484 60.3378C47.3816 60.2521 47.7963 60.1224 48.1901 59.9487L45.4102 56.4646L50.0804 54.9079L52.0077 57.28C52.5776 56.5642 53.0154 55.7604 53.3235 54.8708C53.6339 53.9813 53.7868 53.0292 53.7868 52.0168Z" fill="url(#paint0_linear_1537_38939)"/>
<path id="Union_2" fill-rule="evenodd" clip-rule="evenodd" d="M119.506 62.1262C126.277 68.8349 130.005 77.7373 130.005 87.1911C130.005 91.7918 129.073 96.3229 127.232 100.657C125.497 104.746 123.043 108.457 119.935 111.698L124.899 121.629C125.006 121.844 124.994 122.099 124.869 122.305C124.741 122.509 124.517 122.634 124.276 122.634H94.3299C85.6753 122.634 77.3543 119.451 70.9004 113.669C64.5206 107.952 60.4111 100.127 59.3339 91.6342C59.2922 91.3122 59.4798 91.0065 59.7833 90.893C67.4696 88.0645 74.081 83.0515 78.9017 76.3937C83.8244 69.5947 86.5046 61.5586 86.6482 53.1588C86.6552 52.8345 86.8845 52.5565 87.2019 52.4893C89.5393 51.9982 91.9369 51.748 94.3299 51.748C99.1159 51.748 103.77 52.6862 108.162 54.5325C112.406 56.3186 116.224 58.8737 119.506 62.1262ZM102.482 93.3439L105.113 100.164H110.933L100.369 74.2185H94.1793L83.5047 100.164H89.1015L91.7701 93.3439H102.482ZM100.843 89.0444L97.1362 79.4817L93.4297 89.0444H100.843Z" fill="url(#paint1_linear_1537_38939)"/>
</g>
<defs>
<linearGradient id="paint0_linear_1537_38939" x1="45.5589" y1="98.5191" x2="45.5589" y2="9.91139" gradientUnits="userSpaceOnUse">
<stop stop-color="#6DFFD5" stop-opacity="0.2"/>
<stop offset="1" stop-color="#6DFFD5" stop-opacity="0.5"/>
</linearGradient>
<linearGradient id="paint1_linear_1537_38939" x1="96.2823" y1="51.2131" x2="96.2823" y2="123.961" gradientUnits="userSpaceOnUse">
<stop stop-color="#6DFFD5"/>
<stop offset="1" stop-color="#6DFFD5" stop-opacity="0.7"/>
</linearGradient>
</defs>
</svg>
