<svg width="32" height="32" viewBox="0 0 32 32" fill="none" xmlns="http://www.w3.org/2000/svg">
<g id="icon__social">
<path id="Vector" d="M20.9971 15.7064C20.9099 15.6628 20.814 15.6192 20.7267 15.5843C20.561 12.6105 18.939 10.9012 16.2093 10.8837H16.1744C14.5436 10.8837 13.1831 11.5814 12.3459 12.8459L13.8459 13.875C14.4738 12.9244 15.4506 12.7238 16.1744 12.7238H16.2006C17.0988 12.7238 17.7791 12.9942 18.2151 13.5C18.5378 13.875 18.7471 14.3808 18.8517 15.0349C18.0581 14.8954 17.1948 14.8605 16.2703 14.9128C13.6715 15.061 12.0058 16.5785 12.1192 18.6802C12.1802 19.7442 12.7122 20.6686 13.6192 21.2616C14.3866 21.7674 15.3808 22.0203 16.4012 21.9593C17.7616 21.8808 18.8256 21.3663 19.5669 20.4157C20.1337 19.6919 20.4913 18.7674 20.6483 17.5901C21.2936 17.9826 21.7733 18.4971 22.0436 19.1163C22.4971 20.1628 22.5233 21.8895 21.1105 23.3023C19.8808 24.532 18.3895 25.0727 16.1483 25.0814C13.6628 25.064 11.7791 24.2616 10.5581 22.7093C9.4157 21.2529 8.82267 19.1512 8.79651 16.4651C8.82267 13.7703 9.40698 11.6686 10.5581 10.2209C11.7791 8.66861 13.6628 7.86628 16.1483 7.84884C18.6512 7.86628 20.5698 8.6686 21.8343 10.2297C22.4535 10.9971 22.9244 11.9564 23.2384 13.0814L25 12.6105C24.625 11.2238 24.032 10.0378 23.2297 9.05233C21.5988 7.04651 19.218 6.02616 16.157 6H16.1483C13.0872 6.01744 10.7326 7.05523 9.15407 9.06105C7.75 10.8488 7.01744 13.3343 7 16.4564V16.4738C7.02616 19.5959 7.75 22.0814 9.15407 23.8692C10.7326 25.875 13.0872 26.9128 16.1483 26.9302H16.157C18.8779 26.9128 20.7965 26.1977 22.375 24.6192C24.4419 22.5523 24.3808 19.9622 23.7006 18.375C23.2122 17.2326 22.2791 16.3081 21.0058 15.6977L20.9971 15.7064ZM16.2965 20.1192C15.1541 20.1802 13.9767 19.6744 13.9157 18.5756C13.8721 17.7645 14.4913 16.8576 16.3663 16.7529C16.5843 16.7442 16.7936 16.7355 16.9942 16.7355C17.6744 16.7355 18.311 16.8052 18.8866 16.9273C18.6686 19.6221 17.4041 20.0581 16.2878 20.1192H16.2965Z" fill="white"/>
</g>
</svg>
