<svg width="88" height="88" viewBox="0 0 88 88" fill="none" xmlns="http://www.w3.org/2000/svg">
<path d="M67.1218 78.7525C67.7184 78.6033 68.3149 78.3051 68.7625 77.8576L86.6609 59.9592C88.1524 58.4677 88.1524 56.0812 86.6609 54.7388L80.5456 48.6235C79.054 47.132 76.8167 47.132 75.3252 48.6235L57.427 66.5219C56.9796 66.9693 56.6812 67.566 56.5321 68.1626L55.0405 76.9626C54.7422 79.0507 56.5321 80.6915 58.471 80.3931L67.1218 78.7525Z" fill="url(#paint0_linear_2286_22832)"/>
<path d="M57.4238 0H15.6611C7.01009 0 0 7.01009 0 15.6611V72.3391C0 80.9899 7.01009 88 15.6611 88H44.1492C45.1933 88 46.2373 87.5526 47.1322 86.8068C48.3254 85.6137 48.4746 83.6746 47.5796 82.1831C39.6746 70.1016 43.105 53.9932 55.1865 46.0881C59.3627 43.2542 64.4339 41.9119 69.5051 41.9119C71.5932 41.9119 73.2339 40.2712 73.2339 38.1831V15.6611C73.0847 7.01009 66.0746 0 57.4238 0ZM31.9186 69.0577H17.0034C15.9593 69.0577 15.0645 68.6103 14.3187 68.0135C13.573 67.2677 13.2746 66.3728 13.2746 65.3288C13.2746 63.2407 14.9153 61.6 17.0034 61.6H31.9187C32.9629 61.6 33.8577 62.0474 34.6034 62.6441C35.3492 63.3899 35.6476 64.2849 35.6476 65.3288C35.6474 67.4169 34.0067 69.0577 31.9186 69.0577ZM37.8847 50.2643H17.0034C15.9593 50.2643 15.0645 49.8169 14.3187 49.2202C13.573 48.4744 13.2746 47.5795 13.2746 46.5355C13.2746 44.4474 14.9153 42.8067 17.0034 42.8067H37.8849C38.929 42.8067 39.8238 43.2541 40.5695 43.8508C41.3153 44.5966 41.6137 45.4915 41.6137 46.5355C41.6135 48.4746 39.9728 50.2643 37.8847 50.2643ZM46.8339 30.8746H17.0034C15.9593 30.8746 15.0645 30.4272 14.3187 29.8305C13.573 29.0847 13.2746 28.1897 13.2746 27.1458C13.2746 25.0577 14.9153 23.4169 17.0034 23.4169H46.8339C47.878 23.4169 48.7728 23.8643 49.5186 24.4611C50.2643 25.2068 50.5627 26.1018 50.5627 27.1458C50.5627 29.0847 48.922 30.8746 46.8339 30.8746Z" fill="url(#paint1_linear_2286_22832)"/>
<defs>
<linearGradient id="paint0_linear_2286_22832" x1="71.3937" y1="85.3667" x2="71.3937" y2="44.2125" gradientUnits="userSpaceOnUse">
<stop stop-color="#6DFFD5" stop-opacity="0.2"/>
<stop offset="1" stop-color="#6DFFD5" stop-opacity="0.5"/>
</linearGradient>
<linearGradient id="paint1_linear_2286_22832" x1="38.2913" y1="-0.664048" x2="38.2913" y2="89.6466" gradientUnits="userSpaceOnUse">
<stop stop-color="#6DFFD5"/>
<stop offset="1" stop-color="#6DFFD5" stop-opacity="0.7"/>
</linearGradient>
</defs>
</svg>
