<svg width="200" height="200" viewBox="0 0 200 200" fill="none" xmlns="http://www.w3.org/2000/svg">
<path d="M139.572 100.25C136.679 99.8568 133.929 101.893 133.501 104.785C132.179 114.035 127.394 122.071 119.965 127.5C112.072 133.25 101.001 134.928 90.358 132.035C85.6794 130.75 81.7865 128.857 78.5008 126.25H81.858C84.8223 126.25 87.2151 123.857 87.2151 120.893C87.2151 117.928 84.8223 115.535 81.858 115.535H65.1794C62.2151 115.535 59.8223 117.928 59.8223 120.893V137.571C59.8223 140.535 62.2151 142.928 65.1794 142.928C68.1437 142.928 70.5366 140.535 70.5366 137.571V133.607C75.2151 137.678 80.7866 140.535 87.5008 142.393C91.858 143.571 96.2508 144.178 100.608 144.178C110.001 144.178 119.072 141.428 126.251 136.214C136.037 129.107 142.358 118.5 144.108 106.357C144.537 103.428 142.501 100.714 139.572 100.285V100.25Z" fill="#6DFFD5"/>
<path d="M134.823 57.1065C131.859 57.1065 129.466 59.4993 129.466 62.4636V66.4279C124.788 62.3922 119.216 59.4993 112.466 57.6779C98.752 53.8922 84.2877 56.1779 73.7877 63.8208C63.9663 70.9636 57.6092 81.5708 55.8949 93.7136C55.4663 96.6422 57.502 99.3565 60.4306 99.785C60.6806 99.785 60.9306 99.8208 61.1806 99.8208C63.7877 99.8208 66.1092 97.8922 66.4663 95.2136C67.7877 85.9636 72.6092 77.8922 80.0377 72.4993C87.8949 66.785 98.9663 65.1065 109.573 68.035C114.288 69.3208 118.145 71.2136 121.466 73.8208H118.109C115.145 73.8208 112.752 76.2136 112.752 79.1779C112.752 82.1422 115.145 84.535 118.109 84.535H134.788C137.752 84.535 140.145 82.1422 140.145 79.1779V62.4993C140.145 59.535 137.752 57.1422 134.788 57.1422L134.823 57.1065Z" fill="#6DFFD5"/>
<path d="M99.9987 180.357C55.6773 180.357 19.6416 144.321 19.6416 99.9998C19.6416 55.6784 55.6773 19.6426 99.9987 19.6426C144.32 19.6426 180.356 55.6784 180.356 99.9998C180.356 144.321 144.32 180.357 99.9987 180.357ZM99.9987 30.3569C61.6059 30.3569 30.3559 61.6069 30.3559 99.9998C30.3559 138.393 61.6059 169.643 99.9987 169.643C138.392 169.643 169.642 138.393 169.642 99.9998C169.642 61.6069 138.392 30.3569 99.9987 30.3569Z" fill="url(#paint0_linear_73_10420)"/>
<defs>
<linearGradient id="paint0_linear_73_10420" x1="99.9949" y1="-57.4343" x2="99.9949" y2="299.811" gradientUnits="userSpaceOnUse">
<stop stop-color="#6DFFD5"/>
<stop offset="1" stop-color="#1D1B25" stop-opacity="0"/>
</linearGradient>
</defs>
</svg>
