<svg width="44" height="44" viewBox="0 0 44 44" fill="none" xmlns="http://www.w3.org/2000/svg">
<path d="M34.7297 19.525H9.71046C9.08574 19.525 8.58008 20.0307 8.58008 20.6554V36.4808C8.58008 38.3505 10.1016 39.872 11.9712 39.872H32.4689C34.3386 39.872 35.8601 38.3505 35.8601 36.4808V20.6554C35.8601 20.0307 35.3544 19.525 34.7297 19.525ZM28.927 26.3073C28.927 30.0474 25.8848 33.0897 22.1447 33.0897C18.4046 33.0897 15.3624 30.0474 15.3624 26.3073V25.177C15.3624 24.5522 15.8681 24.0466 16.4928 24.0466C17.1175 24.0466 17.6232 24.5522 17.6232 25.177V26.3073C17.6232 28.801 19.6511 30.8289 22.1447 30.8289C24.6384 30.8289 26.6663 28.801 26.6663 26.3073V25.177C26.6663 24.5522 27.1719 24.0466 27.7967 24.0466C28.4214 24.0466 28.927 24.5522 28.927 25.177V26.3073Z" fill="url(#paint0_linear_1915_21056)"/>
<path d="M22.0425 4.40002C21.3153 4.40002 20.606 4.47708 19.9194 4.61743C15.9215 5.45745 12.7685 8.61048 11.9374 12.6083C11.7978 13.2901 11.7207 13.9953 11.7207 14.7177C11.7207 15.033 11.7349 15.3449 11.7626 15.653C11.8452 16.5684 12.6668 17.1944 13.5859 17.1944H18.2073C18.5321 17.1944 18.7214 16.8278 18.5335 16.5629L18.3205 16.2629C18.262 16.1721 18.2662 16.0551 18.3384 15.9781C18.4106 15.9058 18.5283 15.888 18.6232 15.9423L20.7436 17.1944L21.0263 17.3614C21.6533 17.7317 22.4319 17.7319 23.0591 17.3621L23.3435 17.1944L25.4666 15.9423C25.5574 15.888 25.6702 15.901 25.7425 15.9781C25.8147 16.0551 25.8237 16.1721 25.7604 16.2629L25.5475 16.5631C25.3597 16.828 25.5491 17.1944 25.8738 17.1944H30.495C31.4141 17.1944 32.2357 16.5684 32.3182 15.653C32.346 15.3449 32.3602 15.033 32.3602 14.7177C32.3602 9.02602 27.7342 4.40002 22.0425 4.40002ZM25.792 14.2437C25.7782 14.3022 25.7425 14.3517 25.6881 14.3833L22.1553 16.4707C22.1237 16.4934 22.0831 16.5023 22.0425 16.5023C22.0019 16.5023 21.9613 16.4934 21.9255 16.4707L18.3928 14.3833C18.3384 14.3517 18.3026 14.3022 18.2889 14.2437C18.271 14.1845 18.2799 14.126 18.3116 14.0717L21.8485 8.21282C21.8891 8.1454 21.9613 8.10481 22.0425 8.10481C22.1237 8.10481 22.1966 8.1454 22.2372 8.21282L25.7652 14.0717C25.7968 14.126 25.8058 14.1845 25.792 14.2437Z" fill="url(#paint1_linear_1915_21056)"/>
<defs>
<linearGradient id="paint0_linear_1915_21056" x1="22.2215" y1="19.525" x2="22.2215" y2="39.872" gradientUnits="userSpaceOnUse">
<stop stop-color="#6DFFD5" stop-opacity="0.2"/>
<stop offset="1" stop-color="#6DFFD5" stop-opacity="0.5"/>
</linearGradient>
<linearGradient id="paint1_linear_1915_21056" x1="22.0404" y1="4.40002" x2="22.0404" y2="17.9615" gradientUnits="userSpaceOnUse">
<stop stop-color="#6DFFD5"/>
<stop offset="1" stop-color="#6DFFD5" stop-opacity="0.7"/>
</linearGradient>
</defs>
</svg>
