<svg width="44" height="44" viewBox="0 0 44 44" fill="none" xmlns="http://www.w3.org/2000/svg">
<g id="icon__UI">
<g id="Vector">
<path d="M27.7344 17.2503C27.7344 17.3175 27.712 17.4853 27.533 17.586L22.1847 20.6741C22.1288 20.7077 22.0616 20.7301 21.9833 20.7301C21.905 20.7301 21.8491 20.7077 21.7931 20.6741L16.4449 17.586C16.2658 17.4853 16.2435 17.3175 16.2435 17.2503C16.2435 17.1832 16.2658 17.0154 16.4449 16.9147L21.7819 13.8266C21.8379 13.793 21.905 13.7706 21.9833 13.7706C22.0616 13.7706 22.1176 13.793 22.1847 13.8266L27.533 16.9147C27.712 17.0154 27.7344 17.1832 27.7344 17.2503Z" fill="url(#paint0_linear_218_13061)"/>
<path d="M29.5805 20.5846V26.7608C29.5805 26.8951 29.5022 27.0294 29.3791 27.0965L24.0309 30.1846C23.9749 30.2182 23.9078 30.2405 23.8407 30.2405C23.6505 30.2405 23.4491 30.0839 23.4491 29.8489V23.6727C23.4491 23.5385 23.5274 23.4042 23.6505 23.337L28.9987 20.2489C29.0546 20.2154 29.1218 20.193 29.1889 20.193C29.3791 20.193 29.5805 20.3496 29.5805 20.5846Z" fill="url(#paint1_linear_218_13061)"/>
<path d="M20.5511 29.8378V23.6615C20.5511 23.5273 20.4728 23.393 20.3497 23.3259L15.0015 20.2378C14.9344 20.2042 14.8784 20.1818 14.8113 20.1818C14.6211 20.1818 14.4197 20.3385 14.4197 20.5734V26.7497C14.4197 26.8839 14.498 27.0182 14.6099 27.0853L19.9581 30.1734C20.0253 30.207 20.0812 30.2294 20.1483 30.2294C20.3386 30.2294 20.54 30.0727 20.54 29.8378H20.5511Z" fill="url(#paint2_linear_218_13061)"/>
</g>
<g id="Vector_2">
<path d="M4.77482 24.7692C6.30769 24.7692 7.54965 23.5273 7.54965 21.9944C7.54965 20.4616 6.30769 19.2196 4.77482 19.2196C3.24196 19.2196 2 20.4616 2 21.9944C2 23.5273 3.24196 24.7692 4.77482 24.7692Z" fill="url(#paint3_linear_218_13061)"/>
<path d="M9.82099 12.5958C11.3539 12.5958 12.5958 11.3539 12.5958 9.82099C12.5958 8.28812 11.3539 7.04616 9.82099 7.04616C8.28812 7.04616 7.04616 8.28812 7.04616 9.82099C7.04616 11.3539 8.28812 12.5958 9.82099 12.5958Z" fill="url(#paint4_linear_218_13061)"/>
<path d="M9.82099 36.9538C11.3539 36.9538 12.5958 35.7119 12.5958 34.179C12.5958 32.6461 11.3539 31.4042 9.82099 31.4042C8.28812 31.4042 7.04616 32.6461 7.04616 34.179C7.04616 35.7119 8.28812 36.9538 9.82099 36.9538Z" fill="url(#paint5_linear_218_13061)"/>
<path d="M22.0056 42C23.5385 42 24.7804 40.758 24.7804 39.2252C24.7804 37.6923 23.5385 36.4504 22.0056 36.4504C20.4727 36.4504 19.2308 37.6923 19.2308 39.2252C19.2308 40.758 20.4727 42 22.0056 42Z" fill="url(#paint6_linear_218_13061)"/>
<path d="M34.179 36.9538C35.7119 36.9538 36.9539 35.7119 36.9539 34.179C36.9539 32.6461 35.7119 31.4042 34.179 31.4042C32.6462 31.4042 31.4042 32.6461 31.4042 34.179C31.4042 35.7119 32.6462 36.9538 34.179 36.9538Z" fill="url(#paint7_linear_218_13061)"/>
<path d="M39.2251 24.7692C40.758 24.7692 42 23.5273 42 21.9944C42 20.4616 40.758 19.2196 39.2251 19.2196C37.6923 19.2196 36.4503 20.4616 36.4503 21.9944C36.4503 23.5273 37.6923 24.7692 39.2251 24.7692Z" fill="url(#paint8_linear_218_13061)"/>
<path d="M34.179 12.5958C35.7119 12.5958 36.9539 11.3539 36.9539 9.82099C36.9539 8.28812 35.7119 7.04616 34.179 7.04616C32.6462 7.04616 31.4042 8.28812 31.4042 9.82099C31.4042 11.3539 32.6462 12.5958 34.179 12.5958Z" fill="url(#paint9_linear_218_13061)"/>
<path d="M22.0056 7.54965C23.5385 7.54965 24.7804 6.30769 24.7804 4.77482C24.7804 3.24196 23.5385 2 22.0056 2C20.4727 2 19.2308 3.24196 19.2308 4.77482C19.2308 6.30769 20.4727 7.54965 22.0056 7.54965Z" fill="url(#paint10_linear_218_13061)"/>
</g>
</g>
<defs>
<linearGradient id="paint0_linear_218_13061" x1="22.3467" y1="13.6463" x2="22.3467" y2="30.5487" gradientUnits="userSpaceOnUse">
<stop stop-color="#6DFFD5"/>
<stop offset="1" stop-color="#6DFFD5" stop-opacity="0.7"/>
</linearGradient>
<linearGradient id="paint1_linear_218_13061" x1="22.3467" y1="13.6463" x2="22.3467" y2="30.5487" gradientUnits="userSpaceOnUse">
<stop stop-color="#6DFFD5"/>
<stop offset="1" stop-color="#6DFFD5" stop-opacity="0.7"/>
</linearGradient>
<linearGradient id="paint2_linear_218_13061" x1="22.3467" y1="13.6463" x2="22.3467" y2="30.5487" gradientUnits="userSpaceOnUse">
<stop stop-color="#6DFFD5"/>
<stop offset="1" stop-color="#6DFFD5" stop-opacity="0.7"/>
</linearGradient>
<linearGradient id="paint3_linear_218_13061" x1="22" y1="48" x2="22" y2="-2" gradientUnits="userSpaceOnUse">
<stop stop-color="#6DFFD5" stop-opacity="0.2"/>
<stop offset="1" stop-color="#6DFFD5" stop-opacity="0.5"/>
</linearGradient>
<linearGradient id="paint4_linear_218_13061" x1="22" y1="48" x2="22" y2="-2" gradientUnits="userSpaceOnUse">
<stop stop-color="#6DFFD5" stop-opacity="0.2"/>
<stop offset="1" stop-color="#6DFFD5" stop-opacity="0.5"/>
</linearGradient>
<linearGradient id="paint5_linear_218_13061" x1="22" y1="48" x2="22" y2="-2" gradientUnits="userSpaceOnUse">
<stop stop-color="#6DFFD5" stop-opacity="0.2"/>
<stop offset="1" stop-color="#6DFFD5" stop-opacity="0.5"/>
</linearGradient>
<linearGradient id="paint6_linear_218_13061" x1="22" y1="48" x2="22" y2="-2" gradientUnits="userSpaceOnUse">
<stop stop-color="#6DFFD5" stop-opacity="0.2"/>
<stop offset="1" stop-color="#6DFFD5" stop-opacity="0.5"/>
</linearGradient>
<linearGradient id="paint7_linear_218_13061" x1="22" y1="48" x2="22" y2="-2" gradientUnits="userSpaceOnUse">
<stop stop-color="#6DFFD5" stop-opacity="0.2"/>
<stop offset="1" stop-color="#6DFFD5" stop-opacity="0.5"/>
</linearGradient>
<linearGradient id="paint8_linear_218_13061" x1="22" y1="48" x2="22" y2="-2" gradientUnits="userSpaceOnUse">
<stop stop-color="#6DFFD5" stop-opacity="0.2"/>
<stop offset="1" stop-color="#6DFFD5" stop-opacity="0.5"/>
</linearGradient>
<linearGradient id="paint9_linear_218_13061" x1="22" y1="48" x2="22" y2="-2" gradientUnits="userSpaceOnUse">
<stop stop-color="#6DFFD5" stop-opacity="0.2"/>
<stop offset="1" stop-color="#6DFFD5" stop-opacity="0.5"/>
</linearGradient>
<linearGradient id="paint10_linear_218_13061" x1="22" y1="48" x2="22" y2="-2" gradientUnits="userSpaceOnUse">
<stop stop-color="#6DFFD5" stop-opacity="0.2"/>
<stop offset="1" stop-color="#6DFFD5" stop-opacity="0.5"/>
</linearGradient>
</defs>
</svg>
