<svg width="26" height="26" viewBox="0 0 26 26" fill="none" xmlns="http://www.w3.org/2000/svg">
<circle cx="13" cy="13" r="12" fill="url(#paint0_linear_232_23780)"/>
<circle cx="13" cy="13" r="12.5" stroke="white" stroke-opacity="0.12"/>
<path d="M16.3667 10.5871C16.1274 10.4478 15.8198 10.4478 15.5464 10.5871L13.6323 11.7364L12.3335 12.4677L10.4536 13.617C10.2143 13.7563 9.9067 13.7563 9.63326 13.617L8.16352 12.7115C7.92427 12.5722 7.75337 12.2936 7.75337 11.9801V10.2388C7.75337 9.96022 7.89009 9.68161 8.16352 9.50748L9.63326 8.63683C9.87252 8.49752 10.1801 8.49752 10.4536 8.63683L11.9233 9.54231C12.1626 9.68161 12.3335 9.96022 12.3335 10.2737V11.4229L13.6323 10.6567V9.47265C13.6323 9.19405 13.4956 8.91544 13.2222 8.74131L10.4878 7.10448C10.2485 6.96517 9.94088 6.96517 9.66744 7.10448L6.86469 8.77613C6.59125 8.91544 6.45453 9.19405 6.45453 9.47265V12.7463C6.45453 13.0249 6.59125 13.3035 6.86469 13.4777L9.63326 15.1145C9.87252 15.2538 10.1801 15.2538 10.4536 15.1145L12.3335 14L13.6323 13.2339L15.5122 12.1194C15.7515 11.9801 16.0591 11.9801 16.3325 12.1194L17.8023 12.9901C18.0415 13.1294 18.2124 13.408 18.2124 13.7214V15.4627C18.2124 15.7414 18.0757 16.02 17.8023 16.1941L16.3667 17.0647C16.1274 17.2041 15.8198 17.2041 15.5464 17.0647L14.0767 16.1941C13.8374 16.0548 13.6665 15.7762 13.6665 15.4627V14.3483L12.3677 15.1145V16.2637C12.3677 16.5424 12.5044 16.821 12.7778 16.9951L15.5464 18.6319C15.7856 18.7712 16.0933 18.7712 16.3667 18.6319L19.1353 16.9951C19.3745 16.8558 19.5454 16.5772 19.5454 16.2637V12.9553C19.5454 12.6767 19.4087 12.398 19.1353 12.2239L16.3667 10.5871Z" fill="white"/>
<defs>
<linearGradient id="paint0_linear_232_23780" x1="1.00278" y1="1" x2="22.2311" y2="27.2421" gradientUnits="userSpaceOnUse">
<stop stop-color="#A726C1"/>
<stop offset="1" stop-color="#7B3FE4"/>
</linearGradient>
</defs>
</svg>
