<svg width="26" height="26" viewBox="0 0 26 26" fill="none" xmlns="http://www.w3.org/2000/svg">
<circle cx="13" cy="13" r="12" fill="black"/>
<circle cx="13" cy="13" r="12.5" stroke="white" stroke-opacity="0.12"/>
<path d="M18.3974 15.7834L16.5965 17.7143C16.5576 17.7563 16.5104 17.7898 16.4579 17.8127C16.4055 17.8356 16.3489 17.8474 16.2916 17.8475H7.75471C7.71399 17.8475 7.67417 17.8356 7.64011 17.8132C7.60605 17.7909 7.57923 17.7592 7.56295 17.7219C7.54666 17.6845 7.54161 17.6433 7.54841 17.6031C7.55522 17.563 7.57358 17.5257 7.60125 17.4958L9.4001 15.5649C9.43905 15.5229 9.48623 15.4895 9.53868 15.4665C9.59114 15.4436 9.64775 15.4318 9.70499 15.4317H18.2419C18.283 15.4309 18.3234 15.4422 18.3581 15.4643C18.3928 15.4863 18.4201 15.5182 18.4368 15.5558C18.4534 15.5934 18.4585 15.635 18.4515 15.6755C18.4445 15.716 18.4257 15.7535 18.3974 15.7834ZM16.5965 11.894C16.5574 11.8522 16.5102 11.8189 16.4578 11.796C16.4054 11.7731 16.3488 11.7611 16.2916 11.7608H7.75471C7.71399 11.7609 7.67417 11.7728 7.64011 11.7951C7.60605 11.8174 7.57923 11.8491 7.56295 11.8865C7.54666 11.9238 7.54161 11.965 7.54841 12.0052C7.55522 12.0453 7.57358 12.0826 7.60125 12.1125L9.4001 14.0445C9.4392 14.0862 9.48641 14.1196 9.53883 14.1425C9.59125 14.1654 9.64779 14.1773 9.70499 14.1776H18.2419C18.2825 14.1774 18.3222 14.1654 18.3561 14.143C18.39 14.1206 18.4167 14.0888 18.4329 14.0515C18.449 14.0143 18.454 13.9731 18.4472 13.933C18.4403 13.893 18.422 13.8558 18.3944 13.826L16.5965 11.894ZM7.75471 10.5067H16.2916C16.3489 10.5067 16.4055 10.4948 16.458 10.4719C16.5104 10.449 16.5576 10.4156 16.5965 10.3736L18.3974 8.44263C18.4185 8.42031 18.4344 8.39361 18.444 8.36442C18.4536 8.33524 18.4566 8.3043 18.4529 8.27381C18.4491 8.24332 18.4387 8.21404 18.4223 8.18805C18.4059 8.16207 18.384 8.14003 18.3581 8.12351C18.3234 8.10145 18.283 8.09014 18.2419 8.09099H9.70499C9.64775 8.09105 9.59114 8.1029 9.53868 8.12581C9.48623 8.14871 9.43905 8.18218 9.4001 8.22412L7.60125 10.1551C7.57358 10.185 7.55522 10.2223 7.54841 10.2624C7.54161 10.3025 7.54666 10.3438 7.56295 10.3811C7.57923 10.4184 7.60605 10.4502 7.64011 10.4725C7.67417 10.4948 7.71399 10.5067 7.75471 10.5067Z" fill="url(#paint0_linear_232_23783)"/>
<defs>
<linearGradient id="paint0_linear_232_23783" x1="8.46612" y1="18.0802" x2="17.4177" y2="7.98834" gradientUnits="userSpaceOnUse">
<stop offset="0.08" stop-color="#9945FF"/>
<stop offset="0.3" stop-color="#8752F3"/>
<stop offset="0.5" stop-color="#5497D5"/>
<stop offset="0.6" stop-color="#43B4CA"/>
<stop offset="0.72" stop-color="#28E0B9"/>
<stop offset="0.97" stop-color="#19FB9B"/>
</linearGradient>
</defs>
</svg>
