<svg width="520" height="238" viewBox="0 0 520 238" fill="none" xmlns="http://www.w3.org/2000/svg">
<path fill-rule="evenodd" clip-rule="evenodd" d="M85.8671 1.80569C87.3751 3.39812 87.3262 5.93029 85.7579 7.46146L13.7201 77.7942H516.061C518.236 77.7942 520 79.5851 520 81.7942C520 84.0033 518.236 85.7942 516.061 85.7942H3.93953C2.33212 85.7942 0.885938 84.8026 0.285398 83.2886C-0.315141 81.7747 0.0504288 80.0421 1.2091 78.9109L80.297 1.6948C81.8653 0.163624 84.3591 0.213275 85.8671 1.80569ZM0.000101422 156.206C0.000101422 153.997 1.76383 152.206 3.93949 152.206H516.06C517.668 152.206 519.114 153.197 519.715 154.711C520.315 156.225 519.95 157.958 518.791 159.089L439.703 236.305C438.135 237.836 435.641 237.787 434.133 236.194C432.625 234.602 432.674 232.07 434.242 230.538L506.28 160.206H3.93949C1.76383 160.206 0.000101422 158.415 0.000101422 156.206Z" fill="url(#paint0_linear_256_11385)"/>
<defs>
<linearGradient id="paint0_linear_256_11385" x1="699.4" y1="119" x2="3.9395" y2="119" gradientUnits="userSpaceOnUse">
<stop stop-color="#6DFFD5"/>
<stop offset="1" stop-color="#6DFFD5" stop-opacity="0"/>
</linearGradient>
</defs>
</svg>
