<svg width="50" height="50" viewBox="0 0 50 50" fill="none" xmlns="http://www.w3.org/2000/svg">
<g id="tokens__icons">
<g id="Ellipse">
<circle cx="25" cy="25" r="24" fill="#2775CA"/>
<circle cx="25" cy="25" r="24.5" stroke="white" stroke-opacity="0.12"/>
</g>
<path id="Vector" d="M19.9 39.3C12.1 36.5001 8.09992 27.8001 11.0001 20.1C12.5001 15.9 15.8001 12.7 19.9 11.2C20.3001 11.0001 20.5 10.7001 20.5 10.2V8.80004C20.5 8.39996 20.3001 8.09996 19.9 8.00012C19.7999 8.00012 19.6 8.00012 19.4999 8.09996C10 11.1 4.79992 21.2001 7.79992 30.7C9.59992 36.3 13.9 40.6 19.4999 42.4C19.9 42.6 20.3001 42.4 20.3999 42C20.5 41.9001 20.5 41.8 20.5 41.6001V40.2C20.5 39.9 20.2 39.5001 19.9 39.3ZM30.5001 8.09996C30.1 7.90004 29.6999 8.09996 29.6001 8.50004C29.5 8.60012 29.5 8.69996 29.5 8.90012V10.3C29.5 10.7001 29.8 11.1 30.1 11.3001C37.9 14.1 41.9001 22.8 38.9999 30.5001C37.4999 34.7001 34.1999 37.9 30.1 39.4C29.6999 39.6 29.5 39.9 29.5 40.4001V41.8C29.5 42.2001 29.6999 42.5001 30.1 42.6C30.2001 42.6 30.4 42.6 30.5001 42.5001C40 39.5001 45.2001 29.4 42.2001 19.9C40.4001 14.2 35.9999 9.89996 30.5001 8.09996Z" fill="white"/>
<path id="Vector_2" d="M31.6001 28.8C31.6001 25.3 29.5001 24.1 25.3001 23.6001C22.3001 23.2 21.7001 22.4001 21.7001 21C21.7001 19.5998 22.7002 18.7 24.7001 18.7C26.5001 18.7 27.5002 19.3 28.0001 20.8C28.1002 21.1 28.4002 21.3 28.7002 21.3H30.3C30.7001 21.3 31.0001 21 31.0001 20.6001V20.5C30.6 18.3 28.8 16.6 26.5001 16.4001V14.0001C26.5001 13.6 26.2001 13.3 25.7002 13.2H24.2002C23.8001 13.2 23.5001 13.5 23.4 14.0001V16.3C20.4 16.7001 18.5002 18.7 18.5002 21.2001C18.5002 24.5001 20.5001 25.8 24.7001 26.3001C27.5002 26.8 28.4002 27.4 28.4002 29.0001C28.4002 30.6002 27 31.7001 25.1002 31.7001C22.5 31.7001 21.6 30.6 21.3 29.1C21.2002 28.7001 20.9002 28.5 20.6002 28.5H18.9C18.5002 28.5 18.2002 28.8 18.2002 29.2V29.3001C18.6 31.8 20.2001 33.6 23.5001 34.1001V36.5001C23.5001 36.9 23.8001 37.2 24.3 37.3H25.8C26.2001 37.3 26.5001 37 26.6002 36.5001V34.1001C29.6002 33.6 31.6001 31.5 31.6001 28.8Z" fill="white"/>
</g>
</svg>
