<svg width="174" height="80" viewBox="0 0 174 80" fill="none" xmlns="http://www.w3.org/2000/svg">
<g clip-path="url(#clip0_2317_25772)">
<path fill-rule="evenodd" clip-rule="evenodd" d="M0.481445 31.5439V53.0153H15.8908V50.2512H3.6078V43.2614H13.6668V40.4972H3.6078V34.3016H15.8908V31.5439H0.481445ZM58.6431 34.9181V53.0154L58.6369 53.0217H61.7632V43.0518C61.7632 42.2764 61.9157 41.533 62.2207 40.8277C62.5258 40.1223 62.9451 39.506 63.4788 38.9849C64.0127 38.4639 64.6291 38.0508 65.3217 37.7458C66.0142 37.4407 66.7642 37.2883 67.5584 37.2883C68.2765 37.2883 68.9501 37.3899 69.5854 37.5933C70.221 37.7966 70.7737 38.108 71.2566 38.5147C71.7395 38.9214 72.1208 39.4297 72.4069 40.0333C72.6991 40.6306 72.839 41.3424 72.839 42.1622V53.0154H75.8128V41.1772C75.8128 40.2621 75.6476 39.3979 75.3235 38.6036C74.9931 37.8094 74.5292 37.1104 73.9254 36.5195C73.3219 35.9221 72.6037 35.4582 71.7649 35.1214C70.9263 34.7783 69.9985 34.6131 68.9755 34.6131C67.8126 34.6131 66.8214 34.8165 66.0016 35.2232C65.1818 35.6361 64.5147 36.1128 63.9936 36.6655C63.4726 37.2184 63.0849 37.7776 62.8307 38.3367C62.5766 38.896 62.424 39.3217 62.386 39.6076H61.7696V34.9181H58.6431ZM52.4731 34.9053C51.8186 34.7147 51.1322 34.6131 50.4206 34.6131C49.2578 34.6131 48.2602 34.8165 47.4468 35.2232C46.627 35.6297 45.9598 36.1128 45.4387 36.6655C44.9178 37.2184 44.5301 37.7776 44.2759 38.3367C44.0218 38.9022 43.8692 39.3217 43.8311 39.6076H43.221V34.9181H40.0947V53.0154H43.221V43.2296C43.221 42.4925 43.3736 41.7871 43.6785 41.1135C43.9836 40.44 44.3967 39.8491 44.924 39.3343C45.4451 38.826 46.0551 38.4129 46.7478 38.108C47.4404 37.803 48.1902 37.6505 48.9845 37.6505C49.8423 37.6505 50.6431 37.7966 51.3737 38.0826C51.6978 38.2097 52.2507 38.4639 52.8036 38.7562L55.377 36.1826C54.9703 35.8775 53.1277 35.1024 52.4731 34.9053ZM32.2851 48.9041C32.6792 48.5482 32.9524 48.167 33.0921 47.7603V46.8516C32.927 46.464 32.6284 46.1145 32.2025 45.8094C31.7768 45.5045 31.2621 45.2375 30.6585 45.0152C30.0612 44.7864 29.3876 44.6212 28.6569 44.5069C27.9261 44.3925 27.1825 44.3479 26.4264 44.3671C25.8736 44.3671 25.3271 44.4243 24.7742 44.5323C24.2215 44.6466 23.7258 44.8246 23.2746 45.066C22.8298 45.3139 22.4613 45.6316 22.1754 46.0319C21.8893 46.4258 21.7495 46.9025 21.7495 47.5124C21.7495 48.1225 21.8893 48.6372 22.1754 49.0566C22.4613 49.4696 22.8362 49.8063 23.2937 50.0478C23.7512 50.2956 24.2723 50.4673 24.8506 50.5689C25.4351 50.6705 26.0071 50.7213 26.579 50.7213C27.3924 50.7213 28.1612 50.6451 28.8855 50.4927C29.6099 50.3402 30.2581 50.1242 30.83 49.8509C31.4019 49.5777 31.8848 49.26 32.2851 48.9041ZM30.9952 35.1024C32.0246 35.3882 32.927 35.7949 33.7022 36.3224H33.6894C34.4648 36.8498 35.0747 37.4915 35.5259 38.2477C35.9771 38.9976 36.1994 39.8554 36.1994 40.8149V53.0153H33.0795V49.9272H32.5584C32.4313 50.3719 32.1963 50.804 31.853 51.2107C31.5099 51.6173 31.0524 51.9796 30.4933 52.2973C29.9278 52.615 29.2668 52.8628 28.5043 53.0471C27.7419 53.2313 26.8777 53.3203 25.9817 53.3203C25.0857 53.3203 24.1961 53.2059 23.3065 52.9836C22.4168 52.7548 21.6289 52.4117 20.9489 51.9414C20.269 51.4775 19.7098 50.8676 19.2841 50.1242C18.8584 49.3806 18.655 48.491 18.674 47.449C18.6932 46.5276 18.8965 45.746 19.2713 45.0914C19.6526 44.4369 20.1355 43.9032 20.7265 43.4837C21.3174 43.0644 21.9911 42.7403 22.7473 42.5179C23.5035 42.2954 24.2533 42.143 25.0094 42.0604C25.7846 41.9841 26.5726 41.9777 27.3796 42.0477C28.1866 42.124 28.9491 42.2446 29.6735 42.4162C30.3979 42.5879 31.0588 42.8039 31.6624 43.0708C32.2661 43.3376 32.7364 43.6363 33.0859 43.9604V41.5774C33.0859 40.9039 32.9206 40.3066 32.5838 39.7728C32.2471 39.2391 31.8086 38.7942 31.2685 38.4257C30.7284 38.0571 30.1374 37.7838 29.4829 37.5995C28.8347 37.4153 28.1994 37.3263 27.5892 37.3263C27.0427 37.3263 26.4582 37.4027 25.8482 37.5551C25.2319 37.7076 24.66 37.9428 24.1325 38.2605C23.6051 38.5782 23.1666 38.9849 22.8171 39.4868C22.6773 39.6902 22.5757 39.9063 22.4867 40.1413H19.2269C19.3349 39.3534 19.57 38.6672 19.9259 38.0825C20.447 37.2375 21.1078 36.5575 21.9147 36.0492C22.7217 35.5409 23.6369 35.185 24.6536 34.9815C25.6702 34.7783 26.6932 34.6767 27.7101 34.6767C28.8729 34.6767 29.9658 34.8163 30.9952 35.1024ZM82.809 43.0644H87.4857C88.4643 43.0644 89.2777 42.95 89.9323 42.7149C90.5868 42.4798 91.1077 42.162 91.508 41.7491C91.9085 41.3424 92.188 40.8721 92.3468 40.3448C92.5121 39.8173 92.5947 39.2453 92.5947 38.6354C92.5947 38.0825 92.5121 37.5487 92.3468 37.0278C92.1816 36.5067 91.9147 36.0492 91.5334 35.6489C91.1586 35.2484 90.6502 34.9371 90.0085 34.7021C89.3667 34.4668 88.566 34.3526 87.6065 34.3526H82.809V43.0644ZM79.6889 53.0027V31.5948H88.674C90.0211 31.5948 91.1459 31.7916 92.0546 32.1729C92.9633 32.5606 93.6877 33.0817 94.2405 33.7298C94.7934 34.3842 95.1873 35.1342 95.4351 35.9792C95.6766 36.8244 95.8036 37.7076 95.8036 38.6226C95.8036 39.6012 95.6322 40.5162 95.2827 41.3742C94.9332 42.232 94.4311 42.9754 93.7703 43.6045C93.1094 44.2336 92.3152 44.7356 91.3874 45.1041C90.4596 45.4727 89.4175 45.657 88.2547 45.657H82.8153V52.9963H79.6953L79.6889 53.0027ZM145.355 43.3949V43.8206L151.9 52.9328H148.291L142.788 45.0406H140.011V52.9328H136.891V35.8077V31.9252V31.5948H138.48H140.011V33.5138V35.8077V42.5053H142.604L147.408 34.8927H150.706L145.355 43.3949ZM131.674 34.9243C131.02 34.7273 130.333 34.6321 129.622 34.6321C128.459 34.6321 127.461 34.8353 126.648 35.2484C125.828 35.6551 125.161 36.138 124.64 36.6909C124.119 37.2437 123.731 37.803 123.477 38.3621C123.223 38.9276 123.07 39.347 123.032 39.633H122.422V34.9434H119.296V53.0407H122.422V43.255C122.422 42.5179 122.575 41.8125 122.88 41.139C123.185 40.4654 123.598 39.8745 124.125 39.3597C124.646 38.8514 125.256 38.4383 125.949 38.1333C126.641 37.8284 127.391 37.6758 128.186 37.6758C129.044 37.6758 129.844 37.822 130.575 38.1079C130.899 38.2351 131.452 38.4892 132.005 38.7814L134.578 36.208C134.172 35.903 132.329 35.1278 131.674 34.9307V34.9243ZM111.467 48.9103C111.861 48.5546 112.135 48.1733 112.274 47.7667H112.281V46.8516C112.115 46.464 111.817 46.1145 111.391 45.8094C110.965 45.5045 110.444 45.2375 109.847 45.0152C109.249 44.7928 108.582 44.6275 107.845 44.5131C107.115 44.3989 106.371 44.3543 105.615 44.3733C105.062 44.3733 104.516 44.4243 103.963 44.5385C103.41 44.653 102.908 44.831 102.463 45.0724C102.018 45.3201 101.65 45.638 101.364 46.0383C101.078 46.4322 100.938 46.9089 100.938 47.5188C100.938 48.1288 101.078 48.6435 101.364 49.063C101.65 49.476 102.025 49.8127 102.482 50.0542C102.94 50.302 103.461 50.4737 104.039 50.5753C104.624 50.6769 105.196 50.7277 105.767 50.7277C106.581 50.7277 107.35 50.6515 108.074 50.4991C108.792 50.3465 109.44 50.1304 110.012 49.8572C110.584 49.5841 111.067 49.2662 111.467 48.9103ZM110.177 35.1024C111.207 35.3946 112.109 35.8013 112.884 36.3287L112.865 36.3224C113.64 36.8498 114.25 37.4915 114.702 38.2477C115.153 39.0039 115.375 39.8554 115.375 40.8149V53.0153H112.255V49.9272H111.734C111.607 50.3719 111.372 50.804 111.029 51.2107C110.686 51.6173 110.228 51.9796 109.669 52.2973C109.103 52.615 108.443 52.8628 107.68 53.0471C106.918 53.2313 106.053 53.3203 105.157 53.3203C104.261 53.3203 103.365 53.2059 102.482 52.9836C101.593 52.7548 100.805 52.4117 100.125 51.9414C99.4448 51.4775 98.8855 50.8676 98.4598 50.1242C98.0341 49.3806 97.8307 48.491 97.8499 47.449C97.8689 46.5276 98.0721 45.746 98.447 45.0914C98.8283 44.4369 99.3112 43.9032 99.9023 43.4837C100.493 43.0644 101.167 42.7403 101.923 42.5179C102.679 42.2954 103.429 42.143 104.185 42.0604C104.96 41.9841 105.748 41.9777 106.555 42.0477C107.362 42.124 108.125 42.2446 108.849 42.4162C109.574 42.5879 110.235 42.8039 110.838 43.0708C111.442 43.3376 111.912 43.6363 112.262 43.9604V41.5774C112.262 40.9039 112.096 40.3066 111.759 39.7728C111.423 39.2391 110.984 38.7942 110.444 38.4257C109.904 38.0571 109.313 37.7838 108.659 37.5995C108.01 37.4153 107.375 37.3263 106.765 37.3263C106.219 37.3263 105.634 37.4027 105.024 37.5551C104.414 37.7076 103.842 37.9428 103.315 38.2605C102.787 38.5782 102.349 38.9849 101.999 39.4868C101.859 39.6902 101.758 39.9063 101.669 40.1413H98.409C98.517 39.3534 98.7521 38.6672 99.108 38.0825C99.6291 37.2375 100.29 36.5575 101.097 36.0492C101.904 35.5409 102.819 35.185 103.836 34.9815C104.852 34.7783 105.875 34.6767 106.892 34.6767C108.055 34.6767 109.148 34.8163 110.177 35.1024Z" fill="white"/>
<path fill-rule="evenodd" clip-rule="evenodd" d="M170.369 11.8516H132.49C131.912 11.8516 131.624 12.5474 132.032 12.9611L140.862 21.8122C141.269 22.2197 141.821 22.4516 142.398 22.4516H152.476C157.431 22.4579 162.184 20.4896 165.69 16.9917L166.355 16.3273C166.568 16.1141 166.919 16.1141 167.139 16.3273L168.857 18.0449C169.07 18.258 169.07 18.609 168.857 18.8284L168.224 19.4615C164.731 22.9531 162.761 27.6796 162.755 32.6191L162.73 42.7553C162.73 43.332 162.956 43.8899 163.363 44.2973L172.212 53.1422C172.62 53.5498 173.322 53.2613 173.322 52.6847V14.7602C173.322 14.4969 173.216 14.2461 173.028 14.0643L171.046 12.1336C170.864 11.9581 170.619 11.8578 170.362 11.8578" fill="#B8F400"/>
</g>
<defs>
<clipPath id="clip0_2317_25772">
<rect width="173.037" height="80" fill="white" transform="translate(0.481445)"/>
</clipPath>
</defs>
</svg>
