<svg width="84" height="80" viewBox="0 0 84 80" fill="none" xmlns="http://www.w3.org/2000/svg">
<g clip-path="url(#clip0_2317_25654)">
<path d="M7.87358 53.1073H14.3611L18.8119 35.5684L23.4135 53.1073H29.901L37.256 26.7047H31.5228L26.5441 45.9786L21.5276 26.7047H16.4356L11.2682 45.9786L6.40258 26.667L0.518555 26.7047L7.87358 53.1073Z" fill="white"/>
<path d="M47.0535 53.3329C52.2209 53.3329 55.5778 50.3154 56.1813 46.5436H50.9385C50.4858 48.3541 48.9771 49.297 46.8272 49.297C44.1492 49.297 42.3765 47.6374 42.2633 44.884V44.62H56.3321C56.4453 44.0165 56.483 43.3753 56.483 42.8095C56.4076 37.1141 52.4849 33.4932 46.6763 33.4932C40.6791 33.4932 36.7188 37.4158 36.7188 43.4507C36.7188 49.4479 40.6037 53.3329 47.0535 53.3329ZM42.3765 41.1499C42.6782 38.8491 44.4132 37.4536 46.714 37.4536C49.128 37.4536 50.7499 38.7737 51.1271 41.1499H42.3765Z" fill="white"/>
<path d="M80.4711 48.6181C79.1132 48.6181 78.5852 48.0524 78.5852 46.6945V38.2079H82.9982V33.7195H78.5852V28.2881H73.267V47.562C73.267 51.2584 75.1152 53.1066 78.8115 53.1066H83.2245V48.6181H80.4711ZM64.2146 33.7195H59.3867V53.1066H64.705V43.6016C64.705 40.6596 65.9118 38.5474 69.0803 38.5474H71.1925V33.7195H70.2872C67.2698 33.7195 65.7611 34.8887 64.705 36.6238L64.2146 33.7195Z" fill="white"/>
</g>
<defs>
<clipPath id="clip0_2317_25654">
<rect width="82.963" height="80" fill="white" transform="translate(0.518555)"/>
</clipPath>
</defs>
</svg>
