<svg width="134" height="80" viewBox="0 0 134 80" fill="none" xmlns="http://www.w3.org/2000/svg">
<path d="M40.8346 72.527L39.0552 74.4833C38.2705 75.4558 37.2536 75.4559 36.7452 75.4559H31.1748V62.3809H36.7452C38.2815 62.3809 38.7899 63.0219 39.0552 63.3313L40.8346 65.2876C41.2435 65.7297 41.343 66.0834 41.3983 66.2602C41.5419 66.7797 41.5419 67.3433 41.5419 67.6197V70.2059C41.5419 71.0349 41.4425 71.3775 41.3873 71.5544C41.2325 72.0738 40.9673 72.3833 40.8346 72.527ZM38.0494 73.4222L39.442 71.9633C39.7625 71.6207 39.8399 71.3333 39.873 71.1897C39.9946 70.7585 39.9946 70.3165 39.9946 70.0954V67.7192C39.9946 67.0449 39.9173 66.7687 39.873 66.6249C39.7514 66.1939 39.5415 65.9729 39.442 65.8513L38.0494 64.3924C37.4194 63.674 36.6679 63.674 36.292 63.674H32.7111V74.1516H36.292C37.4194 74.1516 37.8394 73.6654 38.0494 73.4332V73.4222Z" fill="white"/>
<path d="M51.4635 73.864L50.723 74.6598C50.314 75.113 49.9935 75.2566 49.8277 75.3229C49.3414 75.533 48.8662 75.533 48.6341 75.533H47.1199C46.1031 75.533 45.661 75.0908 45.4289 74.8588L44.191 73.5436C43.7158 73.002 43.7158 72.2283 43.7158 71.8525V69.8852C43.7158 68.7468 44.0364 68.3931 44.191 68.2052L45.451 66.89C46.1252 66.2158 46.7994 66.2158 47.142 66.2158H48.402C49.474 66.2158 49.883 66.6579 50.093 66.89L51.353 68.2052C51.6182 68.5036 51.6845 68.7689 51.7177 68.8905C51.8172 69.2773 51.8172 69.6752 51.8172 69.8741V71.4546H45.1747V71.7862C45.1747 72.6372 45.4179 72.9025 45.5395 73.0351L46.2799 73.853C46.501 74.1072 46.6779 74.1625 46.7662 74.1956C47.0204 74.2951 47.3188 74.2951 47.4626 74.2951H48.1478C48.7888 74.2951 49.032 74.2067 49.1536 74.1625C49.5183 74.0298 49.7172 73.8198 49.8167 73.7093L50.5572 72.9135H51.4746V73.853L51.4635 73.864ZM50.3693 70.272V69.8852C50.3693 69.1226 50.1483 68.8352 50.0378 68.6915L49.3525 67.8957C49.1425 67.6305 48.9546 67.5642 48.8551 67.531C48.5788 67.4316 48.2804 67.4316 48.1367 67.4316H47.4183C47.0094 67.4316 46.8325 67.5089 46.7442 67.542C46.4788 67.6526 46.3242 67.8184 46.2468 67.9068L45.5284 68.7026C45.1747 69.1004 45.1747 69.6309 45.1747 69.8963V70.283H50.3915L50.3693 70.272Z" fill="white"/>
<path d="M61.6806 75.4561H60.2549V74.0745L59.5144 74.826C59.1386 75.2018 58.8955 75.3234 58.7739 75.3786C58.4092 75.5555 58.0666 75.5555 57.9007 75.5555H57.0608C55.9224 75.5555 55.5245 75.1134 55.3366 74.8813L54.364 73.7539C54.1208 73.4666 54.0545 73.2124 54.0213 73.0798C53.9219 72.693 53.9219 72.273 53.9219 72.0629V66.3047H55.3808V72.0187C55.3808 72.925 55.6019 73.2124 55.7124 73.3561L56.0992 73.8424C56.3093 74.0966 56.475 74.1519 56.5634 74.185C56.8176 74.2845 57.105 74.2845 57.2486 74.2845H57.8455C58.2876 74.2845 58.4645 74.2292 58.5528 74.1961C58.807 74.1076 58.9618 73.953 59.0391 73.8755L59.8349 73.0798C60.2438 72.6708 60.2438 72.074 60.2438 71.7756V66.3157H61.6917V75.4561H61.6806Z" fill="white"/>
<path d="M71.0566 74.4281L70.1835 75.1023C69.6088 75.5443 68.8461 75.5443 68.4704 75.5443H66.923C66.2046 75.5443 65.8841 75.4117 65.7183 75.3344C65.221 75.1243 64.9226 74.8259 64.7789 74.6823L64.0273 73.9086V72.936H64.9999L65.8399 73.7981C66.3594 74.3507 66.9341 74.3507 67.2214 74.3507H68.4814C69.0672 74.3507 69.2551 74.2291 69.3546 74.1738L69.9293 73.787C70.2498 73.577 70.2498 73.2786 70.2498 73.1239V72.6817C70.2498 72.2065 70.0398 72.096 69.9293 72.0408L69.3546 71.7092C68.9899 71.5102 68.603 71.5102 68.4041 71.5102H67.2104C66.7351 71.5102 66.6136 71.5102 66.5583 71.5102C66.3815 71.5102 66.1825 71.466 66.083 71.4439C65.7957 71.3776 65.652 71.2892 65.5857 71.2449L64.5136 70.5708C63.9941 70.2392 63.9941 69.6092 63.9941 69.2998V68.5924C63.9941 67.7634 64.3921 67.4761 64.591 67.3324L65.4862 66.6803C66.072 66.2383 66.8236 66.2383 67.1994 66.2383H68.7467C69.4651 66.2383 69.8077 66.3709 69.9735 66.4372C70.4819 66.6361 70.7472 66.9345 70.8798 67.0782L71.6314 67.885V68.8355H70.6809L69.8409 67.9735C69.2993 67.4098 68.7467 67.4098 68.4593 67.4098H67.1994C66.6246 67.4098 66.4147 67.5425 66.3152 67.6088L65.7405 67.9955C65.4199 68.2056 65.4199 68.504 65.4199 68.6587V69.1008C65.4199 69.5761 65.63 69.6865 65.7405 69.7418L66.3152 70.0734C66.6799 70.2723 67.0888 70.2723 67.2877 70.2723H68.4814C68.9456 70.2723 69.0672 70.2723 69.1225 70.2723C69.2993 70.2723 69.4982 70.3166 69.5977 70.3386C69.8961 70.4049 70.0288 70.4934 70.1061 70.5377L71.1561 71.2118C71.6866 71.5655 71.6866 72.1844 71.6866 72.505V73.1902C71.6866 73.9749 71.2887 74.2844 71.0898 74.4391L71.0566 74.4281Z" fill="white"/>
<path d="M82.7655 73.9527L81.3619 75.0137C80.7208 75.489 79.8808 75.489 79.4719 75.489H77.3609C75.9131 75.489 75.261 74.8811 74.9294 74.5827L73.7689 73.4553V72.4164H74.8079L76.0567 73.5991C76.731 74.2179 77.3499 74.2179 77.6593 74.2179H79.4719C79.7262 74.2179 79.8035 74.2179 79.8367 74.2179C79.9583 74.2179 80.0687 74.1737 80.124 74.1627C80.2898 74.1185 80.3893 74.0411 80.4335 74.008L81.5387 73.2343C81.8924 72.9912 81.8924 72.6706 81.8924 72.5159V71.1785C81.8924 70.6812 81.6603 70.5375 81.5387 70.4712L80.4666 69.8412C80.0687 69.6313 79.6266 69.6313 79.4056 69.6313H77.6815C77.2173 69.6313 77.0625 69.6313 76.9962 69.6313C76.7751 69.6313 76.5762 69.576 76.4767 69.5538C76.1783 69.4875 76.0236 69.3881 75.9463 69.3439L74.3326 68.3602C73.7578 67.9954 73.7578 67.3102 73.7578 66.9676V65.3097C73.7578 64.4034 74.1889 64.0829 74.4099 63.9171L75.8135 62.8672C76.4656 62.3809 77.2946 62.3809 77.7035 62.3809H79.7372C80.4887 62.3809 80.8535 62.5356 81.0414 62.6129C81.583 62.845 81.9255 63.1545 82.0913 63.3093L83.2519 64.4145V65.4534H82.2129L80.964 64.2818C80.3008 63.674 79.7262 63.674 79.4388 63.674H77.7035C77.0514 63.674 76.8415 63.8066 76.731 63.884L75.6257 64.6577C75.272 64.8676 75.272 65.2103 75.272 65.3761V66.7024C75.272 67.255 75.5041 67.3876 75.6257 67.4539L76.6978 68.0949C77.0735 68.3049 77.5267 68.3049 77.7588 68.3049H79.483C79.9471 68.3049 80.1019 68.3049 80.1682 68.3049C80.3893 68.3049 80.5882 68.3602 80.6877 68.3823C80.9861 68.4486 81.1408 68.5481 81.2182 68.5923L82.8319 69.576C83.4066 69.9407 83.4066 70.6259 83.4066 70.9686V72.5822C83.4066 73.4885 82.9755 73.809 82.7544 73.9748L82.7655 73.9527Z" fill="white"/>
<path d="M93.2755 73.864L92.5342 74.6598C92.1253 75.113 91.8053 75.2566 91.6391 75.3229C91.1529 75.533 90.6782 75.533 90.4453 75.533H88.9315C87.9147 75.533 87.4726 75.0908 87.2405 74.8588L86.0026 73.5436C85.5273 73.002 85.5273 72.2283 85.5273 71.8525V69.8852C85.5273 68.7468 85.8479 68.3931 86.0026 68.2052L87.2625 66.89C87.9368 66.2158 88.611 66.2158 88.9536 66.2158H90.2133C91.2853 66.2158 91.6942 66.6579 91.9049 66.89L93.1644 68.2052C93.4302 68.5036 93.496 68.7689 93.5289 68.8905C93.6284 69.2773 93.6284 69.6752 93.6284 69.8741V71.4546H86.9863V71.7862C86.9863 72.6372 87.2294 72.9025 87.351 73.0351L88.0915 73.853C88.3126 74.1072 88.4894 74.1625 88.5778 74.1956C88.8321 74.2951 89.1305 74.2951 89.2741 74.2951H89.9591C90.6 74.2951 90.8435 74.2067 90.9653 74.1625C91.3297 74.0298 91.5289 73.8198 91.6284 73.7093L92.3689 72.9135H93.2862V73.853L93.2755 73.864ZM92.1813 70.272V69.8852C92.1813 69.1226 91.96 68.8352 91.8497 68.6915L91.1644 67.8957C90.9537 67.6305 90.7662 67.5642 90.6666 67.531C90.3902 67.4316 90.0924 67.4316 89.9484 67.4316H89.2299C88.8209 67.4316 88.6441 67.5089 88.5557 67.542C88.2905 67.6526 88.1357 67.8184 88.0584 67.9068L87.34 68.7026C86.9863 69.1004 86.9863 69.6309 86.9863 69.8963V70.283H92.2026L92.1813 70.272Z" fill="white"/>
<path d="M102.955 73.9086L102.237 74.6823C101.794 75.1465 101.485 75.2791 101.33 75.3454C100.855 75.5443 100.38 75.5443 100.148 75.5443H98.932C97.8156 75.5443 97.4173 75.1023 97.2191 74.8702L96.1249 73.6102C95.6387 73.0023 95.6387 72.2397 95.6387 71.8639V69.8966C95.6387 69.2887 95.7045 69.0234 95.7489 68.8908C95.8591 68.4929 96.036 68.2829 96.1356 68.1724L97.2405 66.9124C97.8378 66.2383 98.5676 66.2383 98.932 66.2383H100.148C100.866 66.2383 101.176 66.3709 101.33 66.4372C101.806 66.6361 102.093 66.9235 102.237 67.0672L102.955 67.8629V68.8355H101.971L101.231 68.0398C100.932 67.7524 100.744 67.664 100.656 67.6198C100.38 67.4872 100.092 67.4872 99.9489 67.4872H99.308C98.468 67.4872 98.2245 67.7966 98.1142 67.9513L97.4618 68.7472C97.108 69.2224 97.108 69.764 97.108 70.0292V71.7755C97.108 72.5823 97.34 72.9028 97.4618 73.0576L98.1142 73.8533C98.3018 74.1075 98.4893 74.1628 98.5782 74.196C98.8547 74.2954 99.1533 74.2954 99.308 74.2954H99.9489C100.656 74.2954 101.043 73.9307 101.231 73.7428L101.971 72.9471H102.955V73.9196V73.9086Z" fill="white"/>
<path d="M132.036 20.9013L82.5657 26.118H81.5931L83.1957 17.8841V17.9172C88.3461 17.1656 96.9887 15.353 96.9887 11.7168C96.9887 6.94218 81.9357 4.44434 67.0702 4.44434C52.2048 4.44434 37.1515 6.94218 37.1515 11.7168C37.1515 15.353 45.7724 17.1546 50.9228 17.9172L52.4812 26.1291H51.597L2.10438 20.9013C1.33071 20.824 0.910719 21.7745 1.49649 22.2939L12.4936 32.0311C13.5104 32.9374 14.8146 33.4237 16.1741 33.4237H48.8559L23.5018 36.3746C22.7061 36.4741 22.5292 37.5352 23.2365 37.8778L38.8093 45.4376C39.0304 45.5482 39.2957 45.5482 39.5167 45.4376L48.8559 40.7293L42.0366 45.725C41.5613 46.0787 41.6277 46.8081 42.1582 47.0734L51.4533 51.5938C51.7738 51.7485 52.1717 51.6601 52.3927 51.3948L56.1285 47.1176L54.1058 52.0469C53.9511 52.4338 54.1058 52.8759 54.4816 53.0637L66.7166 59.0099C66.9266 59.1204 67.1918 59.1204 67.4019 59.0099L79.6148 53.0637C79.9905 52.8759 80.1674 52.4338 80.0015 52.0469L77.9901 47.1176L82.0905 51.2622C82.3336 51.5054 82.6983 51.5606 83.0078 51.417L91.9603 47.0734C92.4909 46.8081 92.5683 46.0786 92.0821 45.7139L85.2957 40.7183L94.6572 45.4266C94.867 45.537 95.1318 45.537 95.3532 45.4266L110.915 37.8667C111.622 37.5241 111.446 36.4631 110.65 36.3636L85.2957 33.4126H117.956C119.315 33.4126 120.619 32.9153 121.636 32.02L132.633 22.2829C133.207 21.7634 132.788 20.8129 132.025 20.8903L132.036 20.9013ZM51.398 12.3026C50.5801 12.5126 50.0606 13.3194 50.2154 14.1483L50.6133 16.2594C42.4677 14.9994 38.743 13.032 38.743 11.7168C38.743 9.34054 49.5191 6.02482 67.0813 6.02482C84.6436 6.02482 95.4198 9.34054 95.4198 11.7168C95.4198 13.0431 91.6838 14.9994 83.5383 16.2594L83.9583 14.1483C84.1241 13.3194 83.6046 12.5015 82.7868 12.3026L67.4902 8.50056C67.2361 8.43425 66.9708 8.43425 66.7166 8.50056L51.4091 12.3026H51.398ZM52.9453 14.9109L67.0813 11.3852L81.2284 14.9109L79.0842 26.118L77.5811 34.0315L67.0813 42.1993L56.471 34.0315L55.0121 26.118L52.9453 14.9109Z" fill="white"/>
<path d="M67.0697 29.8206C69.269 29.8206 71.2253 28.4391 71.9437 26.3944C72.1426 25.8528 72.2421 25.267 72.2421 24.6702C72.2421 21.8298 69.9211 19.5088 67.0586 19.5088C64.196 19.5088 61.875 21.8187 61.875 24.6702C61.875 25.267 61.9745 25.8528 62.1734 26.3834C62.9029 28.4391 64.8592 29.8206 67.0586 29.8206H67.0697Z" fill="white"/>
</svg>
