<svg width="66" height="80" viewBox="0 0 66 80" fill="none" xmlns="http://www.w3.org/2000/svg">
<g clip-path="url(#clip0_2317_25649)">
<path d="M54.1678 7.40723H11.8318C5.52219 7.40723 0.407227 12.5222 0.407227 18.8318V61.1678C0.407227 67.4775 5.52219 72.5924 11.8318 72.5924H54.1678C60.4775 72.5924 65.5924 67.4775 65.5924 61.1678V18.8318C65.5924 12.5222 60.4775 7.40723 54.1678 7.40723Z" fill="#DAFE0C"/>
<path fill-rule="evenodd" clip-rule="evenodd" d="M22.881 26.1241L26.6232 36.5352H20.6162L16.9843 53.2306H8.9375L14.8342 26.1241H22.881ZM40.2318 26.124L34.335 53.2306H26.2883L22.546 42.8195H28.5531L32.1851 26.124H40.2318Z" fill="#171717"/>
<path fill-rule="evenodd" clip-rule="evenodd" d="M57.7793 26.124L51.8682 53.2306H43.8019L47.4426 36.5352H41.4209L49.713 26.124H57.7793Z" fill="#8D9DAD"/>
</g>
<defs>
<clipPath id="clip0_2317_25649">
<rect width="65.1852" height="80" fill="white" transform="translate(0.407227)"/>
</clipPath>
</defs>
</svg>
