<svg width="204" height="80" viewBox="0 0 204 80" fill="none" xmlns="http://www.w3.org/2000/svg">
<g clip-path="url(#clip0_2317_25727)">
<path d="M123.979 26.5065L132.064 44.5549H127.672L126.071 40.6869H117.675L116.075 44.5549H111.786L119.846 26.5065H123.979ZM80.7471 26.5065C82.7093 26.5065 84.4444 26.8798 85.9516 27.6278C87.4589 28.3757 88.6296 29.4284 89.4654 30.7859C90.2999 32.1446 90.7178 33.7256 90.7178 35.53C90.7178 37.3358 90.2999 38.9167 89.4654 40.2742C88.6296 41.633 87.4589 42.6857 85.9516 43.4324C84.4444 44.1816 82.7105 44.5549 80.7471 44.5549H72.5323V26.5065H80.7471ZM108.195 26.5065V29.8589H98.6893V33.7776H107.084V37.0259H98.688V41.2037H108.53V44.5549H94.5297V26.5065H108.195ZM67.928 26.4976V44.5459H63.7568V26.4976H67.928ZM80.5408 29.9351H76.7175V41.125H80.5396C82.3487 41.125 83.7909 40.6221 84.8674 39.6164C85.9427 38.612 86.4816 37.2494 86.4816 35.53C86.4816 33.8119 85.9427 32.4494 84.8674 31.4437C83.7909 30.4379 82.3487 29.9351 80.5408 29.9351ZM121.885 30.6056L119.019 37.5161H124.752L121.885 30.6056ZM141.517 44.7098C140.174 44.7098 138.886 44.494 137.657 44.0648C136.425 43.6356 135.473 43.0679 134.801 42.3632L135.551 40.8939C136.204 41.5466 137.074 42.0748 138.159 42.4786C139.244 42.8825 140.363 43.0844 141.517 43.0844C143.135 43.0844 144.35 42.7885 145.159 42.1956C145.968 41.6025 146.373 40.8329 146.373 39.8882C146.373 39.1656 146.153 38.5904 145.715 38.1612C145.275 37.7294 144.738 37.3993 144.101 37.1682C143.464 36.9358 142.576 36.6818 141.439 36.4062C140.079 36.0634 138.994 35.7332 138.185 35.4145C137.375 35.097 136.682 34.6107 136.106 33.958C135.529 33.304 135.24 32.4189 135.24 31.3014C135.24 30.391 135.482 29.5617 135.963 28.8138C136.446 28.0659 137.187 27.4678 138.185 27.022C139.184 26.5751 140.424 26.3516 141.905 26.3516C142.937 26.3516 143.949 26.4938 144.94 26.777C145.93 27.0601 146.788 27.4512 147.51 27.9503L146.864 29.4716C146.106 28.9725 145.297 28.5992 144.436 28.3503C143.574 28.1002 142.731 27.9757 141.904 27.9757C140.32 27.9757 139.127 28.2805 138.327 28.8913C137.527 29.5008 137.125 30.2881 137.125 31.2506C137.125 31.9719 137.346 32.5522 137.784 32.9903C138.224 33.4284 138.775 33.7649 139.438 33.9961C140.1 34.2284 140.992 34.4824 142.111 34.758C143.437 35.0831 144.51 35.4056 145.328 35.7231C146.145 36.0418 146.838 36.5231 147.407 37.1682C147.975 37.812 148.259 38.6843 148.259 39.784C148.259 40.6958 148.013 41.525 147.523 42.2729C147.032 43.021 146.278 43.6139 145.263 44.0507C144.246 44.4901 142.998 44.7098 141.517 44.7098ZM160.321 44.7098C158.53 44.7098 156.907 44.3098 155.452 43.5098C153.997 42.7111 152.861 41.6152 152.043 40.2234C151.225 38.8304 150.816 37.2659 150.816 35.53C150.816 33.7942 151.225 32.2297 152.043 30.8379C152.861 29.4449 153.997 28.349 155.452 27.5503C156.907 26.7503 158.531 26.3516 160.321 26.3516C162.113 26.3516 163.727 26.7465 165.165 27.5376C166.602 28.3287 167.735 29.4246 168.562 30.8252C169.387 32.2259 169.801 33.7942 169.801 35.53C169.801 37.2659 169.387 38.8355 168.562 40.2361C167.734 41.6368 166.602 42.7326 165.165 43.5238C163.726 44.3137 162.113 44.7098 160.321 44.7098ZM160.321 43.0083C161.751 43.0083 163.043 42.6857 164.196 42.0406C165.35 41.3955 166.253 40.5028 166.909 39.3586C167.563 38.2158 167.89 36.9396 167.89 35.53C167.89 34.1205 167.563 32.8443 166.909 31.7014C166.253 30.5586 165.35 29.6646 164.196 29.0195C163.043 28.3757 161.75 28.0544 160.321 28.0544C158.892 28.0544 157.596 28.3757 156.434 29.0195C155.271 29.6646 154.359 30.5586 153.695 31.7014C153.033 32.8443 152.701 34.1205 152.701 35.53C152.701 36.9396 153.033 38.2158 153.695 39.3586C154.359 40.5015 155.271 41.3955 156.434 42.0406C157.596 42.6857 158.893 43.0083 160.321 43.0083ZM175.553 28.1548V35.2456H184.906V36.8964H175.553V44.5536H173.643V26.5065H186.04V28.1573H175.553V28.1548ZM195.274 28.1548H188.92V26.5039H203.539V28.1548H197.186V44.5536H195.274V28.1548Z" fill="white"/>
<path d="M64.417 57.7111L64.408 53.2831L66.3929 57.7099H66.8873L68.8557 53.2526V57.7099H69.5042V51.7098H68.9244L66.6477 56.8806L64.3481 51.7098H63.7686V57.7099H64.4157L64.417 57.7111ZM72.9084 57.7695C73.2141 57.7695 73.5148 57.7187 73.8066 57.6171C74.0995 57.5155 74.3391 57.3784 74.5277 57.2045L74.2971 56.7067C74.0868 56.8755 73.8663 57.0013 73.6357 57.0826C73.4065 57.1639 73.1657 57.2045 72.916 57.2045C72.4395 57.2045 72.0764 57.0648 71.8292 56.7829C71.5821 56.5022 71.4597 56.0857 71.4597 55.5359V55.569H74.604V55.442C74.604 55.0102 74.5314 54.6393 74.3875 54.3308C74.241 54.0209 74.0333 53.7847 73.7593 53.6183C73.4867 53.4532 73.1606 53.3694 72.7797 53.3694C72.3821 53.3694 72.0318 53.4622 71.7272 53.6488C71.4228 53.833 71.1858 54.092 71.0151 54.4234C70.8456 54.7537 70.7603 55.1397 70.7603 55.5778C70.7603 56.0324 70.847 56.4248 71.0202 56.7536C71.1936 57.0826 71.4406 57.334 71.7618 57.5079C72.0828 57.682 72.4649 57.7695 72.9084 57.7695ZM73.9811 55.1232H71.4878L71.4904 55.1054C71.5363 54.8159 71.6331 54.5746 71.7782 54.379L71.8127 54.3345C72.0484 54.045 72.3732 53.9002 72.7885 53.9002C73.186 53.9002 73.4893 54.0323 73.6957 54.2964C73.8511 54.4945 73.9454 54.7574 73.9786 55.0851L73.9811 55.1232ZM76.4399 57.7099V55.2908C76.4399 54.8756 76.5418 54.5466 76.7507 54.3054C76.9571 54.0641 77.2426 53.9422 77.6069 53.9422C77.9127 53.9422 78.1394 54.0336 78.2847 54.2165C78.4286 54.3993 78.5013 54.6863 78.5013 55.08V57.7099H79.1919V55.2908C79.1919 54.8756 79.2963 54.5466 79.5027 54.3054C79.7103 54.0641 79.9932 53.9422 80.3512 53.9422C80.6569 53.9422 80.8825 54.0336 81.0238 54.2165C81.1666 54.3993 81.2378 54.6863 81.2378 55.08V57.7099H81.9285V55.047C81.9285 54.4845 81.8086 54.0653 81.5704 53.7873C81.331 53.5079 80.9768 53.3694 80.504 53.3694C80.118 53.3694 79.7868 53.471 79.5115 53.673C79.3217 53.8127 79.1765 53.984 79.0745 54.1897L79.0695 54.1999C78.9968 53.9993 78.8963 53.8367 78.7676 53.7097L78.7281 53.673C78.4975 53.4698 78.1752 53.3694 77.7598 53.3694C77.4133 53.3694 77.1139 53.4583 76.8616 53.64C76.6705 53.7746 76.524 53.951 76.4196 54.172L76.4016 54.2101L76.3379 53.471H75.6807C75.7086 53.6679 75.7277 53.8647 75.7367 54.0653C75.7443 54.2647 75.7494 54.4628 75.7494 54.6597V57.7099H76.4399ZM85.4766 57.7695C85.8511 57.7695 86.1824 57.6781 86.4703 57.4952C86.7557 57.3124 86.9799 57.0547 87.1429 56.7206C87.3048 56.3854 87.3851 55.9968 87.3851 55.5524C87.3851 55.1079 87.3048 54.7232 87.1429 54.3968C86.9813 54.0717 86.7569 53.8189 86.4742 53.64C86.1901 53.4597 85.8575 53.3694 85.4766 53.3694C85.0905 53.3694 84.7606 53.4659 84.488 53.6615C84.3007 53.7935 84.1541 53.9637 84.0496 54.1694L84.0268 54.2177V51.5066H83.3375V57.7099H84.0279V56.9251L84.0496 56.9734C84.1453 57.1625 84.274 57.32 84.4382 57.4458L84.488 57.4825C84.7606 57.673 85.0905 57.7695 85.4766 57.7695ZM85.3491 57.2045C84.9224 57.2045 84.5962 57.0623 84.3681 56.779C84.1414 56.4946 84.0279 56.0921 84.0279 55.569C84.0279 55.052 84.1414 54.6521 84.3681 54.3689C84.5962 54.0844 84.9224 53.9422 85.3491 53.9422C85.7632 53.9422 86.0881 54.0831 86.3199 54.3638C86.5531 54.6457 86.669 55.0407 86.669 55.5524C86.669 56.0755 86.5531 56.4807 86.3199 56.7714C86.0868 57.0597 85.7632 57.2032 85.3479 57.2032L85.3491 57.2045ZM90.4401 57.7695C90.7459 57.7695 91.0466 57.7187 91.3383 57.6171C91.6314 57.5155 91.8708 57.3784 92.0594 57.2045L91.8288 56.7067C91.6187 56.8755 91.3983 57.0013 91.1688 57.0826C90.9382 57.1639 90.6975 57.2045 90.4478 57.2045C89.9713 57.2045 89.6083 57.0648 89.3611 56.7829C89.1139 56.5022 88.9917 56.0857 88.9917 55.5359V55.569H92.136V55.442C92.136 55.0102 92.0633 54.6393 91.9192 54.3308C91.7741 54.0209 91.565 53.7847 91.2924 53.6183C91.0185 53.4532 90.6924 53.3694 90.3115 53.3694C89.9139 53.3694 89.5636 53.4622 89.2592 53.6488C88.9546 53.833 88.7177 54.092 88.5482 54.4234C88.3776 54.7537 88.2922 55.1397 88.2922 55.5778C88.2922 56.0324 88.3788 56.4248 88.5521 56.7536C88.7253 57.0826 88.9725 57.334 89.2935 57.5079C89.6146 57.682 89.9969 57.7695 90.4401 57.7695ZM91.5129 55.1232H89.0196L89.0221 55.1054C89.068 54.8159 89.1649 54.5746 89.3101 54.379L89.3445 54.3345C89.5802 54.045 89.9051 53.9002 90.3204 53.9002C90.718 53.9002 91.021 54.0323 91.2274 54.2964C91.3829 54.4945 91.4772 54.7574 91.5104 55.0851L91.5129 55.1232ZM93.9718 57.7099V55.2908C93.9718 55.0724 94.0124 54.8629 94.0954 54.6635C94.1769 54.464 94.3081 54.2989 94.4865 54.1708C94.6648 54.0413 94.903 53.9764 95.1987 53.9764C95.3693 53.9764 95.5197 53.9993 95.6497 54.0438L95.6675 53.4202C95.6101 53.4038 95.549 53.3911 95.4839 53.3821C95.4191 53.3733 95.349 53.3694 95.275 53.3694C94.945 53.3694 94.6482 53.4634 94.3832 53.6513C94.1819 53.7961 94.0341 53.9942 93.94 54.2444L93.9386 54.2482L93.8685 53.471H93.2124C93.2404 53.6679 93.2595 53.8647 93.2685 54.0653C93.2761 54.2647 93.2812 54.4628 93.2812 54.6597V57.7099H93.9718ZM100.557 57.7695C100.965 57.7695 101.322 57.6794 101.627 57.4991C101.93 57.32 102.166 57.0648 102.333 56.7372C102.501 56.4071 102.585 56.0185 102.585 55.569C102.585 55.1245 102.501 54.7385 102.333 54.4056C102.166 54.0755 101.931 53.8189 101.626 53.64C101.323 53.4597 100.966 53.3694 100.556 53.3694C100.148 53.3694 99.7914 53.4583 99.487 53.64C99.1838 53.8189 98.9481 54.0743 98.7799 54.4056C98.6118 54.7385 98.5289 55.1257 98.5289 55.569C98.5289 56.0185 98.6118 56.4071 98.7799 56.7372C98.9481 57.0648 99.1838 57.32 99.487 57.4991C99.7914 57.6794 100.148 57.7695 100.557 57.7695ZM100.557 57.2045C100.13 57.2045 99.8029 57.0648 99.5723 56.7866C99.3431 56.5086 99.2285 56.1035 99.2285 55.569C99.2285 55.047 99.3456 54.6457 99.5813 54.3638C99.817 54.0831 100.142 53.9422 100.557 53.9422C100.971 53.9422 101.296 54.0831 101.528 54.3638C101.761 54.6457 101.878 55.047 101.878 55.5701C101.878 56.1035 101.764 56.5098 101.533 56.7866C101.304 57.066 100.978 57.2045 100.557 57.2045ZM104.668 57.7099V54.0108H105.716V53.471H104.668V52.906C104.668 52.7066 104.694 52.5466 104.745 52.4272L104.761 52.3916C104.825 52.2686 104.911 52.1822 105.021 52.1351C105.132 52.0869 105.256 52.0628 105.392 52.0628C105.528 52.0628 105.676 52.0857 105.836 52.1314V51.5498C105.739 51.5205 105.642 51.5016 105.546 51.4901C105.449 51.4787 105.353 51.4736 105.256 51.4736C104.858 51.4736 104.546 51.584 104.318 51.8063C104.091 52.0285 103.978 52.3662 103.978 52.8222V53.4698H103.142V54.0108H103.978V57.7099H104.668ZM111.049 57.7771C111.509 57.7771 111.907 57.7074 112.242 57.5663C112.578 57.4267 112.836 57.2299 113.017 56.9771C113.199 56.7232 113.291 56.426 113.291 56.0832C113.291 55.8026 113.227 55.5701 113.103 55.3886C112.978 55.2058 112.809 55.0571 112.595 54.9417C112.383 54.8274 112.139 54.7295 111.867 54.6496C111.594 54.572 111.31 54.4984 111.014 54.431C110.737 54.3638 110.489 54.2901 110.273 54.2075C110.058 54.1262 109.891 54.0184 109.771 53.8838C109.651 53.7492 109.593 53.5714 109.593 53.353C109.593 52.9986 109.725 52.7232 109.993 52.5276C110.26 52.3307 110.63 52.2316 111.101 52.2316C111.446 52.2316 111.767 52.2875 112.063 52.4006C112.358 52.5124 112.645 52.6901 112.924 52.9314L113.197 52.4006C113.026 52.2381 112.831 52.0996 112.613 51.9878C112.394 51.8749 112.157 51.7897 111.901 51.7301C111.646 51.6717 111.379 51.6413 111.1 51.6413C110.651 51.6413 110.263 51.7149 109.933 51.8609C109.603 52.007 109.347 52.2113 109.166 52.4717C108.984 52.7333 108.893 53.0355 108.893 53.3784C108.893 53.664 108.949 53.9028 109.064 54.0946C109.177 54.2851 109.334 54.4425 109.535 54.567C109.739 54.6902 109.968 54.793 110.231 54.8743C110.492 54.9555 110.767 55.0266 111.058 55.089C111.347 55.1562 111.607 55.2286 111.837 55.3048C112.067 55.3797 112.249 55.4813 112.383 55.607C112.516 55.734 112.583 55.9003 112.583 56.1086C112.583 56.4514 112.45 56.7181 112.183 56.9048C111.915 57.094 111.54 57.1879 111.058 57.1879C110.642 57.1879 110.28 57.1346 109.971 57.0279C109.661 56.9201 109.353 56.7409 109.046 56.4883L108.782 57.0191C108.969 57.1879 109.18 57.329 109.413 57.4444C109.646 57.5587 109.898 57.6439 110.171 57.6984C110.444 57.7505 110.735 57.7771 111.049 57.7771ZM115.22 52.4514V51.6768H114.376V52.4514H115.22ZM115.134 57.7099V53.471H114.444V57.7099H115.134ZM118.453 59.5893C119.09 59.5893 119.571 59.4293 119.897 59.1093C120.224 58.7893 120.387 58.3118 120.387 57.6769V53.4698H119.697V54.1987L119.683 54.1682C119.587 53.9815 119.457 53.824 119.292 53.6959L119.241 53.6589C118.966 53.4647 118.629 53.3682 118.232 53.3682C117.85 53.3682 117.517 53.4571 117.23 53.6349C116.942 53.8113 116.718 54.0565 116.556 54.3714C116.395 54.6863 116.314 55.0534 116.314 55.4762C116.314 55.8966 116.395 56.2648 116.556 56.5798C116.718 56.8947 116.942 57.1397 117.23 57.3163C117.517 57.494 117.851 57.5829 118.232 57.5829C118.499 57.5829 118.737 57.5372 118.948 57.447C119.158 57.3581 119.335 57.2299 119.48 57.0635C119.567 56.9644 119.64 56.854 119.699 56.7333L119.706 56.7206V57.734C119.706 58.1391 119.61 58.449 119.419 58.6635L119.386 58.699C119.173 58.9149 118.862 59.0229 118.453 59.0229C118.151 59.0229 117.881 58.9899 117.643 58.9213C117.405 58.8553 117.151 58.7447 116.885 58.5937L116.765 59.1499C117.243 59.442 117.805 59.5893 118.453 59.5893ZM118.368 57.0115C117.948 57.0115 117.616 56.8755 117.374 56.6051C117.132 56.3359 117.012 55.9601 117.012 55.4762C117.012 54.9987 117.134 54.6242 117.374 54.3511C117.616 54.0793 117.948 53.9422 118.368 53.9422C118.782 53.9422 119.107 54.0793 119.344 54.3511C119.58 54.6242 119.697 54.9987 119.697 55.4762C119.697 55.9536 119.58 56.3295 119.344 56.6013C119.108 56.8744 118.783 57.0115 118.368 57.0115ZM122.505 57.7099V55.2908C122.505 54.8756 122.608 54.5466 122.816 54.3054C123.023 54.0641 123.309 53.9422 123.672 53.9422C123.977 53.9422 124.204 54.0336 124.35 54.2165C124.495 54.3993 124.566 54.6863 124.566 55.08V57.7099H125.257V55.2908C125.257 54.8756 125.361 54.5466 125.567 54.3054C125.775 54.0641 126.058 53.9422 126.416 53.9422C126.722 53.9422 126.947 54.0336 127.09 54.2165C127.231 54.3993 127.303 54.6863 127.303 55.08V57.7099H127.993V55.047C127.993 54.4845 127.874 54.0653 127.635 53.7873C127.396 53.5079 127.042 53.3694 126.57 53.3694C126.183 53.3694 125.852 53.471 125.576 53.673C125.387 53.8127 125.241 53.984 125.139 54.1897L125.134 54.1999C125.063 53.9993 124.962 53.8367 124.832 53.7097L124.793 53.673C124.564 53.4698 124.24 53.3694 123.825 53.3694C123.478 53.3694 123.179 53.4583 122.926 53.64C122.735 53.7746 122.589 53.951 122.484 54.172L122.467 54.2101L122.403 53.471H121.745C121.775 53.6679 121.793 53.8647 121.801 54.0653C121.809 54.2647 121.814 54.4628 121.814 54.6597V57.7099H122.505ZM131.047 57.7695C131.44 57.7695 131.772 57.673 132.045 57.4825C132.232 57.3505 132.377 57.1817 132.482 56.9734L132.496 56.9429V57.7099H133.177V53.471H132.496V54.1948L132.483 54.1657C132.387 53.9752 132.257 53.8189 132.094 53.6933L132.043 53.6552C131.772 53.4647 131.44 53.3694 131.047 53.3694C130.673 53.3694 130.341 53.4622 130.053 53.6488C129.767 53.833 129.544 54.092 129.386 54.4234C129.227 54.7537 129.146 55.1423 129.146 55.5867C129.146 56.0312 129.225 56.4159 129.381 56.7448C129.537 57.0736 129.759 57.3264 130.046 57.5042C130.332 57.6806 130.666 57.7695 131.047 57.7695ZM131.183 57.2045C130.763 57.2045 130.434 57.0648 130.199 56.7829C129.963 56.5022 129.846 56.1035 129.846 55.5867C129.846 55.0698 129.963 54.666 130.199 54.3765C130.434 54.087 130.763 53.9422 131.183 53.9422C131.599 53.9422 131.921 54.0831 132.152 54.3638C132.381 54.6457 132.496 55.047 132.496 55.5701C132.496 56.0908 132.382 56.4946 132.155 56.779C131.927 57.0623 131.604 57.2045 131.183 57.2045ZM138.945 57.7771C139.406 57.7771 139.803 57.7074 140.138 57.5663C140.474 57.4267 140.732 57.2299 140.914 56.9771C141.095 56.7232 141.187 56.426 141.187 56.0832C141.187 55.8026 141.123 55.5701 141 55.3886C140.874 55.2058 140.706 55.0571 140.493 54.9417C140.279 54.8274 140.037 54.7295 139.764 54.6496C139.491 54.572 139.207 54.4984 138.91 54.431C138.633 54.3638 138.385 54.2901 138.17 54.2075C137.954 54.1262 137.787 54.0184 137.667 53.8838C137.547 53.7492 137.489 53.5714 137.489 53.353C137.489 52.9986 137.621 52.7232 137.889 52.5276C138.156 52.3307 138.526 52.2316 138.997 52.2316C139.344 52.2316 139.665 52.2875 139.959 52.4006C140.254 52.5124 140.542 52.6901 140.82 52.9314L141.093 52.4006C140.922 52.2381 140.728 52.0996 140.509 51.9878C140.29 51.8749 140.053 51.7897 139.797 51.7301C139.542 51.6717 139.275 51.6413 138.997 51.6413C138.547 51.6413 138.159 51.7149 137.829 51.8609C137.499 52.007 137.243 52.2113 137.062 52.4717C136.88 52.7333 136.789 53.0355 136.789 53.3784C136.789 53.664 136.846 53.9028 136.96 54.0946C137.073 54.2851 137.231 54.4425 137.433 54.567C137.634 54.6902 137.866 54.793 138.127 54.8743C138.388 54.9555 138.664 55.0266 138.955 55.089C139.244 55.1562 139.503 55.2286 139.733 55.3048C139.963 55.3797 140.146 55.4813 140.279 55.607C140.412 55.734 140.48 55.9003 140.48 56.1086C140.48 56.4514 140.346 56.7181 140.079 56.9048C139.811 57.094 139.437 57.1879 138.954 57.1879C138.54 57.1879 138.177 57.1346 137.867 57.0279C137.557 56.9201 137.249 56.7409 136.942 56.4883L136.678 57.0191C136.866 57.1879 137.076 57.329 137.309 57.4444C137.542 57.5587 137.794 57.6439 138.067 57.6984C138.34 57.7505 138.631 57.7771 138.945 57.7771ZM144.113 57.7695C144.521 57.7695 144.878 57.6794 145.184 57.4991C145.487 57.32 145.723 57.0648 145.89 56.7372C146.058 56.4071 146.142 56.0185 146.142 55.569C146.142 55.1245 146.058 54.7385 145.89 54.4056C145.723 54.0755 145.487 53.8189 145.182 53.64C144.879 53.4597 144.522 53.3694 144.112 53.3694C143.705 53.3694 143.348 53.4583 143.043 53.64C142.74 53.8189 142.503 54.0743 142.336 54.4056C142.168 54.7385 142.085 55.1257 142.085 55.569C142.085 56.0185 142.168 56.4071 142.336 56.7372C142.503 57.0648 142.74 57.32 143.043 57.4991C143.348 57.6794 143.705 57.7695 144.113 57.7695ZM144.113 57.2045C143.687 57.2045 143.359 57.0648 143.129 56.7866C142.899 56.5086 142.785 56.1035 142.785 55.569C142.785 55.047 142.902 54.6457 143.138 54.3638C143.373 54.0831 143.698 53.9422 144.113 53.9422C144.528 53.9422 144.852 54.0831 145.084 54.3638C145.317 54.6457 145.435 55.047 145.435 55.5701C145.435 56.1035 145.32 56.5098 145.089 56.7866C144.859 57.066 144.534 57.2045 144.113 57.2045ZM148.225 57.7099V54.0108H149.272V53.471H148.225V52.906C148.225 52.7066 148.25 52.5466 148.301 52.4272L148.318 52.3916C148.381 52.2686 148.467 52.1822 148.578 52.1351C148.688 52.0869 148.812 52.0628 148.948 52.0628C149.085 52.0628 149.233 52.0857 149.392 52.1314V51.5498C149.295 51.5205 149.198 51.5016 149.103 51.4901C149.006 51.4787 148.909 51.4736 148.812 51.4736C148.415 51.4736 148.102 51.584 147.874 51.8063C147.648 52.0285 147.534 52.3662 147.534 52.8222V53.4698H146.698V54.0108H147.534V57.7099H148.225ZM151.611 57.7695C151.725 57.7695 151.828 57.7619 151.922 57.748C152.015 57.734 152.111 57.7124 152.207 57.6845V57.1029C152.122 57.1309 152.046 57.1512 151.978 57.1625C151.909 57.174 151.833 57.1791 151.747 57.1791C151.605 57.1791 151.477 57.1549 151.364 57.108C151.249 57.0598 151.16 56.9734 151.095 56.8501C151.03 56.7271 150.997 56.553 150.997 56.3283V54.0108H152.224V53.471H150.997V52.139L150.307 52.384V53.471H149.472V54.0108H150.307V56.4209C150.307 56.8476 150.414 57.1727 150.625 57.3975L150.661 57.4317C150.896 57.6566 151.214 57.7695 151.611 57.7695ZM155.023 57.7099L156.242 54.3993L157.469 57.7099H158.134L159.719 53.471H159.037L157.802 56.8972L156.566 53.471H155.961L154.71 56.8959L153.498 53.471H152.772L154.358 57.7099H155.023ZM162.304 57.7695C162.696 57.7695 163.029 57.673 163.302 57.4825C163.489 57.3505 163.635 57.1817 163.739 56.9734L163.753 56.9429V57.7099H164.435V53.471H163.754V54.1948L163.739 54.1657C163.644 53.9752 163.516 53.8189 163.351 53.6933L163.302 53.6552C163.029 53.4647 162.696 53.3694 162.304 53.3694C161.929 53.3694 161.598 53.4622 161.312 53.6488C161.025 53.833 160.802 54.092 160.643 54.4234C160.483 54.7537 160.404 55.1423 160.404 55.5867C160.404 56.0312 160.481 56.4159 160.638 56.7448C160.794 57.0736 161.016 57.3264 161.303 57.5042C161.589 57.6806 161.923 57.7695 162.304 57.7695ZM162.44 57.2045C162.02 57.2045 161.692 57.0648 161.457 56.7829C161.221 56.5022 161.103 56.1035 161.103 55.5867C161.103 55.0698 161.221 54.666 161.457 54.3765C161.692 54.087 162.02 53.9422 162.44 53.9422C162.856 53.9422 163.178 54.0831 163.409 54.3638C163.638 54.6457 163.753 55.047 163.753 55.5701C163.753 56.0908 163.639 56.4946 163.412 56.779C163.186 57.0623 162.861 57.2045 162.44 57.2045ZM166.561 57.7099V55.2908C166.561 55.0724 166.601 54.8629 166.684 54.6635C166.766 54.464 166.897 54.2989 167.076 54.1708C167.255 54.0413 167.492 53.9764 167.787 53.9764C167.958 53.9764 168.108 53.9993 168.24 54.0438L168.256 53.4202C168.199 53.4038 168.139 53.3911 168.073 53.3821C168.008 53.3733 167.938 53.3694 167.864 53.3694C167.535 53.3694 167.238 53.4634 166.973 53.6513C166.772 53.7961 166.623 53.9942 166.53 54.2444L166.527 54.2482L166.459 53.471H165.801C165.83 53.6679 165.848 53.8647 165.857 54.0653C165.866 54.2647 165.87 54.4628 165.87 54.6597V57.7099H166.561ZM170.86 57.7695C171.164 57.7695 171.466 57.7187 171.759 57.6171C172.051 57.5155 172.292 57.3784 172.478 57.2045L172.25 56.7067C172.038 56.8755 171.818 57.0013 171.586 57.0826C171.357 57.1639 171.117 57.2045 170.866 57.2045C170.391 57.2045 170.028 57.0648 169.781 56.7829C169.534 56.5022 169.411 56.0857 169.411 55.5359V55.569H172.554V55.442C172.554 55.0102 172.482 54.6393 172.338 54.3308C172.194 54.0209 171.984 53.7847 171.711 53.6183C171.439 53.4532 171.112 53.3694 170.731 53.3694C170.333 53.3694 169.982 53.4622 169.678 53.6488C169.375 53.833 169.138 54.092 168.967 54.4234C168.796 54.7537 168.711 55.1397 168.711 55.5778C168.711 56.0324 168.798 56.4248 168.971 56.7536C169.144 57.0826 169.391 57.334 169.713 57.5079C170.033 57.682 170.416 57.7695 170.86 57.7695ZM171.931 55.1232H169.44L169.442 55.1054C169.488 54.8159 169.583 54.5746 169.729 54.379L169.764 54.3345C169.999 54.045 170.324 53.9002 170.739 53.9002C171.137 53.9002 171.44 54.0323 171.649 54.2964C171.803 54.4945 171.896 54.7574 171.93 55.0851L171.931 55.1232ZM178.792 57.7771C179.053 57.7771 179.315 57.7607 179.579 57.7263C179.843 57.6933 180.09 57.6451 180.321 57.5841C180.551 57.5206 180.746 57.4483 180.905 57.3645V54.5836H178.756V55.1308H180.265V56.9632L180.26 56.9644C180.109 57.0152 179.95 57.0584 179.777 57.0953L179.672 57.1156C179.393 57.169 179.103 57.1955 178.807 57.1955C178.091 57.1955 177.546 56.9836 177.171 56.5606C176.797 56.1353 176.609 55.5156 176.609 54.7016C176.609 53.9028 176.792 53.292 177.16 52.8679C177.525 52.4438 178.052 52.233 178.739 52.233C179.086 52.233 179.401 52.2863 179.686 52.3967C179.97 52.5059 180.258 52.6837 180.556 52.9314L180.829 52.4006C180.568 52.1466 180.258 51.9574 179.904 51.8317C179.549 51.7047 179.161 51.6413 178.741 51.6413C178.153 51.6413 177.647 51.7632 177.219 52.0044C176.789 52.2457 176.46 52.5962 176.23 53.0533C176.002 53.5105 175.885 54.0602 175.885 54.7016C175.885 55.348 176 55.8991 176.228 56.3574C176.46 56.8146 176.792 57.1664 177.227 57.4114C177.662 57.6552 178.182 57.7771 178.792 57.7771ZM183.038 57.7099V55.2908C183.038 55.0724 183.079 54.8629 183.162 54.6635C183.243 54.464 183.375 54.2989 183.555 54.1708C183.732 54.0413 183.969 53.9764 184.266 53.9764C184.437 53.9764 184.587 53.9993 184.718 54.0438L184.735 53.4202C184.677 53.4038 184.616 53.3911 184.552 53.3821C184.486 53.3733 184.416 53.3694 184.342 53.3694C184.013 53.3694 183.717 53.4634 183.451 53.6513C183.25 53.7961 183.101 53.9942 183.008 54.2444L183.006 54.2482L182.937 53.471H182.28C182.308 53.6679 182.327 53.8647 182.335 54.0653C182.344 54.2647 182.347 54.4628 182.347 54.6597V57.7099H183.038ZM187.217 57.7695C187.627 57.7695 187.984 57.6794 188.289 57.4991C188.592 57.32 188.827 57.0648 188.995 56.7372C189.162 56.4071 189.245 56.0185 189.245 55.569C189.245 55.1245 189.162 54.7385 188.995 54.4056C188.827 54.0755 188.592 53.8189 188.289 53.64C187.984 53.4597 187.627 53.3694 187.217 53.3694C186.809 53.3694 186.453 53.4583 186.147 53.64C185.844 53.8189 185.608 54.0743 185.441 54.4056C185.273 54.7385 185.19 55.1257 185.19 55.569C185.19 56.0185 185.273 56.4071 185.441 56.7372C185.608 57.0648 185.844 57.32 186.148 57.4991C186.451 57.6794 186.807 57.7695 187.217 57.7695ZM187.217 57.2045C186.792 57.2045 186.463 57.0648 186.233 56.7866C186.003 56.5086 185.889 56.1035 185.889 55.569C185.889 55.047 186.006 54.6457 186.242 54.3638C186.477 54.0831 186.802 53.9422 187.217 53.9422C187.633 53.9422 187.957 54.0831 188.19 54.3638C188.422 54.6457 188.539 55.047 188.539 55.5701C188.539 56.1035 188.424 56.5098 188.195 56.7866C187.963 57.066 187.638 57.2045 187.217 57.2045ZM191.934 57.7695C192.281 57.7695 192.589 57.682 192.858 57.5079C193.043 57.3886 193.193 57.2286 193.305 57.033L193.332 56.9822V57.7099H194.004V53.471H193.315V55.8647C193.315 56.2686 193.199 56.5924 192.965 56.8337C192.731 57.075 192.426 57.1955 192.046 57.1955C191.72 57.1955 191.478 57.1067 191.319 56.9263C191.16 56.746 191.082 56.4655 191.082 56.0832V53.471H190.391V56.0997C190.391 56.6509 190.522 57.066 190.779 57.3479C191.036 57.6286 191.422 57.7695 191.934 57.7695ZM196.121 59.5309V56.9238L196.145 56.972C196.239 57.1613 196.368 57.3188 196.532 57.4444L196.583 57.4813C196.854 57.6718 197.184 57.7683 197.57 57.7683C197.951 57.7683 198.283 57.6794 198.567 57.5017C198.852 57.3251 199.075 57.0724 199.236 56.7435C199.399 56.4147 199.478 56.0286 199.478 55.5854C199.478 55.1409 199.399 54.7537 199.236 54.4222C199.075 54.0907 198.85 53.8316 198.562 53.6476C198.276 53.4609 197.944 53.3682 197.57 53.3682C197.184 53.3682 196.854 53.4634 196.581 53.6552C196.36 53.8101 196.197 54.0196 196.09 54.2825L196.019 53.4698H195.364C195.391 53.6666 195.41 53.8635 195.418 54.0641C195.427 54.2634 195.432 54.4617 195.432 54.6584V59.5295L196.121 59.5309ZM197.443 57.2045C197.017 57.2045 196.69 57.0623 196.461 56.779C196.234 56.4946 196.121 56.0921 196.121 55.569C196.121 55.047 196.236 54.6457 196.463 54.3638C196.69 54.0831 197.017 53.9422 197.443 53.9422C197.856 53.9422 198.181 54.087 198.413 54.3765C198.647 54.666 198.764 55.0698 198.764 55.5867C198.764 56.1035 198.647 56.501 198.413 56.7829C198.181 57.0635 197.856 57.2045 197.443 57.2045Z" fill="white"/>
<path d="M19.0141 51.3365C22.5101 50.5605 25.6174 49.2018 27.9489 46.29C29.2102 44.8347 29.7937 42.7979 29.6 40.8564C29.4051 38.5275 27.754 37.2678 24.5498 36.7827C20.18 36.102 15.9068 36.8779 11.7306 37.9459C8.23467 38.8195 0.659321 41.2449 0.465669 41.2449C1.04917 40.7598 1.72823 40.2748 2.31045 39.7897C10.3712 33.5801 19.4027 29.114 29.1134 26.107C31.9302 25.2347 34.8439 24.6518 37.7563 25.2347C39.991 25.622 42.3225 27.368 41.5453 30.5706C41.1567 32.1236 40.4343 33.5636 40.6713 36.7801C40.9631 36.3928 41.2548 35.9077 41.5453 35.5192C42.2256 34.3547 42.8079 33.1903 43.4882 32.1236C45.1393 29.6982 47.6631 29.0188 50.1895 30.4728C51.4508 31.2499 52.7133 30.7649 54.0727 30.5706C53.6842 31.9293 53.2956 33.288 52.8115 34.4525C49.2175 43.6716 42.8079 50.3675 33.5826 54.054C26.8812 56.7714 19.8894 58.3232 12.8008 59.2945C8.72134 59.8749 4.54508 60.2647 0.370117 60.5556C9.73928 58.379 12.8976 56.8679 19.0155 54.2482C16.977 53.278 8.5277 53.664 6.87655 53.664C10.5674 52.9873 14.8392 52.2102 19.0155 51.3377L19.0141 51.3365Z" fill="#D2002D"/>
</g>
<defs>
<clipPath id="clip0_2317_25727">
<rect width="203.259" height="80" fill="white" transform="translate(0.370117)"/>
</clipPath>
</defs>
</svg>
