<svg width="142" height="80" viewBox="0 0 142 80" fill="none" xmlns="http://www.w3.org/2000/svg">
<g clip-path="url(#clip0_2317_25732)">
<path d="M56.2031 26.6899H61.8988V49.4954H67.5965V20.9883H61.8998C58.7662 20.9883 56.2031 23.5543 56.2031 26.6899ZM73.2932 49.4954H78.9899V38.0922C78.9899 34.9566 76.4268 32.3915 73.2942 32.3915L73.2932 49.4954ZM84.6876 32.3915V49.4954H90.3833V38.0922H96.081V43.7938C96.081 46.9294 98.645 49.4954 101.778 49.4954V38.0922C101.778 34.9566 99.2146 32.3915 96.081 32.3915H84.6876ZM135.959 32.3915H130.262V26.6899C130.262 23.5543 127.699 20.9883 124.565 20.9883V43.7938H113.172V38.0931H118.869V32.3915H113.172C110.038 32.3915 107.474 34.9566 107.474 38.0922V43.7938C107.474 46.9294 110.038 49.4954 113.172 49.4954H130.262V38.0922H135.959V43.7938C135.959 46.9294 138.523 49.4954 141.656 49.4954V38.0922C141.656 34.9566 139.092 32.3915 135.959 32.3915ZM73.2932 26.6899H78.9899C78.9899 23.5543 76.4268 20.9883 73.2942 20.9883L73.2932 26.6899Z" fill="white"/>
<path fill-rule="evenodd" clip-rule="evenodd" d="M65.0872 55.1963V58.8818H64.5649L62.5153 56.3276V58.8808H61.9023V55.1953H62.4246L64.4743 57.7603V55.1963H65.0872ZM76.6757 58.8818H74.4654V55.1963H76.6225V55.8013H75.1207V56.7178H76.4629V57.3228H75.1207V58.2757H76.6757V58.8818ZM86.0539 55.8013H87.263V58.8808H87.9183V55.8013H89.1265V55.1963H86.0539V55.8013ZM103.069 55.1963H103.698L102.633 58.8818H102.02L101.12 56.2172L100.236 58.8808H99.6182L98.5047 55.1953H99.2398L99.9907 57.8234L100.821 55.1963H101.472L102.323 57.8274L103.069 55.1963ZM113.619 55.7432C113.257 56.1078 113.076 56.5591 113.076 57.0962C113.076 57.6618 113.259 58.119 113.625 58.4708C113.99 58.8216 114.454 58.997 115.014 58.997C115.572 58.997 116.035 58.8177 116.405 58.46C116.774 58.1023 116.959 57.647 116.959 57.0962C116.959 56.5345 116.774 56.0773 116.405 55.7225C116.039 55.3717 115.576 55.1963 115.014 55.1963C114.454 55.1963 113.989 55.3786 113.619 55.7432ZM114.125 58.0235C113.887 57.7771 113.769 57.4687 113.769 57.0972C113.769 56.7178 113.886 56.4074 114.12 56.165C114.235 56.0458 114.375 55.9519 114.529 55.8893C114.683 55.8268 114.848 55.7968 115.014 55.8013C115.366 55.8013 115.663 55.9225 115.904 56.165C116.146 56.4113 116.267 56.7207 116.267 57.0962C116.267 57.4687 116.152 57.7771 115.926 58.0225C115.702 58.2688 115.399 58.392 115.014 58.392C114.66 58.392 114.363 58.2688 114.125 58.0235ZM126.992 57.512V58.8916H126.337V55.2061C126.521 55.2061 126.722 55.2052 126.939 55.2012C127.155 55.1983 127.333 55.1963 127.471 55.1963C128.373 55.1963 128.824 55.5747 128.824 56.3335C128.824 56.6143 128.751 56.8459 128.605 57.0282C128.476 57.1925 128.302 57.3165 128.105 57.3859L129.271 58.8916H128.478L127.45 57.512H126.992ZM127.439 55.8013C127.422 55.8013 127.393 55.8033 127.354 55.8063C127.315 55.8063 127.26 55.8082 127.189 55.8122H126.992V56.907H127.418C127.601 56.9153 127.781 56.8615 127.929 56.7542C127.994 56.7067 128.047 56.644 128.082 56.5715C128.117 56.499 128.134 56.4189 128.131 56.3384C128.131 55.9807 127.901 55.8013 127.439 55.8013ZM138.65 58.8808H139.304V56.9809L140.827 58.8808H141.658L140.028 56.9119L141.562 55.1963H140.774L139.304 56.9434V55.1973H138.65V58.8827V58.8808Z" fill="white"/>
<path d="M12.458 42.4183L13.7864 32.3986L2.24023 24.3753L12.7911 27.9504L15.2842 24.127L24.3796 18.4727L44.4437 29.531L45.4823 46.4092L36.5515 58.8393L29.49 59.9203L33.1459 53.2263V46.7827L30.4872 41.7531L27.7872 39.9656L23.6326 44.2472V48.7782L20.3926 51.8132L16.2805 52.3119L14.4525 53.3515L11.4618 52.3956L10.2152 47.9051L12.459 44.7458V42.4183H12.458Z" fill="white"/>
<path d="M30.9004 24.2928C28.6989 23.8356 26.2886 23.9597 26.2886 23.9597C26.2886 23.9597 25.5003 27.6186 20.5988 28.5744C20.6402 28.5744 27.0789 30.7778 30.9004 24.2928ZM32.8939 57.4669C35.5525 55.3886 37.547 52.5201 38.4615 49.278C38.5019 49.1529 38.8753 48.945 39.1256 48.7784C39.5405 48.5291 39.9563 48.3212 40.0391 47.9891C40.2056 47.0333 40.2884 46.035 40.2884 45.0368C40.2884 44.6623 39.914 44.2889 39.5405 43.9144C39.2498 43.6651 38.9591 43.3744 38.9591 43.1665C38.5432 39.3825 36.7991 35.8498 34.0162 33.2729L33.7255 33.5636C36.4256 36.0991 38.1698 39.55 38.5442 43.2079C38.5856 43.5409 38.9177 43.873 39.2498 44.2061C39.5405 44.4554 39.8726 44.8299 39.8726 44.9954C39.8726 45.9513 39.7898 46.9071 39.6233 47.864C39.5819 48.0305 39.2084 48.197 38.9177 48.3626C38.5019 48.5705 38.1284 48.7784 38.0456 49.1115C37.037 52.6426 34.7968 55.6955 31.7311 57.7171C32.2711 56.5524 33.9739 52.7704 34.8883 50.8577L34.7218 44.7047L29.4469 39.5904L26.4561 40.0072L23.1747 45.3285C23.1747 45.3285 24.711 47.2826 22.5509 49.5687C20.4323 51.8135 18.7709 52.3121 18.7709 52.3121L17.2336 51.4804C17.6908 50.899 18.6043 50.026 19.3109 49.4436C20.515 48.4463 21.7202 48.3626 21.7202 47.2826C21.7616 45.0368 19.3523 45.6606 19.3523 45.6606L18.4802 46.4923L18.1057 49.5687L16.2787 51.8549L16.0708 51.8135L13.0801 51.1484C13.0801 51.1484 14.908 50.1925 15.1987 49.1115C15.4894 48.0719 14.6173 44.6219 14.575 44.414C14.6173 44.4554 15.448 45.1619 15.8215 46.3257C16.4857 44.4968 17.3588 42.7506 17.6081 42.5841C17.8564 42.4185 21.2216 40.631 21.2216 40.631L20.1002 43.5823L20.9309 43.1251L22.9244 38.2197C22.9244 38.2197 24.8775 37.2638 26.331 37.2638C28.9482 37.2215 32.8111 34.0208 31.0669 28.2837C31.5645 28.4907 40.2056 32.8147 41.7005 41.2962C42.8219 47.8226 39.1256 53.9341 32.8939 57.4669Z" fill="#94A6C3"/>
<path d="M23.0096 25.2086C23.9654 24.0862 23.591 22.4229 23.591 22.4229L20.8082 26.5389C20.7658 26.5389 21.8044 26.5803 23.0096 25.2086ZM13.6629 47.6998L13.995 46.0364C13.995 46.0364 12.6253 48.4477 12.5001 48.7798C12.375 49.1543 12.5829 49.8194 13.1229 49.778C13.6629 49.7366 14.3281 48.9463 14.3281 48.3649C14.3281 47.616 13.6629 47.6998 13.6629 47.6998Z" fill="#0A192B"/>
<path d="M38.3376 21.2575C38.3376 21.2575 40.4148 21.3412 42.5749 21.5905C37.7158 17.7661 33.105 16.6437 29.3663 16.6437C24.2146 16.6437 20.7252 18.7634 20.5173 18.8885L22.1383 16.3107C22.1383 16.3107 15.6582 15.6869 13.373 22.5464C12.7916 21.0919 12.2516 18.9713 12.2516 18.9713C12.2516 18.9713 8.88643 21.9226 10.4651 26.828C6.60223 25.4149 1.077 23.4609 0.870061 23.4195C0.578378 23.3781 0.495603 23.5022 0.495603 23.5022C0.495603 23.5022 0.412828 23.6274 0.662138 23.8353C1.11839 24.2098 9.84228 30.6534 11.753 31.9C11.3372 33.3968 11.3372 34.1034 11.753 34.8099C12.3344 35.7658 12.3758 36.2654 12.293 36.9719C12.2102 37.6784 11.4623 43.79 11.2958 44.5379C11.1302 45.2869 9.38505 47.9475 9.46881 48.7368C9.55158 49.5271 10.6316 52.8943 11.5875 53.2687C12.293 53.518 14.0372 54.058 15.201 54.058C15.6158 54.058 15.9893 53.9753 16.1568 53.8087C16.8624 53.185 17.0703 53.0598 17.5689 53.0598H17.6931C17.9 53.0598 18.1503 53.1022 18.441 53.1022C19.1052 53.1022 19.9783 52.977 20.6011 52.3957C21.5145 51.4812 23.0942 50.2336 23.5918 49.6513C24.2146 48.8619 24.5477 47.7809 24.3801 46.6999C24.257 45.7017 24.797 44.8296 25.4197 43.9565C26.2081 42.9169 27.6626 41.0466 27.6626 41.0466C30.5291 43.2076 32.3147 46.492 32.3147 50.1509C32.3147 56.6349 26.6653 61.8734 19.6876 61.8734C18.6066 61.8734 17.5689 61.7492 16.5303 61.4989C19.729 62.6223 22.429 62.9968 24.6304 62.9968C29.324 62.9968 31.8171 61.292 31.8171 61.292C31.8171 61.292 30.944 62.4144 29.5319 63.7033H29.5733C37.3413 62.6223 41.1224 56.2201 41.1224 56.2201C41.1224 56.2201 40.8307 58.2993 40.4572 59.7124C50.8001 51.9374 49.056 42.2104 49.0136 41.8773C49.0973 42.0025 50.136 43.249 50.676 43.9142C52.3374 26.7876 38.3376 21.2575 38.3376 21.2575ZM22.429 48.6126C22.2625 48.8196 21.5559 49.4433 21.0583 49.9006C20.5597 50.3588 20.0197 50.816 19.6038 51.2309C19.4383 51.3984 19.1052 51.4812 18.6066 51.4812H17.36C17.9838 50.6495 19.8117 48.7368 20.4345 48.3209C21.1825 47.8223 21.5559 47.3237 21.0997 46.4506C20.6424 45.5776 19.4383 45.7855 19.4383 45.7855C19.4383 45.7855 20.1438 45.4948 20.7666 45.4948C19.9783 45.2869 18.981 45.4948 18.5238 45.952C18.0252 46.4092 18.1089 48.0303 17.901 49.0699C17.6941 50.1509 16.9866 50.6909 15.9065 51.6881C15.3251 52.2291 14.9103 52.3957 14.5772 52.3957C13.8582 52.2696 13.15 52.0887 12.4586 51.8547C12.0447 51.3146 11.4209 49.5271 11.2544 48.7782C11.3795 48.3633 11.8772 47.4902 12.1265 46.9906C12.6251 46.0348 12.9158 45.4948 12.9996 44.9952C13.1651 44.2886 13.7051 39.9232 13.913 38.0943C14.453 38.8008 15.201 39.9656 15.0344 40.7135C16.2396 39.0088 15.3665 37.3464 14.9517 36.6812C14.5772 36.0161 14.0796 34.6857 14.4944 33.2717C14.9103 31.8586 16.4061 27.9504 16.4061 27.9504C16.4061 27.9504 16.9038 28.8235 17.6103 28.6579C18.3159 28.4904 24.0067 19.9271 24.0067 19.9271C24.0067 19.9271 25.5439 23.2943 23.9239 25.747C22.2625 28.2007 20.6424 28.6579 20.6424 28.6579C20.6424 28.6579 22.9276 29.0728 25.0453 27.5346C25.9184 29.5724 26.7491 31.693 26.7895 31.9837C26.6653 32.2744 25.0039 36.2654 24.8384 36.5147C24.7546 36.5974 24.1732 36.764 23.7583 36.8477C23.0518 37.0547 22.6359 37.1798 22.4704 37.305C22.1797 37.5543 20.8504 41.2122 20.2276 43.0007C19.4787 43.2076 18.7317 43.6235 18.1917 44.4552C18.4824 44.2472 19.3959 44.1221 20.0611 44.0393C20.6424 43.9979 22.429 44.9538 22.8853 46.7413V46.8251C22.969 47.4902 22.7611 48.113 22.429 48.6126ZM18.5238 49.1113C18.8983 48.5703 18.8559 47.6558 18.8983 47.3651C18.9396 47.0744 19.0224 46.5334 19.3545 46.4506C19.6866 46.3669 20.4759 46.492 20.4759 47.0744C20.4759 47.6144 19.8945 47.7396 19.4797 48.113C19.189 48.4047 18.6066 49.0275 18.5238 49.1113ZM35.0985 41.1708C35.5134 39.0501 35.5548 37.2212 35.4306 35.7244C37.0506 37.8864 38.0479 40.5056 38.3376 43.2076C38.3799 43.5407 38.712 43.8728 39.0441 44.2059C39.3358 44.4552 39.6679 44.7872 39.6679 44.9952C39.6679 45.951 39.5841 46.9069 39.4186 47.8637C39.3772 47.9889 39.0027 48.1968 38.712 48.3633C38.2972 48.5703 37.9237 48.7782 37.8399 49.1113C36.9208 52.3048 34.9985 55.1179 32.3571 57.1345C36.2199 53.1022 38.0892 46.4506 35.0985 41.1708ZM32.4812 57.509C35.1813 55.4297 37.2585 52.5198 38.172 49.2354C38.2134 49.1113 38.5879 48.9033 38.8372 48.7368C39.252 48.5299 39.6679 48.2796 39.7507 47.9475C39.9172 46.9916 40 45.9934 40 44.9952C40 44.6207 39.6255 44.2463 39.252 43.8728C39.0451 43.6235 38.712 43.3328 38.712 43.1239C38.3729 40.1022 37.1926 37.2364 35.3054 34.8523C34.4747 29.8631 31.1519 28.3249 31.0682 28.2835C31.1519 28.4086 33.312 31.5255 31.8171 35.1844C30.2798 38.8846 26.3332 38.3022 26.0011 38.3436C25.6691 38.3436 24.3811 40.007 22.7611 43.0835C22.5542 42.9997 21.6811 42.7918 20.6838 42.9583C21.4318 40.8791 22.5532 37.9278 22.7611 37.6784C22.8439 37.5957 23.4667 37.4291 23.8825 37.304C24.6718 37.0971 25.0453 36.9719 25.1704 36.8054C25.2532 36.6812 25.6691 35.7254 26.0839 34.7271C26.4584 34.7271 27.4142 34.6444 27.496 34.602C27.5798 34.5192 28.3691 32.4823 28.3691 32.233C28.3691 32.0251 26.7491 27.9928 26.1253 26.4546C26.417 26.1215 26.7067 25.7056 26.9984 25.2484C35.5134 26.1629 42.16 33.3968 42.16 42.168C42.16 48.9033 38.2134 54.7646 32.4812 57.509Z" fill="#0A192B"/>
<path d="M21.4305 35.0604C22.2189 34.1459 21.805 32.4422 20.3505 32.1505C20.725 31.2774 21.264 29.5322 21.264 29.5322C21.264 29.5322 17.0267 36.1838 16.6532 36.308C16.2788 36.4331 15.9053 34.9776 15.9053 34.9776C15.117 38.0127 17.2356 38.4286 17.484 37.4717C18.6467 37.181 20.6412 35.9345 21.4305 35.0604Z" fill="#0A192B"/>
<path d="M17.8184 36.6817L19.9784 32.9814C19.9784 32.9814 21.224 33.6052 20.6012 34.6034C19.8128 35.7662 17.8184 36.6817 17.8184 36.6817Z" fill="#FFD923"/>
<path d="M44.5259 53.8092C43.9022 54.6409 43.1956 55.514 42.3659 56.3457C47.7246 46.0353 42.6152 36.5979 42.4073 36.2235C42.7818 36.5979 43.1552 37.0138 43.4873 37.3882C47.5995 41.9606 48.0981 48.821 44.5259 53.8092ZM49.5102 40.5475C47.6409 35.5179 44.9822 31.2353 39.1259 27.3695C33.4765 23.6279 27.4112 23.9186 27.0791 23.9599H26.9954C27.2033 23.8772 27.4112 23.8358 27.6192 23.7944C28.9071 23.3786 30.5685 23.0455 32.2299 22.8385C36.6328 22.2148 41.078 23.7106 44.1101 26.9123L44.1929 26.995C47.6418 30.6539 49.4274 35.2262 49.5102 40.5475ZM37.7965 19.969C31.6071 18.8062 27.6192 19.3876 24.7526 20.4686C24.6698 20.1355 24.3781 19.4704 24.1298 18.9304C23.2577 19.97 22.3432 21.2165 21.7618 22.0069C20.1832 23.0879 19.519 24.1265 19.519 24.1265C20.4325 21.0086 23.0912 18.6811 26.3312 18.0987C27.2447 17.9322 28.2429 17.8494 29.322 17.8494C32.1885 17.8908 35.0541 18.5983 37.7965 19.97V19.969ZM14.9083 27.9509C10.0472 27.7853 11.6672 22.131 11.751 21.7989C11.751 21.8403 12.0831 26.2471 14.9083 27.9519V27.9509ZM19.6846 17.7666C15.9459 20.0114 16.6938 25.374 16.6938 25.374C13.1217 19.9276 19.3939 17.8908 19.6846 17.7666Z" fill="#D82122"/>
<path d="M13.5364 29.449C13.7857 29.6559 14.035 30.0303 13.7443 30.5704C13.5788 30.862 13.3295 30.8197 12.956 30.6541C12.4564 30.4048 9.46567 28.6586 6.76562 26.8701C9.84012 27.9521 12.955 29.1159 13.4536 29.3652L13.5374 29.448L13.5364 29.449Z" fill="white"/>
</g>
<defs>
<clipPath id="clip0_2317_25732">
<rect width="141.63" height="80" fill="white" transform="translate(0.185547)"/>
</clipPath>
</defs>
</svg>
