<svg width="64" height="64" viewBox="0 0 64 64" fill="none" xmlns="http://www.w3.org/2000/svg">
<path d="M45.7667 22.753C44.7827 22.18 43.5175 22.18 42.3929 22.753L34.5207 27.4796L29.1789 30.4875L21.4473 35.2142C20.4632 35.7871 19.1981 35.7871 18.0735 35.2142L12.0287 31.4901C11.0447 30.9172 10.3418 29.7713 10.3418 28.4823V21.3206C10.3418 20.1748 10.9041 19.0289 12.0287 18.3127L18.0735 14.7319C19.0575 14.159 20.3227 14.159 21.4473 14.7319L27.492 18.456C28.476 19.0289 29.1789 20.1748 29.1789 21.4639V21.514C29.1789 23.5812 31.4263 24.8648 33.2068 23.8145C34.021 23.3342 34.5207 22.4593 34.5207 21.514V18.1695C34.5207 17.0236 33.9584 15.8778 32.8338 15.1616L21.5878 8.4297C20.6038 7.85677 19.3386 7.85677 18.214 8.4297L6.6869 15.3049C5.5623 15.8778 5 17.0236 5 18.1695V31.6334C5 32.7792 5.5623 33.9251 6.6869 34.6413L18.0735 41.3732C19.0575 41.9461 20.3227 41.9461 21.4473 41.3732L29.1789 36.7897L34.5207 33.6386L42.2523 29.0552C43.2364 28.4823 44.5015 28.4823 45.6261 29.0552L51.6709 32.636C52.6549 33.2089 53.3578 34.3548 53.3578 35.6439V42.8055C53.3578 43.9514 52.7955 45.0972 51.6709 45.8134L45.7667 49.3942C44.7827 49.9671 43.5175 49.9671 42.3929 49.3942L36.3482 45.8134C35.3642 45.2405 34.6613 44.0946 34.6613 42.8055C34.6613 40.7795 32.4586 39.5214 30.7135 40.5508L30.6333 40.5981C29.8191 41.0784 29.3195 41.9533 29.3195 42.8986V46.0999C29.3195 47.2457 29.8818 48.3916 31.0064 49.1077L42.3929 55.8397C43.3769 56.4126 44.6421 56.4126 45.7667 55.8397L57.1533 49.1077C58.1373 48.5348 58.8402 47.3889 58.8402 46.0999V32.4928C58.8402 31.3469 58.2779 30.201 57.1533 29.4849L45.7667 22.753Z" fill="url(#paint0_linear_74_12068)"/>
<defs>
<linearGradient id="paint0_linear_74_12068" x1="5.00624" y1="8" x2="46.5047" y2="65.2201" gradientUnits="userSpaceOnUse">
<stop stop-color="#A726C1"/>
<stop offset="1" stop-color="#7B3FE4"/>
</linearGradient>
</defs>
</svg>
