<svg width="64" height="64" viewBox="0 0 64 64" fill="none" xmlns="http://www.w3.org/2000/svg">
<path d="M18.7873 40.6099C18.5579 41.1797 17.9762 42.0344 16.665 41.7099C16.7113 41.7772 13.299 40.8697 13.299 40.8697L11 46.1708L17.0265 47.6732C18.1476 47.9541 19.2464 48.2483 20.328 48.5253L18.4114 56.2204L23.0372 57.3746L24.9353 49.7612C26.199 50.1041 27.4256 50.4207 28.6258 50.7188L26.7343 58.2965L31.3655 59.4506L33.282 51.77C41.179 53.2644 47.1171 52.6617 49.6166 45.5192C51.6308 39.7684 49.5164 36.4509 45.3615 34.2878C48.3874 33.59 50.6665 31.5997 51.2746 27.4883C52.1148 21.8719 47.8385 18.8527 41.9914 16.8385L43.8881 9.23038L39.2569 8.07625L37.4104 15.4838C36.193 15.1805 34.9425 14.8942 33.7001 14.6106L35.5598 7.15413L30.9314 6L29.0333 13.6054C28.0256 13.3759 27.0364 13.149 26.0761 12.9103L26.0813 12.8865L19.6946 11.2918L18.4626 16.2381C18.4626 16.2381 21.8987 17.0256 21.8261 17.0744C23.7018 17.5426 24.0408 18.7838 23.9841 19.7679L18.7873 40.6099ZM40.6935 42.3259C39.2624 48.0767 29.5795 44.9678 26.4402 44.1883L28.9833 33.9937C32.1225 34.7771 42.1892 36.3283 40.6935 42.3259ZM42.1259 27.4052C40.8201 32.6365 32.7609 29.9787 30.1466 29.3271L32.4523 20.0807C35.0666 20.7323 43.4858 21.9484 42.1259 27.4052Z" fill="#F7931A"/>
</svg>
