<svg width="64" height="64" viewBox="0 0 64 64" fill="none" xmlns="http://www.w3.org/2000/svg">
<path d="M38.7316 28.6967L43.1709 21.1643L55.1362 39.8008L55.1418 43.3772L55.1028 18.7661C55.0745 18.1645 54.755 17.6141 54.2453 17.2896L32.7032 4.89826C32.1994 4.65065 31.5603 4.65327 31.0573 4.90596C30.9894 4.9401 30.9254 4.97705 30.8645 5.01738L30.7894 5.06466L9.87932 17.1819L9.7981 17.2187C9.6938 17.2667 9.58837 17.3277 9.48933 17.3986C9.09295 17.683 8.82958 18.1034 8.74441 18.575C8.73166 18.6464 8.72228 18.7192 8.71777 18.7926L8.7506 38.8482L19.8958 21.5738C21.299 19.2831 24.3563 18.5453 27.1943 18.5855L30.5253 18.6735L10.8991 50.1484L13.2126 51.4805L33.0741 18.7054L41.8529 18.6735L22.0426 52.2756L30.298 57.0239L31.2843 57.5912C31.7015 57.7607 32.1934 57.7692 32.6141 57.6174L54.459 44.958L50.2825 47.3781L38.7316 28.6967ZM40.4253 53.0905L32.0872 40.004L37.177 31.367L48.1275 48.6269L40.4253 53.0905Z" fill="#2D374B"/>
<path d="M32.0869 40.0038L40.425 53.0903L48.1274 48.6267L37.1769 31.3668L32.0869 40.0038Z" fill="#28A0F0"/>
<path d="M55.1417 43.377L55.1361 39.8006L43.1707 21.1641L38.7314 28.6965L50.2824 47.3779L54.4589 44.9578C54.8686 44.6252 55.1164 44.1369 55.1424 43.61L55.1417 43.377Z" fill="#28A0F0"/>
<path d="M5.00019 46.7501L10.898 50.1484L30.5242 18.6735L27.1932 18.5855C24.3552 18.5454 21.2981 19.2832 19.8947 21.5738L8.74952 38.8483L5 44.6093V46.7501H5.00019Z" fill="white"/>
<path d="M41.853 18.6732L33.0744 18.7051L13.2129 51.4802L20.155 55.4774L22.0429 52.2754L41.853 18.6732Z" fill="white"/>
<path d="M58.8402 18.628C58.7668 16.7921 57.7728 15.1113 56.2156 14.1328L34.3912 1.58218C32.8509 0.806503 30.9266 0.805564 29.3839 1.58162C29.2016 1.67354 8.15993 13.8769 8.15993 13.8769C7.86879 14.0165 7.58835 14.1829 7.32441 14.3716C5.93438 15.3679 5.08704 16.9159 5 18.6167V44.6092L8.74952 38.8482L8.71669 18.7925C8.72119 18.7192 8.73039 18.6471 8.74333 18.5758C8.82793 18.1039 9.09149 17.6829 9.48824 17.3985C9.58729 17.3276 30.9881 4.94002 31.0562 4.90588C31.5594 4.65319 32.1985 4.65057 32.7021 4.89818L54.2443 17.2895C54.7539 17.6141 55.0734 18.1644 55.1017 18.766V43.6101C55.0756 44.137 54.8674 44.6251 54.4577 44.9579L50.2813 47.378L48.1264 48.6268L40.424 53.0904L32.6129 57.6173C32.1921 57.7693 31.7002 57.7608 31.283 57.5911L22.0413 52.2756L20.1534 55.4773L28.4587 60.2591C28.7333 60.4152 28.9781 60.5537 29.1789 60.6666C29.4899 60.841 29.7017 60.9575 29.7765 60.9937C30.3669 61.2804 31.2161 61.4473 31.9814 61.4473C32.6832 61.4473 33.3673 61.3185 34.0149 61.0648L56.7028 47.9256C58.005 46.9167 58.7711 45.3952 58.8402 43.7468V18.628Z" fill="#96BEDC"/>
</svg>
