<svg width="64" height="64" viewBox="0 0 64 64" fill="none" xmlns="http://www.w3.org/2000/svg">
<path d="M32.1586 63.8229V47.8546L12.4033 36.3027L32.1551 63.8229H32.1586Z" fill="#F0CDC2"/>
<path d="M32.159 64.0002C32.1024 64.0002 32.0493 63.9719 32.014 63.926L12.2587 36.4058C12.2092 36.3386 12.2163 36.2466 12.2728 36.183C12.3294 36.1229 12.4213 36.1087 12.4921 36.1512L32.2438 47.7031C32.2969 47.7349 32.3322 47.7915 32.3322 47.8551V63.8234C32.3322 63.9012 32.2827 63.9684 32.2085 63.9931C32.1908 64.0002 32.1731 64.0002 32.1554 64.0002H32.159ZM13.0331 36.876L31.9822 63.2753V47.9577L13.0331 36.876Z" fill="#1616B4"/>
<path d="M32.2197 63.8229V47.8546L51.9715 36.3027L32.2197 63.8229Z" fill="#C9B3F5"/>
<path d="M32.2217 64.0002C32.204 64.0002 32.1864 64.0002 32.1687 63.9931C32.0944 63.9684 32.0449 63.9012 32.0449 63.8234V47.8551C32.0449 47.7915 32.0767 47.7349 32.1333 47.7031L51.8851 36.1512C51.9558 36.1087 52.0477 36.1229 52.1043 36.183C52.1609 36.2431 52.1644 36.3386 52.1184 36.4058L32.3667 63.926C32.3313 63.9719 32.2783 64.0002 32.2217 64.0002ZM32.3985 47.9577V63.2753L51.3476 36.876L32.3985 47.9577Z" fill="#1616B4"/>
<path d="M32.1583 43.8875V23.5063L12.1768 32.4523L32.1583 43.884V43.8875Z" fill="#88AAF1"/>
<path d="M32.1586 44.0643C32.1268 44.0643 32.0985 44.0573 32.0702 44.0396L12.0886 32.6079C12.0321 32.5761 11.9967 32.5124 12.0002 32.4452C12.0002 32.378 12.0427 32.3215 12.1063 32.2932L32.0879 23.3473C32.141 23.3225 32.2046 23.326 32.2576 23.3614C32.3071 23.3932 32.339 23.4498 32.339 23.5099V43.8911C32.339 43.9547 32.3071 44.0113 32.2506 44.0431C32.2223 44.0572 32.194 44.0679 32.1622 44.0679L32.1586 44.0643ZM12.566 32.4735L31.9783 43.5834V23.7822L12.566 32.4735Z" fill="#1616B4"/>
<path d="M32.2197 43.8875V23.5063L52.2013 32.4523L32.2197 43.884V43.8875Z" fill="#C9B3F5"/>
<path d="M32.2217 44.0643C32.1899 44.0643 32.1616 44.0573 32.1333 44.0396C32.0803 44.0078 32.0449 43.9512 32.0449 43.8875V23.5064C32.0449 23.4463 32.0767 23.3897 32.1262 23.3579C32.1758 23.3261 32.2394 23.319 32.296 23.3437L52.2776 32.2897C52.3377 32.318 52.3801 32.3745 52.3801 32.4417C52.3801 32.5089 52.3483 32.5725 52.2917 32.6044L32.3101 44.0361C32.2818 44.0502 32.2535 44.0608 32.2217 44.0608V44.0643ZM32.3985 23.7822V43.5835L51.8108 32.4735L32.3985 23.7787V23.7822Z" fill="#1616B4"/>
<path d="M12.1768 32.4526L32.1583 0.176514V23.5066L12.1768 32.4526Z" fill="#F0CDC2"/>
<path d="M12.177 32.6291C12.1275 32.6291 12.078 32.6079 12.0426 32.569C11.9931 32.5089 11.9861 32.424 12.025 32.3603L32.0065 0.0843043C32.049 0.0171215 32.1268 -0.0147019 32.2046 0.00651371C32.2788 0.0277293 32.3319 0.0984481 32.3319 0.176239V23.5064C32.3319 23.5771 32.2894 23.6407 32.2258 23.669L12.2477 32.6149C12.223 32.6255 12.1982 32.6291 12.177 32.6291ZM31.9818 0.798564L12.6296 32.0563L31.9783 23.3932V0.798564H31.9818Z" fill="#1616B4"/>
<path d="M52.2013 32.4526L32.2197 0.176514V23.5066L52.2013 32.4526Z" fill="#B8FAF6"/>
<path d="M52.2033 32.6291C52.1786 32.6291 52.1538 32.6255 52.1326 32.6149L32.151 23.669C32.0874 23.6407 32.0449 23.5771 32.0449 23.5064V0.176239C32.0449 0.0984481 32.098 0.0277293 32.1722 0.00651371C32.2465 -0.0147019 32.3278 0.0171215 32.3702 0.0843043L52.3518 32.3603C52.3942 32.4275 52.3872 32.5124 52.3341 32.569C52.2988 32.6079 52.2493 32.6291 52.1998 32.6291H52.2033ZM32.3985 23.3897L51.7472 32.0527L32.3985 0.798564V23.3932V23.3897Z" fill="#1616B4"/>
</svg>
