<svg width="64" height="64" viewBox="0 0 64 64" fill="none" xmlns="http://www.w3.org/2000/svg">
<path d="M20.8363 27.5094L32.1633 16.1828L43.4963 27.5154L50.0871 20.9245L32.1633 3L14.2454 20.9185L20.8363 27.5094Z" fill="#F1BB0F"/>
<path d="M16.1818 32.1624L9.59104 25.5716L3 32.1627L9.59072 38.7535L16.1818 32.1624Z" fill="#F1BB0F"/>
<path d="M20.8361 36.8174L32.163 48.1441L43.4956 36.8119L50.0901 43.3991L50.0869 43.4028L32.163 61.3269L14.2355 43.3996L20.8361 36.8174Z" fill="#F1BB0F"/>
<path d="M54.7358 38.7567L61.3269 32.1655L54.7361 25.5747L48.1451 32.1659L54.7358 38.7567Z" fill="#F1BB0F"/>
<path d="M38.8484 32.16H38.8511L32.1631 25.4719L25.4718 32.1632L25.4811 32.1729L32.1631 38.855L38.8511 32.1669L38.8543 32.1632L38.8484 32.16Z" fill="#F1BB0F"/>
</svg>
